<svg width="104" height="104" viewBox="0 0 104 104" fill="none" xmlns="http://www.w3.org/2000/svg">
<path d="M23.6074 58.7877C23.6074 56.1036 25.7833 53.9277 28.4674 53.9277H88.2457C89.097 53.9277 89.5368 55.3469 88.9277 55.9415C87.4041 57.4281 85.8011 59.7403 85.8011 62.8869C85.8011 66.1348 87.5094 68.5427 89.0743 70.0671C89.6769 70.6542 89.2468 72.0128 88.4052 72.0128H28.4674C25.7833 72.0128 23.6074 69.8369 23.6074 67.1528V58.7877Z" fill="#612C8C"/>
<path d="M57.6487 24.6728C57.6487 29.3427 54.1842 34.8195 47.255 34.8195C40.3259 34.8195 36.8613 29.3427 36.8613 24.6728C36.8613 19.6381 40.1423 18.5454 43.6986 18.6516C45.1582 18.6951 47.255 19.8064 47.255 19.8064C47.255 19.8064 49.3518 18.6951 50.8114 18.6516C54.3677 18.5454 57.6487 19.5993 57.6487 24.6728Z" fill="white" stroke="#612C8C" stroke-width="1.62" stroke-linecap="round" stroke-linejoin="round"/>
<path d="M50.3301 31.7874C51.4127 31.3687 53.7773 29.7259 54.5742 26.5039" stroke="#612C8C" stroke-width="1.62" stroke-linecap="round" stroke-linejoin="round"/>
<path d="M47.5234 19.4681C45.3878 19.4883 43.4347 18.0399 42.9189 13.9082C44.9536 14.7013 48.2674 14.3296 47.5234 19.4681Z" fill="white" stroke="#612C8C" stroke-width="1.62" stroke-linecap="round" stroke-linejoin="round"/>
<path d="M47.5596 19.4018C48.5123 18.2108 49.9415 14.5297 48.7072 11.8447" stroke="#612C8C" stroke-width="1.62" stroke-linecap="round" stroke-linejoin="round"/>
<path d="M41.5407 26.0573C41.0961 25.2241 40.9706 23.8497 41.4245 22.793" stroke="#612C8C" stroke-width="1.62" stroke-linecap="round" stroke-linejoin="round"/>
<path d="M17.8379 40.5856C17.8379 37.9015 20.0138 35.7256 22.6979 35.7256H80.6359C80.6359 35.7256 76.1493 38.6215 75.6822 44.0943C75.2151 49.567 80.6359 52.4249 80.6359 52.4249H22.6979C20.0138 52.4249 17.8379 50.249 17.8379 47.5649V40.5856Z" fill="white"/>
<path fill-rule="evenodd" clip-rule="evenodd" d="M81.5177 37.0845L81.5153 37.0859L81.4999 37.0966C81.4788 37.1107 81.4432 37.1355 81.3946 37.1708C81.2974 37.2415 81.1492 37.3541 80.9652 37.5074C80.5962 37.8153 80.0926 38.2813 79.5757 38.8981C78.5385 40.1357 77.4932 41.9232 77.2962 44.2319C77.1147 46.3583 78.0604 48.0118 79.1717 49.2103C79.7253 49.8073 80.2966 50.2632 80.7301 50.569C80.9452 50.7208 81.1224 50.8328 81.2407 50.904C81.299 50.9395 81.3428 50.9646 81.3695 50.9793C81.3824 50.9867 81.3905 50.9914 81.3946 50.9935L81.393 50.9928L81.3922 50.9923C81.3938 50.993 81.3962 50.9944 81.3962 50.9944C82.0515 51.3429 82.3868 52.0927 82.2086 52.8139C82.0296 53.5369 81.3808 54.0448 80.6358 54.0448H22.6978C19.119 54.0448 16.2178 51.1436 16.2178 47.5648V40.5855C16.2178 37.0066 19.119 34.1055 22.6978 34.1055H80.6358C81.3541 34.1055 81.9867 34.5785 82.19 35.2676C82.3925 35.9546 82.1195 36.6928 81.5193 37.0832L81.5177 37.0845ZM78.4707 50.8048C79.5987 51.878 80.6358 52.4248 80.6358 52.4248H22.6978C20.0137 52.4248 17.8378 50.2488 17.8378 47.5648V40.5855C17.8378 37.9014 20.0137 35.7255 22.6978 35.7255H80.6358C80.6358 35.7255 79.7855 36.2742 78.7868 37.3455C77.4913 38.735 75.9459 41.0038 75.6821 44.0941C75.4193 47.173 77.0201 49.4243 78.4707 50.8048Z" fill="#612C8C"/>
<path d="M13.6826 78.3756C13.6826 75.6915 15.8585 73.5156 18.5426 73.5156H76.4806C76.4806 73.5156 72.4115 76.0597 71.7356 81.7587C71.0599 87.4586 76.4806 90.2151 76.4806 90.2151H18.5426C15.8585 90.2151 13.6826 88.0386 13.6826 85.3551V78.3756Z" fill="white"/>
<path fill-rule="evenodd" clip-rule="evenodd" d="M77.3433 74.8866C77.3432 74.8867 77.3435 74.8865 77.3433 74.8866C77.3424 74.8872 77.3415 74.8877 77.3407 74.8883C77.3406 74.8883 77.3407 74.8882 77.3407 74.8883M74.6718 75.1355C75.647 74.0366 76.4805 73.5155 76.4805 73.5155H18.5425C15.8584 73.5155 13.6825 75.6914 13.6825 78.3755V85.355C13.6825 88.0385 15.8584 90.215 18.5425 90.215H76.4805C76.4805 90.215 75.429 89.6804 74.31 88.595C72.8882 87.2155 71.3573 84.9483 71.7355 81.7586C72.1055 78.639 73.4923 76.4646 74.6718 75.1355ZM77.216 88.7715C77.2176 88.7723 77.2191 88.7732 77.2208 88.774C77.2213 88.774 77.2215 88.774 77.2208 88.774C77.8847 89.115 78.23 89.8658 78.0559 90.5924C77.8812 91.3206 77.2298 91.835 76.4805 91.835H18.5425C14.9637 91.835 12.0625 88.9335 12.0625 85.355V78.3755C12.0625 74.7967 14.9637 71.8955 18.5425 71.8955H76.4805C77.2031 71.8955 77.8384 72.3741 78.0377 73.0688C78.2361 73.7603 77.9546 74.4994 77.3475 74.8839C77.3462 74.8847 77.3445 74.8858 77.3433 74.8866M77.2197 88.7732C77.2165 88.7715 77.2085 88.7675 77.196 88.7602C77.171 88.7464 77.1284 88.7229 77.0709 88.6889C76.9557 88.6217 76.7822 88.514 76.5716 88.3665C76.147 88.0701 75.5894 87.6254 75.0547 87.0357C73.9924 85.8644 73.0778 84.1967 73.3443 81.9497C73.6388 79.4658 74.6673 77.686 75.6159 76.525C76.092 75.9423 76.5463 75.5181 76.8729 75.2453C77.0357 75.1092 77.1654 75.012 77.2481 74.9526C77.2894 74.923 77.3189 74.903 77.3347 74.8924L77.3433 74.8866L77.3416 74.8876L77.3407 74.8883M77.2197 88.7732H77.2188L77.217 88.7715" fill="#612C8C"/>
<path d="M28.4629 58.8223H66.2266" stroke="white" stroke-width="1.62" stroke-linecap="round" stroke-linejoin="round"/>
<path d="M28.4629 62.9707H49.0771" stroke="white" stroke-width="1.62" stroke-linecap="round" stroke-linejoin="round"/>
<path d="M62.3252 35.1699H69.0375V45.1008C69.0375 45.8225 68.1651 46.1839 67.6548 45.6736L66.2541 44.2729C65.9378 43.9566 65.4249 43.9566 65.1086 44.2729L63.7079 45.6736C63.1976 46.1839 62.3252 45.8225 62.3252 45.1008V35.1699Z" fill="#612C8C"/>
<path d="M17.374 77.7178H55.1378" stroke="#612C8C" stroke-width="1.62" stroke-linecap="round" stroke-linejoin="round"/>
<path d="M17.374 81.8662H37.9882" stroke="#612C8C" stroke-width="1.62" stroke-linecap="round" stroke-linejoin="round"/>
<path d="M22.2256 40.0566H53.9263" stroke="#612C8C" stroke-width="1.62" stroke-linecap="round" stroke-linejoin="round"/>
</svg>
