<svg width="104" height="104" viewBox="0 0 104 104" fill="none" xmlns="http://www.w3.org/2000/svg">
<path d="M47.0321 39.9468C52.5883 39.9468 57.0927 44.451 57.0927 50.0073V67.6055C57.0927 73.1618 52.5883 77.6661 47.0321 77.6661H36.2344L29.8986 85.4868C29.4598 86.0287 28.5838 85.7184 28.5838 85.021V77.6661H28.5567C23.0003 77.6661 18.4961 73.1618 18.4961 67.6055V50.0073C18.4961 44.451 23.0004 39.9468 28.5567 39.9468H47.0321Z" fill="#612C8C"/>
<path d="M58.0557 23C52.4994 23 47.9951 27.5042 47.9951 33.0605V60.3079C47.9951 65.8641 52.4994 70.3685 58.0557 70.3685H71.2019L79.5753 80.7043C80.0142 81.246 80.8901 80.9357 80.8901 80.2386V70.3685H80.9171C86.473 70.3685 90.9774 65.8641 90.9774 60.3079V33.0605C90.9774 27.5042 86.473 23 80.9171 23H58.0557Z" fill="#612C8C"/>
<path fill-rule="evenodd" clip-rule="evenodd" d="M42.4198 37.0576C48.1406 37.0576 52.7781 41.6953 52.7781 47.416V64.4186C52.7781 70.1394 48.1406 74.777 42.4198 74.777H31.9198L24.2691 84.2205V74.7735C18.6735 74.6299 14.1816 70.0488 14.1816 64.4187V47.416C14.1816 41.6953 18.8192 37.0576 24.54 37.0576H42.4198Z" fill="white"/>
<path fill-rule="evenodd" clip-rule="evenodd" d="M31.923 74.7768H42.423C48.1438 74.7768 52.7814 70.1392 52.7814 64.4184V47.4158C52.7814 41.695 48.1438 37.0574 42.423 37.0574H24.5431C18.8224 37.0574 14.1849 41.695 14.1849 47.4158V64.4184C14.1849 70.0486 18.6767 74.6297 24.2723 74.7733V84.2203L31.923 74.7768ZM22.7925 76.1279C17.0843 75.2816 12.7051 70.3616 12.7051 64.4184V47.4158C12.7051 40.8778 18.0052 35.5776 24.5431 35.5776H42.423C48.961 35.5776 54.2612 40.8778 54.2612 47.4158V64.4184C54.2612 70.9564 48.961 76.2566 42.423 76.2566H32.6286L25.4221 85.1518C25.0275 85.6394 24.369 85.8249 23.7782 85.6151C23.1874 85.4062 22.7925 84.8473 22.7925 84.2203V76.1279Z" fill="#612C8C"/>
<path fill-rule="evenodd" clip-rule="evenodd" d="M14.9873 47.6898C14.9873 42.3777 19.2937 38.0713 24.6058 38.0713H42.3502C47.6624 38.0713 51.9687 42.3777 51.9687 47.6897V64.28C51.9687 69.5921 47.6624 73.8984 42.3502 73.8984H31.749C31.3405 73.8984 31.0092 73.5672 31.0092 73.1585C31.0092 72.7499 31.3405 72.4187 31.749 72.4187H42.3502C46.8451 72.4187 50.489 68.7748 50.489 64.28V47.6897C50.489 43.1949 46.8451 39.5511 42.3502 39.5511H24.6058C20.111 39.5511 16.4671 43.1949 16.4671 47.6898V64.28C16.4671 68.7748 20.111 72.4187 24.6058 72.4187H25.3299C25.7385 72.4187 26.0698 72.7499 26.0698 73.1585C26.0698 73.5672 25.7385 73.8984 25.3299 73.8984H24.6058C19.2937 73.8984 14.9873 69.5921 14.9873 64.28V47.6898Z" fill="#612C8C"/>
<path fill-rule="evenodd" clip-rule="evenodd" d="M20.1582 52.9634C20.1582 52.3505 20.6551 51.8535 21.2681 51.8535H30.3994C31.0124 51.8535 31.5092 52.3505 31.5092 52.9634C31.5092 53.5763 31.0124 54.0732 30.3994 54.0732H21.2681C20.6551 54.0732 20.1582 53.5763 20.1582 52.9634Z" fill="#612C8C"/>
<path fill-rule="evenodd" clip-rule="evenodd" d="M20.1582 45.9458C20.1582 45.3328 20.6551 44.8359 21.2681 44.8359H42.7849C43.3978 44.8359 43.8947 45.3328 43.8947 45.9458C43.8947 46.5587 43.3978 47.0556 42.7849 47.0556H21.2681C20.6551 47.0556 20.1582 46.5587 20.1582 45.9458Z" fill="#612C8C"/>
<path fill-rule="evenodd" clip-rule="evenodd" d="M20.1582 59.5424C20.1582 58.9295 20.6551 58.4326 21.2681 58.4326H25.067C25.6799 58.4326 26.1767 58.9295 26.1767 59.5424C26.1767 60.1553 25.6799 60.6523 25.067 60.6523H21.2681C20.6551 60.6523 20.1582 60.1553 20.1582 59.5424Z" fill="#612C8C"/>
<path fill-rule="evenodd" clip-rule="evenodd" d="M52.6093 19.3975C46.8886 19.3975 42.251 24.035 42.251 29.7558V56.4076C42.251 62.1284 46.8886 66.7659 52.6093 66.7659H65.4581L75.1463 78.7247V66.7625C80.7417 66.6187 85.2336 62.0377 85.2336 56.4076V29.7558C85.2336 24.035 80.596 19.3975 74.8752 19.3975H52.6093Z" fill="white"/>
<path fill-rule="evenodd" clip-rule="evenodd" d="M65.4574 66.7657H52.6087C46.8879 66.7657 42.2503 62.1282 42.2503 56.4074V29.7556C42.2503 24.0348 46.8879 19.3973 52.6087 19.3973H74.8744C80.5952 19.3973 85.2329 24.0348 85.2329 29.7556V56.4074C85.2329 62.0375 80.741 66.6185 75.1455 66.7623V78.7245L65.4574 66.7657ZM76.6253 68.1168C82.3331 67.2705 86.7127 62.3505 86.7127 56.4074V29.7556C86.7127 23.2176 81.4121 17.9175 74.8744 17.9175H52.6087C46.0706 17.9175 40.7705 23.2176 40.7705 29.7556V56.4074C40.7705 62.9454 46.0706 68.2455 52.6087 68.2455H64.7518L73.9957 79.656C74.3903 80.143 75.0488 80.3286 75.6396 80.1193C76.2304 79.9101 76.6253 79.3513 76.6253 78.7245V68.1168Z" fill="#612C8C"/>
<path fill-rule="evenodd" clip-rule="evenodd" d="M43.1855 30.2395C43.1855 24.9274 47.4918 20.6211 52.804 20.6211H74.5726C79.8847 20.6211 84.1915 24.9275 84.1915 30.2395V55.7065C84.1915 61.0186 79.8847 65.3249 74.5726 65.3249H74.3117C73.903 65.3249 73.5718 64.9937 73.5718 64.5851C73.5718 64.1764 73.903 63.8452 74.3117 63.8452H74.5726C79.0675 63.8452 82.7116 60.2013 82.7116 55.7065V30.2395C82.7116 25.7447 79.0675 22.1009 74.5726 22.1009H52.804C48.3091 22.1009 44.6653 25.7447 44.6653 30.2395V55.7065C44.6653 60.2013 48.3091 63.8452 52.804 63.8452H66.0565C66.465 63.8452 66.7963 64.1764 66.7963 64.5851C66.7963 64.9937 66.465 65.3249 66.0565 65.3249H52.804C47.4918 65.3249 43.1855 61.0186 43.1855 55.7065V30.2395Z" fill="#612C8C"/>
<path fill-rule="evenodd" clip-rule="evenodd" d="M50.0557 45.2478C50.0557 44.4306 50.7182 43.7681 51.5355 43.7681H75.9604C76.7776 43.7681 77.4401 44.4306 77.4401 45.2478C77.4401 46.0651 76.7776 46.7276 75.9604 46.7276H51.5355C50.7182 46.7276 50.0557 46.0651 50.0557 45.2478Z" fill="#612C8C"/>
<path fill-rule="evenodd" clip-rule="evenodd" d="M50.0557 37.5589C50.0557 36.7416 50.7182 36.0791 51.5355 36.0791H75.9604C76.7776 36.0791 77.4401 36.7416 77.4401 37.5589C77.4401 38.3761 76.7776 39.0386 75.9604 39.0386H51.5355C50.7182 39.0386 50.0557 38.3761 50.0557 37.5589Z" fill="#612C8C"/>
<path fill-rule="evenodd" clip-rule="evenodd" d="M50.0557 30.1609C50.0557 29.3437 50.7182 28.6812 51.5355 28.6812H75.9604C76.7777 28.6812 77.4402 29.3437 77.4402 30.1609C77.4402 30.9782 76.7777 31.6407 75.9604 31.6407H51.5355C50.7182 31.6407 50.0557 30.9782 50.0557 30.1609Z" fill="#612C8C"/>
<path fill-rule="evenodd" clip-rule="evenodd" d="M50.0557 52.4554C50.0557 51.6381 50.7182 50.9756 51.5355 50.9756H64.7948C65.612 50.9756 66.2745 51.6381 66.2745 52.4554C66.2745 53.2726 65.612 53.9352 64.7948 53.9352H51.5355C50.7182 53.9352 50.0557 53.2726 50.0557 52.4554Z" fill="#612C8C"/>
</svg>
