<svg width="104" height="104" viewBox="0 0 104 104" fill="none" xmlns="http://www.w3.org/2000/svg">
<path d="M27.501 72.4229C27.501 70.9332 26.2934 69.7256 24.8037 69.7256C23.3141 69.7256 22.1064 70.9332 22.1064 72.4229V77.1077C22.1064 78.5974 23.3141 79.805 24.8037 79.805C26.2934 79.805 27.501 78.5974 27.501 77.1077V72.4229Z" fill="#612C8C"/>
<path d="M81.0225 72.4229C81.0225 70.9332 79.8149 69.7256 78.3252 69.7256C76.8355 69.7256 75.6279 70.9332 75.6279 72.4229V77.1077C75.6279 78.5974 76.8355 79.805 78.3252 79.805C79.8149 79.805 81.0225 78.5974 81.0225 77.1077V72.4229Z" fill="#612C8C"/>
<path d="M86.5617 23.3159H17.1123C13.0861 23.3159 9.82227 26.5798 9.82227 30.6059V68.7526C9.82227 72.7788 13.0861 76.0426 17.1123 76.0426H86.5617C90.5878 76.0426 93.8517 72.7788 93.8517 68.7526V30.6059C93.8517 26.5798 90.5878 23.3159 86.5617 23.3159Z" fill="white" stroke="#612C8C" stroke-width="1.62" stroke-linecap="round" stroke-linejoin="round"/>
<path d="M85.7409 26.4077H17.7409C15.0568 26.4077 12.8809 28.5836 12.8809 31.2677V68.5461C12.8809 71.2302 15.0568 73.4061 17.7409 73.4061H85.7409C88.425 73.4061 90.6009 71.2302 90.6009 68.5461V31.2677C90.6009 28.5836 88.425 26.4077 85.7409 26.4077Z" stroke="#612C8C" stroke-width="1.62" stroke-linecap="round" stroke-linejoin="round"/>
<path d="M31.858 58.4811C34.5237 58.4811 36.6847 56.3201 36.6847 53.6544C36.6847 50.9886 34.5237 48.8276 31.858 48.8276C29.1923 48.8276 27.0312 50.9886 27.0312 53.6544C27.0312 56.3201 29.1923 58.4811 31.858 58.4811Z" fill="white" stroke="#612C8C" stroke-width="1.62"/>
<path d="M31.8584 48.6148V26.5396" stroke="#612C8C" stroke-width="1.62" stroke-linecap="round" stroke-linejoin="round"/>
<path d="M42.3668 58.4811C45.0325 58.4811 47.1935 56.3201 47.1935 53.6544C47.1935 50.9886 45.0325 48.8276 42.3668 48.8276C39.701 48.8276 37.54 50.9886 37.54 53.6544C37.54 56.3201 39.701 58.4811 42.3668 58.4811Z" fill="white" stroke="#612C8C" stroke-width="1.62"/>
<path d="M42.3633 48.6148V26.5396" stroke="#612C8C" stroke-width="1.62" stroke-linecap="round" stroke-linejoin="round"/>
<path d="M52.8717 58.4811C55.5374 58.4811 57.6984 56.3201 57.6984 53.6544C57.6984 50.9886 55.5374 48.8276 52.8717 48.8276C50.2059 48.8276 48.0449 50.9886 48.0449 53.6544C48.0449 56.3201 50.2059 58.4811 52.8717 58.4811Z" fill="white" stroke="#612C8C" stroke-width="1.62"/>
<path d="M52.8682 48.6148V26.5396" stroke="#612C8C" stroke-width="1.62" stroke-linecap="round" stroke-linejoin="round"/>
<path d="M79.3798 55.338C82.0768 53.7809 83.0009 50.3322 81.4437 47.6352C79.8866 44.9381 76.4379 44.014 73.7409 45.5712C71.0438 47.1283 70.1197 50.577 71.6769 53.2741C73.234 55.9711 76.6827 56.8952 79.3798 55.338Z" fill="#612C8C"/>
<path d="M74.3755 45.5254L63.3379 26.4077" stroke="#612C8C" stroke-width="1.62" stroke-linecap="round" stroke-linejoin="round"/>
</svg>
