<svg width="104" height="104" viewBox="0 0 104 104" fill="none" xmlns="http://www.w3.org/2000/svg">
<path d="M16.1152 43.9675C16.1152 38.8094 20.2967 34.6279 25.4548 34.6279H83.351C88.5091 34.6279 92.6903 38.8094 92.6903 43.9675V79.0206C92.6903 84.1785 88.5091 88.3606 83.351 88.3606H25.4548C20.2967 88.3606 16.1152 84.1785 16.1152 79.0206V43.9675Z" fill="#612C8C"/>
<path d="M12.5469 37.2889C12.5469 33.8501 15.3345 31.0625 18.7733 31.0625H82.8958C86.3342 31.0625 89.1222 33.8501 89.1222 37.2889V78.5684C89.1222 82.0075 86.3342 84.7947 82.8958 84.7947H18.7733C15.3345 84.7947 12.5469 82.0075 12.5469 78.5684V37.2889Z" fill="white"/>
<path fill-rule="evenodd" clip-rule="evenodd" d="M18.7761 29.5059H82.8987C87.1973 29.5059 90.6819 32.9905 90.6819 37.2889V78.5685C90.6819 82.8669 87.1973 86.3515 82.8987 86.3515H18.7761C14.4777 86.3515 10.9932 82.8669 10.9932 78.5685V37.2889C10.9932 32.9905 14.4777 29.5059 18.7761 29.5059ZM18.7761 31.0625C15.3374 31.0625 12.5497 33.8501 12.5497 37.2889V78.5685C12.5497 82.0075 15.3374 84.7947 18.7761 84.7947H82.8987C86.3371 84.7947 89.1251 82.0075 89.1251 78.5685V37.2889C89.1251 33.8501 86.3371 31.0625 82.8987 31.0625H18.7761Z" fill="#612C8C"/>
<path d="M42.2402 35.5195C42.2402 34.1247 43.3708 32.9941 44.7655 32.9941H56.9091C58.3038 32.9941 59.4343 34.1247 59.4343 35.5195C59.4343 36.9141 58.3038 38.0447 56.9091 38.0447H44.7655C43.3708 38.0447 42.2402 36.9141 42.2402 35.5195Z" fill="#612C8C"/>
<path fill-rule="evenodd" clip-rule="evenodd" d="M24.1288 44.9551H42.0411C44.6201 44.9551 46.7109 47.0458 46.7109 49.6248V73.4587C46.7109 76.0377 44.6201 78.1284 42.0411 78.1284H24.1288C21.5497 78.1284 19.459 76.0377 19.459 73.4587V49.6248C19.459 47.0458 21.5497 44.9551 24.1288 44.9551ZM24.1288 46.5117C22.4094 46.5117 21.0156 47.9055 21.0156 49.6248V73.4587C21.0156 75.178 22.4094 76.5718 24.1288 76.5718H42.0411C43.7604 76.5718 45.1542 75.178 45.1542 73.4587V49.6248C45.1542 47.9054 43.7604 46.5117 42.0411 46.5117H24.1288Z" fill="#612C8C"/>
<path fill-rule="evenodd" clip-rule="evenodd" d="M27.4167 66.336C27.8408 67.3246 28.7421 68.0521 29.9366 68.5499C31.2278 69.0878 32.7651 69.3124 34.1013 69.3124C35.4376 69.3124 36.975 69.0878 38.266 68.5499C39.4607 68.0521 40.3619 67.3246 40.786 66.336C40.351 65.3853 39.2895 64.6425 37.9336 64.121C36.4975 63.5687 34.9477 63.3505 34.1013 63.3505C33.255 63.3505 31.7053 63.5687 30.2691 64.121C28.9133 64.6425 27.8516 65.3853 27.4167 66.336ZM29.7103 62.6682C31.3286 62.0458 33.0681 61.7939 34.1013 61.7939C35.1347 61.7939 36.8741 62.0458 38.4923 62.6682C40.0781 63.278 41.774 64.3331 42.3581 66.0853C42.4114 66.2451 42.4114 66.4178 42.3581 66.5776C41.7907 68.2795 40.3907 69.3509 38.8648 69.9868C37.3365 70.6235 35.5845 70.8689 34.1013 70.8689C32.6182 70.8689 30.8663 70.6235 29.338 69.9868C27.812 69.3509 26.412 68.2795 25.8446 66.5776C25.7914 66.4178 25.7914 66.2451 25.8446 66.0853C26.4287 64.3331 28.1247 63.278 29.7103 62.6682Z" fill="#612C8C"/>
<path fill-rule="evenodd" clip-rule="evenodd" d="M31.1904 52.0418C30.875 51.5613 30.3185 51.2924 29.743 51.3468C29.1462 51.4032 28.6349 51.7973 28.4282 52.3601C27.9247 53.7319 28.047 55.0291 28.8672 56.0121C29.0592 56.2422 29.2734 56.4349 29.4983 56.5963C29.4011 56.9678 29.3495 57.3573 29.3495 57.7584C29.3495 60.2923 31.4035 62.3463 33.9373 62.3463C36.4407 62.3463 38.4758 60.3412 38.5243 57.8493C38.548 57.61 38.5814 57.1276 38.5276 56.7168C38.3241 54.911 37.4529 53.6544 36.1347 52.9653C34.939 52.3403 33.5632 52.2846 32.477 52.3449C31.9296 52.3753 31.5836 52.2658 31.3927 52.1724C31.2644 52.1096 31.2045 52.0545 31.1904 52.0418ZM36.9826 56.9072C36.6855 54.1962 34.5687 53.7877 32.5634 53.8992C32.0517 53.9276 31.6171 53.8737 31.2553 53.775C30.4825 53.5642 30.0413 53.1494 29.8896 52.8965C29.5406 53.8469 29.6712 54.5127 30.0258 54.9694C30.0713 55.0282 30.1206 55.0833 30.173 55.1352C30.556 55.5148 31.1076 55.7184 31.6161 55.8088C31.2753 56.2142 31.0387 56.71 30.9476 57.2552C30.9203 57.4189 30.906 57.587 30.906 57.7584C30.906 59.4325 32.2632 60.7897 33.9373 60.7897C35.6114 60.7897 36.9686 59.4325 36.9686 57.7584C36.9888 57.5844 37.0201 57.1706 36.9826 56.9072Z" fill="#612C8C"/>
<path fill-rule="evenodd" clip-rule="evenodd" d="M34.7939 65.8945C34.7939 65.4647 35.1424 65.1162 35.5723 65.1162H37.8004C38.2303 65.1162 38.5788 65.4647 38.5788 65.8945C38.5788 66.3243 38.2303 66.6728 37.8004 66.6728H35.5723C35.1424 66.6728 34.7939 66.3243 34.7939 65.8945Z" fill="#612C8C"/>
<path fill-rule="evenodd" clip-rule="evenodd" d="M51.2441 69.0078C51.2441 68.578 51.5926 68.2295 52.0225 68.2295H67.9155C68.3453 68.2295 68.6937 68.578 68.6937 69.0078C68.6937 69.4376 68.3453 69.7861 67.9155 69.7861H52.0225C51.5926 69.7861 51.2441 69.4376 51.2441 69.0078Z" fill="#612C8C"/>
<path fill-rule="evenodd" clip-rule="evenodd" d="M51.2441 64.2627C51.2441 63.8328 51.5926 63.4844 52.0225 63.4844H81.1373C81.5675 63.4844 81.9158 63.8328 81.9158 64.2627C81.9158 64.6926 81.5675 65.041 81.1373 65.041H52.0225C51.5926 65.041 51.2441 64.6926 51.2441 64.2627Z" fill="#612C8C"/>
<path fill-rule="evenodd" clip-rule="evenodd" d="M51.2441 59.5088C51.2441 59.0789 51.5926 58.7305 52.0225 58.7305H81.1373C81.5675 58.7305 81.9158 59.0789 81.9158 59.5088C81.9158 59.9386 81.5675 60.287 81.1373 60.287H52.0225C51.5926 60.287 51.2441 59.9386 51.2441 59.5088Z" fill="#612C8C"/>
<path fill-rule="evenodd" clip-rule="evenodd" d="M51.2441 54.7559C51.2441 54.326 51.5926 53.9775 52.0225 53.9775H81.1377C81.567 53.9775 81.9161 54.326 81.9161 54.7559C81.9161 55.1857 81.567 55.5342 81.1377 55.5342H52.0225C51.5926 55.5342 51.2441 55.1857 51.2441 54.7559Z" fill="#612C8C"/>
<path d="M51.3945 47.5881C51.3945 46.6652 52.1427 45.917 53.0656 45.917H80.398C81.3209 45.917 82.0693 46.6652 82.0693 47.5881C82.0693 48.5111 81.3209 49.2593 80.398 49.2593H53.0656C52.1427 49.2593 51.3945 48.5111 51.3945 47.5881Z" fill="#612C8C"/>
<path d="M46.6387 18.4336C46.6387 17.5739 47.3356 16.877 48.1952 16.877H53.4749C54.3346 16.877 55.0315 17.5739 55.0315 18.4336V35.2966H46.6387V18.4336Z" fill="white"/>
<path fill-rule="evenodd" clip-rule="evenodd" d="M56.5871 36.8531H45.0811V18.4335C45.0811 16.7141 46.4749 15.3203 48.1942 15.3203H53.4739C55.1933 15.3203 56.5871 16.7141 56.5871 18.4335V36.8531ZM48.1942 16.8769C47.3346 16.8769 46.6376 17.5738 46.6376 18.4335V35.2965H55.0304V18.4335C55.0304 17.5738 54.3336 16.8769 53.4739 16.8769H48.1942Z" fill="#612C8C"/>
<path d="M52.9885 21.0357C52.9885 22.2253 52.0242 23.1897 50.8346 23.1897C49.645 23.1897 48.6807 22.2253 48.6807 21.0357C48.6807 19.8461 49.645 18.8818 50.8346 18.8818C52.0242 18.8818 52.9885 19.8461 52.9885 21.0357Z" fill="#612C8C"/>
</svg>
