<svg width="104" height="104" viewBox="0 0 104 104" fill="none" xmlns="http://www.w3.org/2000/svg">
<path d="M14.8994 31.2615C14.8994 28.9548 16.7694 27.085 19.076 27.085H89.7939C92.1 27.085 93.9702 28.9548 93.9702 31.2615V77.6051C93.9702 79.9117 92.1 81.7814 89.7939 81.7814H19.076C16.7694 81.7814 14.8994 79.9117 14.8994 77.6051V31.2615Z" fill="#612C8C"/>
<path d="M11.1025 27.4666C11.1025 25.16 12.9725 23.29 15.2791 23.29H85.9968C88.3037 23.29 90.1732 25.16 90.1732 27.4666V73.8101C90.1732 76.1168 88.3037 77.9867 85.9968 77.9867H15.2791C12.9725 77.9867 11.1025 76.1168 11.1025 73.8101V27.4666Z" fill="white"/>
<path fill-rule="evenodd" clip-rule="evenodd" d="M15.2787 21.8984H85.9964C89.072 21.8984 91.5652 24.3916 91.5652 27.4672V73.8107C91.5652 76.8863 89.072 79.3794 85.9964 79.3794H15.2787C12.2032 79.3794 9.70996 76.8863 9.70996 73.8107V27.4672C9.70996 24.3916 12.2031 21.8984 15.2787 21.8984ZM15.2787 23.2906C12.9721 23.2906 11.1021 25.1606 11.1021 27.4672V73.8107C11.1021 76.1173 12.9721 77.9873 15.2787 77.9873H85.9964C88.3033 77.9873 90.1728 76.1173 90.1728 73.8107V27.4672C90.1728 25.1606 88.3033 23.2906 85.9964 23.2906H15.2787Z" fill="#612C8C"/>
<path d="M16.0029 36.257C16.0029 34.7192 17.2496 33.4727 18.7873 33.4727H51.1653C52.7031 33.4727 53.9496 34.7192 53.9496 36.257V53.8284C53.9496 55.3662 52.7031 56.6128 51.1653 56.6128H18.7873C17.2496 56.6128 16.0029 55.3662 16.0029 53.8284V36.257Z" fill="#612C8C"/>
<path fill-rule="evenodd" clip-rule="evenodd" d="M15.4619 60.0567C15.4584 59.2878 16.079 58.6618 16.8478 58.6583L52.66 58.4971C53.4289 58.4936 54.055 59.1141 54.0585 59.883C54.0619 60.6518 53.4415 61.278 52.6726 61.2814L16.8604 61.4426C16.0915 61.4461 15.4654 60.8256 15.4619 60.0567Z" fill="#612C8C"/>
<path fill-rule="evenodd" clip-rule="evenodd" d="M15.6836 64.0603C15.6836 63.6759 15.9953 63.3643 16.3797 63.3643H43.8911C44.2755 63.3643 44.5872 63.6759 44.5872 64.0603C44.5872 64.4448 44.2755 64.7564 43.8911 64.7564H16.3797C15.9953 64.7564 15.6836 64.4448 15.6836 64.0603Z" fill="#612C8C"/>
<path fill-rule="evenodd" clip-rule="evenodd" d="M15.6836 70.9822C15.6836 70.5977 15.9953 70.2861 16.3797 70.2861H43.8911C44.2755 70.2861 44.5872 70.5977 44.5872 70.9822C44.5872 71.3667 44.2755 71.6783 43.8911 71.6783H16.3797C15.9953 71.6783 15.6836 71.3667 15.6836 70.9822Z" fill="#612C8C"/>
<path fill-rule="evenodd" clip-rule="evenodd" d="M15.6836 66.6531C15.6836 66.2686 15.9953 65.957 16.3797 65.957H30.4912C30.8756 65.957 31.1872 66.2686 31.1872 66.6531C31.1872 67.0376 30.8756 67.3492 30.4912 67.3492H16.3797C15.9953 67.3492 15.6836 67.0376 15.6836 66.6531Z" fill="#612C8C"/>
<path fill-rule="evenodd" clip-rule="evenodd" d="M15.6836 73.116C15.6836 72.7316 15.9953 72.4199 16.3797 72.4199H26.6965C27.0809 72.4199 27.3926 72.7316 27.3926 73.116C27.3926 73.5005 27.0809 73.8122 26.6965 73.8122H16.3797C15.9953 73.8122 15.6836 73.5005 15.6836 73.116Z" fill="#612C8C"/>
<path fill-rule="evenodd" clip-rule="evenodd" d="M74.8584 34.7761C74.8584 34.3917 75.17 34.0801 75.5545 34.0801H86.9976C87.3824 34.0801 87.6942 34.3917 87.6942 34.7761C87.6942 35.1606 87.3824 35.4722 86.9976 35.4722H75.5545C75.17 35.4722 74.8584 35.1606 74.8584 34.7761Z" fill="#612C8C"/>
<path fill-rule="evenodd" clip-rule="evenodd" d="M74.8584 37.616C74.8584 37.2315 75.17 36.9199 75.5544 36.9199H81.801C82.1857 36.9199 82.4968 37.2315 82.4968 37.616C82.4968 38.0005 82.1857 38.3121 81.801 38.3121H75.5544C75.17 38.3121 74.8584 38.0005 74.8584 37.616Z" fill="#612C8C"/>
<path fill-rule="evenodd" clip-rule="evenodd" d="M74.8584 62.9783C74.8584 62.5938 75.17 62.2822 75.5545 62.2822H86.9976C87.3824 62.2822 87.6942 62.5938 87.6942 62.9783C87.6942 63.3628 87.3824 63.6744 86.9976 63.6744H75.5545C75.17 63.6744 74.8584 63.3628 74.8584 62.9783Z" fill="#612C8C"/>
<path fill-rule="evenodd" clip-rule="evenodd" d="M74.8584 65.8182C74.8584 65.4338 75.17 65.1221 75.5544 65.1221H81.801C82.1857 65.1221 82.4968 65.4338 82.4968 65.8182C82.4968 66.2026 82.1857 66.5142 81.801 66.5142H75.5544C75.17 66.5142 74.8584 66.2026 74.8584 65.8182Z" fill="#612C8C"/>
<path fill-rule="evenodd" clip-rule="evenodd" d="M74.8584 47.7996C74.8584 47.4151 75.17 47.1035 75.5545 47.1035H86.9976C87.3824 47.1035 87.6942 47.4151 87.6942 47.7996C87.6942 48.1841 87.3824 48.4957 86.9976 48.4957H75.5545C75.17 48.4957 74.8584 48.1841 74.8584 47.7996Z" fill="#612C8C"/>
<path fill-rule="evenodd" clip-rule="evenodd" d="M74.8584 50.6385C74.8584 50.254 75.17 49.9424 75.5544 49.9424H81.801C82.1857 49.9424 82.4968 50.254 82.4968 50.6385C82.4968 51.0229 82.1857 51.3345 81.801 51.3345H75.5544C75.17 51.3345 74.8584 51.0229 74.8584 50.6385Z" fill="#612C8C"/>
<path fill-rule="evenodd" clip-rule="evenodd" d="M59.7307 32.6729H71.0197C72.5575 32.6729 73.8041 33.9194 73.8041 35.4572V42.766C73.8041 44.3038 72.5575 45.5504 71.0197 45.5504H59.7307C58.1929 45.5504 56.9463 44.3038 56.9463 42.766V35.4572C56.9463 33.9194 58.1929 32.6729 59.7307 32.6729ZM59.7307 34.0651C58.9617 34.0651 58.3384 34.6884 58.3384 35.4572V42.766C58.3384 43.5349 58.9617 44.1582 59.7307 44.1582H71.0197C71.7886 44.1582 72.4119 43.5349 72.4119 42.766V35.4572C72.4119 34.6884 71.7886 34.0651 71.0197 34.0651H59.7307Z" fill="#612C8C"/>
<path d="M38.3771 43.9493L35.0442 41.5684C34.1227 40.9102 32.8428 41.5689 32.8428 42.7013V47.4151C32.8428 48.5415 34.1106 49.2015 35.0333 48.5556L38.3662 46.2226C39.1533 45.6716 39.1589 44.5078 38.3771 43.9493Z" fill="white"/>
<path fill-rule="evenodd" clip-rule="evenodd" d="M16.7825 26.3877H84.6767C85.8755 26.3877 86.8475 27.3598 86.8475 28.5589C86.8475 29.758 85.8755 30.7301 84.6767 30.7301H16.7825C15.5834 30.7301 14.6113 29.758 14.6113 28.5589C14.6113 27.3598 15.5834 26.3877 16.7825 26.3877ZM16.7825 27.7798C16.3523 27.7798 16.0035 28.1286 16.0035 28.5589C16.0035 28.9891 16.3523 29.3379 16.7825 29.3379H84.6767C85.1068 29.3379 85.4551 28.9891 85.4551 28.5589C85.4551 28.1286 85.1068 27.7798 84.6767 27.7798H16.7825Z" fill="#612C8C"/>
<path fill-rule="evenodd" clip-rule="evenodd" d="M59.7307 46.2314H71.0197C72.5575 46.2314 73.8041 47.478 73.8041 49.0158V56.3246C73.8041 57.8624 72.5575 59.109 71.0197 59.109H59.7307C58.1929 59.109 56.9463 57.8623 56.9463 56.3246V49.0158C56.9463 47.478 58.1929 46.2314 59.7307 46.2314ZM59.7307 47.6236C58.9617 47.6236 58.3384 48.247 58.3384 49.0158V56.3246C58.3384 57.0935 58.9617 57.7168 59.7307 57.7168H71.0197C71.7886 57.7168 72.4119 57.0935 72.4119 56.3246V49.0158C72.4119 48.247 71.7886 47.6236 71.0197 47.6236H59.7307Z" fill="#612C8C"/>
<path fill-rule="evenodd" clip-rule="evenodd" d="M59.7307 60.6621H71.0197C72.5575 60.6621 73.8041 61.9087 73.8041 63.4465V70.7553C73.8041 72.2931 72.5575 73.5397 71.0197 73.5397H59.7307C58.1929 73.5397 56.9463 72.293 56.9463 70.7553V63.4465C56.9463 61.9087 58.1929 60.6621 59.7307 60.6621ZM59.7307 62.0543C58.9617 62.0543 58.3384 62.6776 58.3384 63.4465V70.7553C58.3384 71.5241 58.9617 72.1474 59.7307 72.1474H71.0197C71.7886 72.1474 72.4119 71.5241 72.4119 70.7553V63.4465C72.4119 62.6776 71.7886 62.0543 71.0197 62.0543H59.7307Z" fill="#612C8C"/>
<path fill-rule="evenodd" clip-rule="evenodd" d="M64.7789 39.6686C64.7789 39.9501 65.0959 40.1151 65.3266 39.9537L66.2997 39.2725C66.4966 39.1347 66.4979 38.8437 66.3025 38.7041L65.3293 38.009C65.0989 37.8444 64.7789 38.009 64.7789 38.2921V39.6686ZM66.1385 36.8761L67.1117 37.5712C68.089 38.2694 68.082 39.7242 67.0981 40.413L66.1249 41.0942C64.9716 41.9016 63.3867 41.0764 63.3867 39.6686V38.2921C63.3867 36.8767 64.9867 36.0533 66.1385 36.8761Z" fill="#612C8C"/>
<path fill-rule="evenodd" clip-rule="evenodd" d="M64.7789 53.7652C64.7789 54.0468 65.0959 54.2118 65.3266 54.0503L66.2997 53.3691C66.4966 53.2314 66.4979 52.9403 66.3025 52.8008L65.3293 52.1056C65.0989 51.941 64.7789 52.1057 64.7789 52.3888V53.7652ZM66.1385 50.9728L67.1117 51.6679C68.089 52.366 68.082 53.8209 67.0981 54.5096L66.1249 55.1908C64.9716 55.9983 63.3867 55.1731 63.3867 53.7652V52.3888C63.3867 50.9733 64.9867 50.15 66.1385 50.9728Z" fill="#612C8C"/>
<path fill-rule="evenodd" clip-rule="evenodd" d="M64.7789 68.0104C64.7789 68.2919 65.0959 68.4569 65.3266 68.2955L66.2997 67.6143C66.4966 67.4765 66.4979 67.1855 66.3025 67.0459L65.3293 66.3507C65.0989 66.1862 64.7789 66.3508 64.7789 66.6339V68.0104ZM66.1385 65.2179L67.1117 65.913C68.089 66.6112 68.082 68.066 67.0981 68.7548L66.1249 69.436C64.9716 70.2434 63.3867 69.4182 63.3867 68.0104V66.6339C63.3867 65.2185 64.9867 64.3951 66.1385 65.2179Z" fill="#612C8C"/>
</svg>
