<svg width="25" height="24" viewBox="0 0 25 24" fill="none" xmlns="http://www.w3.org/2000/svg">
<path fill-rule="evenodd" clip-rule="evenodd" d="M1.3999 3C1.3999 2.44772 1.84762 2 2.3999 2H8.3999C9.72598 2 10.9978 2.52678 11.9354 3.46447C12.1037 3.63275 12.2588 3.81178 12.3999 3.99997C12.541 3.81178 12.6961 3.63275 12.8644 3.46447C13.8021 2.52678 15.0738 2 16.3999 2H22.3999C22.9522 2 23.3999 2.44772 23.3999 3V18C23.3999 18.5523 22.9522 19 22.3999 19H15.3999C14.8695 19 14.3608 19.2107 13.9857 19.5858C13.6106 19.9609 13.3999 20.4696 13.3999 21C13.3999 21.5523 12.9522 22 12.3999 22C11.8476 22 11.3999 21.5523 11.3999 21C11.3999 20.4696 11.1892 19.9609 10.8141 19.5858C10.439 19.2107 9.93034 19 9.3999 19H2.3999C1.84762 19 1.3999 18.5523 1.3999 18V3ZM11.3999 17.5359C10.797 17.1878 10.1081 17 9.3999 17H3.3999V4H8.3999C9.19555 4 9.95861 4.31607 10.5212 4.87868C11.0838 5.44129 11.3999 6.20435 11.3999 7V17.5359ZM13.3999 17.5359C14.0028 17.1878 14.6917 17 15.3999 17H21.3999V4H16.3999C15.6043 4 14.8412 4.31607 14.2786 4.87868C13.716 5.44129 13.3999 6.20435 13.3999 7V17.5359Z" fill="#202020"/>
</svg>
