<svg width="25" height="24" viewBox="0 0 25 24" fill="none" xmlns="http://www.w3.org/2000/svg">
<path fill-rule="evenodd" clip-rule="evenodd" d="M12.1859 1.21065C12.547 0.929784 13.0526 0.929784 13.4137 1.21065L22.4137 8.21065C22.6573 8.4001 22.7998 8.69141 22.7998 9V20C22.7998 20.7957 22.4837 21.5587 21.9211 22.1213C21.3585 22.6839 20.5955 23 19.7998 23H5.7998C5.00415 23 4.24109 22.6839 3.67848 22.1213C3.11588 21.5587 2.7998 20.7957 2.7998 20V9C2.7998 8.69141 2.94228 8.4001 3.18586 8.21065L12.1859 1.21065ZM10.7998 21H14.7998V13H10.7998V21ZM16.7998 21V12C16.7998 11.4477 16.3521 11 15.7998 11H9.7998C9.24752 11 8.7998 11.4477 8.7998 12V21H5.7998C5.53459 21 5.28023 20.8946 5.0927 20.7071C4.90516 20.5196 4.7998 20.2652 4.7998 20V9.48908L12.7998 3.26686L20.7998 9.48908V20C20.7998 20.2652 20.6944 20.5196 20.5069 20.7071C20.3194 20.8946 20.065 21 19.7998 21H16.7998Z" fill="black"/>
</svg>
