<svg width="24" height="24" viewBox="0 0 24 24" fill="none" xmlns="http://www.w3.org/2000/svg">
<g clip-path="url(#clip0_1201_2661)">
<path fill-rule="evenodd" clip-rule="evenodd" d="M16.998 7C16.4458 7 15.998 6.55228 15.998 6C15.998 5.44772 16.4458 5 16.998 5H22.998C23.5503 5 23.998 5.44772 23.998 6V12C23.998 12.5523 23.5503 13 22.998 13C22.4458 13 21.998 12.5523 21.998 12V8.41421L14.2052 16.2071C13.8146 16.5976 13.1815 16.5976 12.7909 16.2071L8.49805 11.9142L1.70515 18.7071C1.31463 19.0976 0.681464 19.0976 0.29094 18.7071C-0.0995842 18.3166 -0.0995842 17.6834 0.29094 17.2929L7.79094 9.79289C8.18146 9.40237 8.81463 9.40237 9.20515 9.79289L13.498 14.0858L20.5838 7H16.998Z" fill="#202020"/>
</g>
<defs>
<clipPath id="clip0_1201_2661">
<rect width="24" height="24" fill="white" transform="translate(-0.00195312)"/>
</clipPath>
</defs>
</svg>
