<svg width="24" height="24" viewBox="0 0 24 24" fill="none" xmlns="http://www.w3.org/2000/svg">
<path fill-rule="evenodd" clip-rule="evenodd" d="M12.001 4C10.3441 4 9.00098 5.34315 9.00098 7C9.00098 8.65685 10.3441 10 12.001 10C13.6578 10 15.001 8.65685 15.001 7C15.001 5.34315 13.6578 4 12.001 4ZM7.00098 7C7.00098 4.23858 9.23955 2 12.001 2C14.7624 2 17.001 4.23858 17.001 7C17.001 9.76142 14.7624 12 12.001 12C9.23955 12 7.00098 9.76142 7.00098 7ZM4.46544 15.4645C5.40312 14.5268 6.67489 14 8.00098 14H16.001C17.3271 14 18.5988 14.5268 19.5365 15.4645C20.4742 16.4021 21.001 17.6739 21.001 19V21C21.001 21.5523 20.5533 22 20.001 22C19.4487 22 19.001 21.5523 19.001 21V19C19.001 18.2044 18.6849 17.4413 18.1223 16.8787C17.5597 16.3161 16.7966 16 16.001 16H8.00098C7.20533 16 6.44227 16.3161 5.87966 16.8787C5.31705 17.4413 5.00098 18.2043 5.00098 19V21C5.00098 21.5523 4.55326 22 4.00098 22C3.44869 22 3.00098 21.5523 3.00098 21V19C3.00098 17.6739 3.52776 16.4021 4.46544 15.4645Z" fill="#202020"/>
</svg>
