<svg width="24" height="24" viewBox="0 0 24 24" fill="none" xmlns="http://www.w3.org/2000/svg">
<path fill-rule="evenodd" clip-rule="evenodd" d="M15.6771 6.99841L17.1847 4.94255C17.2873 4.80274 17.481 4.76711 17.6266 4.86129C19.599 6.13757 20.1412 8.08717 19.3499 9.52437C18.4844 11.0961 17.1497 13.0237 15.1023 15.0711C13.0549 17.1185 11.1273 18.4532 9.55557 19.3187C8.11837 20.11 6.16877 19.5678 4.8925 17.5954C4.79831 17.4498 4.83395 17.2561 4.97375 17.1535L7.02961 15.6459C7.33194 15.4242 7.73287 15.3902 8.06819 15.5579L8.88764 15.9676C9.58462 16.3161 10.5401 16.4385 11.4445 15.9732C12.0491 15.6622 12.9811 15.071 14.0416 14.0104C15.1022 12.9499 15.6934 12.0179 16.0044 11.4133C16.4697 10.5089 16.3473 9.55342 15.9988 8.85644L15.5891 8.03699C15.4214 7.70167 15.4554 7.30073 15.6771 6.99841ZM18.7131 3.18215C21.2536 4.82601 22.5613 7.83829 21.1018 10.489C20.1493 12.219 18.7025 14.2994 16.5165 16.4853C14.3306 18.6713 12.2502 20.1181 10.5202 21.0706C7.8695 22.5301 4.85722 21.2224 3.21336 18.6819C2.54377 17.647 2.79708 16.2696 3.79102 15.5407L5.84689 14.0331C6.75385 13.368 7.95665 13.266 8.96262 13.769L9.78207 14.1788C10.0193 14.2974 10.2937 14.3161 10.5295 14.1948C10.9592 13.9737 11.7206 13.503 12.6274 12.5962C13.5342 11.6894 14.0049 10.928 14.226 10.4983C14.3473 10.2625 14.3286 9.98809 14.21 9.75087L13.8002 8.93142C13.2972 7.92545 13.3992 6.72265 14.0643 5.81569L15.5719 3.75982C16.3008 2.76588 17.6782 2.51256 18.7131 3.18215Z" fill="#ADADAD"/>
</svg>
