<svg width="24" height="24" viewBox="0 0 24 24" fill="none" xmlns="http://www.w3.org/2000/svg">
<g clip-path="url(#clip0_328_12477)">
<path fill-rule="evenodd" clip-rule="evenodd" d="M17.3984 7C16.8462 7 16.3984 6.55228 16.3984 6C16.3984 5.44772 16.8462 5 17.3984 5H23.3984C23.9507 5 24.3984 5.44772 24.3984 6V12C24.3984 12.5523 23.9507 13 23.3984 13C22.8462 13 22.3984 12.5523 22.3984 12V8.41421L14.6055 16.2071C14.215 16.5976 13.5819 16.5976 13.1913 16.2071L8.89844 11.9142L2.10554 18.7071C1.71502 19.0976 1.08185 19.0976 0.691331 18.7071C0.300806 18.3166 0.300806 17.6834 0.691331 17.2929L8.19133 9.79289C8.58185 9.40237 9.21502 9.40237 9.60554 9.79289L13.8984 14.0858L20.9842 7H17.3984Z" fill="#ADADAD"/>
</g>
<defs>
<clipPath id="clip0_328_12477">
<rect width="24" height="24" fill="white" transform="translate(0.398438)"/>
</clipPath>
</defs>
</svg>
