<svg width="28" height="28" viewBox="0 0 28 28" fill="none" xmlns="http://www.w3.org/2000/svg">
<path d="M15.1295 2.69124L24.0662 11.1811C24.6624 11.7475 25 12.5338 25 13.3561V21.9975C25 23.3782 23.8807 24.4975 22.5 24.4975H16.5C15.9477 24.4975 15.5 24.0498 15.5 23.4975V17.9973C15.5 17.1689 14.8284 16.4973 14 16.4973C13.1716 16.4973 12.5 17.1689 12.5 17.9973V23.4975C12.5 24.0498 12.0523 24.4975 11.5 24.4975H5.5C4.11929 24.4975 3 23.3782 3 21.9975V13.3561C3 12.5338 3.33756 11.7475 3.93375 11.1811L12.8705 2.69124C13.5034 2.0899 14.4966 2.0899 15.1295 2.69124ZM14 4.37679L5.31125 12.6311C5.11252 12.8199 5 13.082 5 13.3561V21.9975C5 22.2736 5.22386 22.4975 5.5 22.4975H10.5V17.9973C10.5 16.0643 12.067 14.4973 14 14.4973C15.933 14.4973 17.5 16.0643 17.5 17.9973V22.4975H22.5C22.7761 22.4975 23 22.2736 23 21.9975V13.3561C23 13.082 22.8875 12.8199 22.6887 12.6311L14 4.37679Z" fill="#ADADAD"/>
</svg>
