<svg width="80" height="49" viewBox="0 0 80 49" fill="none" xmlns="http://www.w3.org/2000/svg">
<path fill-rule="evenodd" clip-rule="evenodd" d="M29 10C29 9.44772 29.4477 9 30 9H36C37.3261 9 38.5979 9.52678 39.5355 10.4645C39.7038 10.6327 39.8589 10.8118 40 11C40.1411 10.8118 40.2962 10.6327 40.4645 10.4645C41.4021 9.52678 42.6739 9 44 9H50C50.5523 9 51 9.44772 51 10V25C51 25.5523 50.5523 26 50 26H43C42.4696 26 41.9609 26.2107 41.5858 26.5858C41.2107 26.9609 41 27.4696 41 28C41 28.5523 40.5523 29 40 29C39.4477 29 39 28.5523 39 28C39 27.4696 38.7893 26.9609 38.4142 26.5858C38.0391 26.2107 37.5304 26 37 26H30C29.4477 26 29 25.5523 29 25V10ZM39 24.5359C38.3971 24.1878 37.7082 24 37 24H31V11H36C36.7956 11 37.5587 11.3161 38.1213 11.8787C38.6839 12.4413 39 13.2044 39 14V24.5359ZM41 24.5359C41.6029 24.1878 42.2918 24 43 24H49V11H44C43.2044 11 42.4413 11.3161 41.8787 11.8787C41.3161 12.4413 41 13.2044 41 14V24.5359Z" fill="#ADADAD"/>
<path d="M26.0442 45C25.2242 45 24.5809 44.82 24.1142 44.46C23.6542 44.1 23.4242 43.6067 23.4242 42.98C23.4242 42.6867 23.4709 42.3633 23.5642 42.01C23.6576 41.6567 23.8242 41.2767 24.0642 40.87L24.8642 41.23C24.7042 41.5767 24.5976 41.8667 24.5442 42.1C24.4909 42.3333 24.4642 42.5467 24.4642 42.74C24.4642 43.0667 24.5442 43.32 24.7042 43.5C24.8709 43.68 25.0976 43.8067 25.3842 43.88C25.6709 43.9467 25.9976 43.98 26.3642 43.98H30.0642L30.8342 45H26.0442ZM28.7342 45V43.98H30.5242C30.5242 43.5267 30.4542 43.11 30.3142 42.73C30.1809 42.35 30.0009 41.9533 29.7742 41.54L30.6842 40.62C30.8776 41.04 31.0476 41.4767 31.1942 41.93C31.3476 42.3833 31.4342 42.8633 31.4542 43.37C31.4742 43.87 31.3776 44.4133 31.1642 45H28.7342ZM28.7342 43.98H28.8342V45H28.7342C28.5342 45 28.4342 44.8233 28.4342 44.47C28.4342 44.1433 28.5342 43.98 28.7342 43.98ZM26.6742 40.22L25.8642 39.4L26.6342 38.58L27.4442 39.4L26.6742 40.22ZM28.3942 40.22L27.5842 39.4L28.3542 38.58L29.1642 39.4L28.3942 40.22ZM33.0977 37.6H34.1377V45H33.0977V37.6ZM36.1244 47.3C35.8444 47.3 35.541 47.2467 35.2144 47.14C34.8877 47.04 34.5777 46.8767 34.2844 46.65L34.6544 45.95C34.8677 46.0367 35.091 46.1133 35.3244 46.18C35.5644 46.2467 35.7777 46.28 35.9644 46.28C36.3644 46.28 36.7144 46.19 37.0144 46.01C37.3144 45.83 37.5477 45.5833 37.7144 45.27C37.8877 44.9567 37.9744 44.5967 37.9744 44.19C37.9744 44.01 37.9377 43.8167 37.8644 43.61C37.791 43.3967 37.661 43.1433 37.4744 42.85C37.2944 42.5567 37.0377 42.2067 36.7044 41.8L37.4444 40.87C37.7977 41.3433 38.081 41.7633 38.2944 42.13C38.5077 42.4967 38.6644 42.8433 38.7644 43.17C38.8644 43.4967 38.9144 43.8367 38.9144 44.19C38.9144 44.47 38.8777 44.7567 38.8044 45.05C38.7377 45.3433 38.631 45.6233 38.4844 45.89C38.3377 46.1567 38.151 46.3967 37.9244 46.61C37.7044 46.8233 37.4444 46.99 37.1444 47.11C36.8444 47.2367 36.5044 47.3 36.1244 47.3ZM42.278 41.12C42.578 41.12 42.8513 41.19 43.098 41.33C43.3446 41.47 43.5546 41.67 43.728 41.93C43.9013 42.19 44.0346 42.5033 44.128 42.87C44.228 43.2367 44.278 43.6467 44.278 44.1C44.278 44.38 44.2413 44.67 44.168 44.97C44.1013 45.27 43.9946 45.5567 43.848 45.83C43.708 46.11 43.528 46.36 43.308 46.58C43.088 46.8 42.828 46.9733 42.528 47.1C42.228 47.2333 41.888 47.3 41.508 47.3C41.228 47.3 40.9246 47.2467 40.598 47.14C40.2713 47.04 39.9613 46.8767 39.668 46.65L40.038 45.95C40.2513 46.0367 40.4746 46.1133 40.708 46.18C40.948 46.2467 41.1613 46.28 41.348 46.28C41.6746 46.28 41.968 46.22 42.228 46.1C42.4946 45.98 42.718 45.81 42.898 45.59C43.078 45.37 43.2046 45.1133 43.278 44.82C43.1046 44.8733 42.9246 44.9167 42.738 44.95C42.558 44.9767 42.3813 44.99 42.208 44.99C41.868 44.99 41.5746 44.95 41.328 44.87C41.088 44.7833 40.888 44.67 40.728 44.53C40.5746 44.3833 40.4613 44.2167 40.388 44.03C40.3146 43.8433 40.278 43.6433 40.278 43.43C40.278 43.0833 40.3346 42.77 40.448 42.49C40.5613 42.2033 40.7113 41.96 40.898 41.76C41.0913 41.5533 41.3046 41.3967 41.538 41.29C41.778 41.1767 42.0246 41.12 42.278 41.12ZM41.228 43.23C41.228 43.3767 41.2613 43.5067 41.328 43.62C41.4013 43.7267 41.518 43.8133 41.678 43.88C41.838 43.94 42.058 43.97 42.338 43.97C42.5046 43.97 42.6713 43.9567 42.838 43.93C43.0046 43.9033 43.1713 43.86 43.338 43.8C43.3113 43.5133 43.2513 43.2467 43.158 43C43.0646 42.7467 42.938 42.54 42.778 42.38C42.6246 42.22 42.438 42.14 42.218 42.14C42.0246 42.14 41.8513 42.1967 41.698 42.31C41.5513 42.4167 41.4346 42.5533 41.348 42.72C41.268 42.8867 41.228 43.0567 41.228 43.23ZM45.7205 45L45.5305 43.98H48.3205C48.6405 43.98 48.8738 43.95 49.0205 43.89C49.1738 43.8233 49.2871 43.7333 49.3605 43.62L49.7205 44.44C49.6605 44.58 49.5605 44.69 49.4205 44.77C49.2805 44.85 49.1138 44.91 48.9205 44.95C48.7338 44.9833 48.5338 45 48.3205 45H45.7205ZM47.1805 41.12L47.9605 40.13L49.7105 43.15C49.8305 43.3567 49.9405 43.5233 50.0405 43.65C50.1405 43.77 50.2438 43.8567 50.3505 43.91C50.4638 43.9567 50.5971 43.98 50.7505 43.98H50.8505V45H50.7505C50.5505 45 50.3638 44.9767 50.1905 44.93C50.0238 44.8767 49.8638 44.8 49.7105 44.7C49.5638 44.5933 49.4171 44.4567 49.2705 44.29C49.1305 44.1233 48.9838 43.9233 48.8305 43.69L47.1805 41.12ZM51.0031 45V43.98H52.2531V37.6H53.2931V45H51.0031ZM51.0031 43.98H51.1031V45H51.0031C50.8031 45 50.7031 44.8233 50.7031 44.47C50.7031 44.1433 50.8031 43.98 51.0031 43.98ZM55.0391 37.6H56.0791V45H55.0391V37.6Z" fill="#ADADAD"/>
</svg>
