<svg width="80" height="49" viewBox="0 0 80 49" fill="none" xmlns="http://www.w3.org/2000/svg">
<path fill-rule="evenodd" clip-rule="evenodd" d="M40 7C40.5523 7 41 7.44772 41 8V11H45C45.5523 11 46 11.4477 46 12C46 12.5523 45.5523 13 45 13H41V18H42.5C43.6935 18 44.8381 18.4741 45.682 19.318C46.5259 20.1619 47 21.3065 47 22.5C47 23.6935 46.5259 24.8381 45.682 25.682C44.8381 26.5259 43.6935 27 42.5 27H41V30C41 30.5523 40.5523 31 40 31C39.4477 31 39 30.5523 39 30V27H34C33.4477 27 33 26.5523 33 26C33 25.4477 33.4477 25 34 25H39V20H37.5C36.3065 20 35.1619 19.5259 34.318 18.682C33.4741 17.8381 33 16.6935 33 15.5C33 14.3065 33.4741 13.1619 34.318 12.318C35.1619 11.4741 36.3065 11 37.5 11H39V8C39 7.44772 39.4477 7 40 7ZM39 13H37.5C36.837 13 36.2011 13.2634 35.7322 13.7322C35.2634 14.2011 35 14.837 35 15.5C35 16.163 35.2634 16.7989 35.7322 17.2678C36.2011 17.7366 36.837 18 37.5 18H39V13ZM41 20V25H42.5C43.163 25 43.7989 24.7366 44.2678 24.2678C44.7366 23.7989 45 23.163 45 22.5C45 21.837 44.7366 21.2011 44.2678 20.7322C43.7989 20.2634 43.163 20 42.5 20H41Z" fill="#ADADAD"/>
<path d="M19.2609 47.56C18.6409 47.56 18.0742 47.4567 17.5609 47.25C17.0476 47.05 16.6376 46.7533 16.3309 46.36C16.0242 45.9733 15.8709 45.5033 15.8709 44.95C15.8709 44.6167 15.9209 44.3 16.0209 44C16.1276 43.7067 16.2876 43.43 16.5009 43.17C16.7209 42.91 16.9976 42.67 17.3309 42.45C17.6642 42.2233 18.0576 42.0167 18.5109 41.83L19.1909 42.52C18.6776 42.7133 18.2509 42.92 17.9109 43.14C17.5776 43.3667 17.3276 43.6133 17.1609 43.88C16.9942 44.1533 16.9109 44.46 16.9109 44.8C16.9109 45.1467 17.0142 45.45 17.2209 45.71C17.4276 45.9767 17.7276 46.18 18.1209 46.32C18.5209 46.4667 19.0109 46.54 19.5909 46.54C19.9776 46.54 20.3442 46.5167 20.6909 46.47C21.0442 46.4233 21.3809 46.35 21.7009 46.25L21.9609 47.09C21.6209 47.2233 21.2976 47.3233 20.9909 47.39C20.6842 47.4567 20.3876 47.5 20.1009 47.52C19.8209 47.5467 19.5409 47.56 19.2609 47.56ZM19.2209 41.45C19.4409 41.31 19.6142 41.1667 19.7409 41.02C19.8676 40.8733 19.9576 40.73 20.0109 40.59C20.0642 40.45 20.0909 40.32 20.0909 40.2C20.0909 40.08 20.0576 39.98 19.9909 39.9C19.9242 39.8133 19.8176 39.75 19.6709 39.71C19.5309 39.6633 19.3376 39.64 19.0909 39.64C18.8309 39.64 18.5776 39.6633 18.3309 39.71C18.0842 39.75 17.8609 39.8033 17.6609 39.87L18.7109 40.97C18.8042 41.0633 18.8909 41.15 18.9709 41.23C19.0576 41.31 19.1409 41.3833 19.2209 41.45ZM20.8209 43C20.4676 43 20.1576 42.9667 19.8909 42.9C19.6242 42.8333 19.3842 42.74 19.1709 42.62C18.9642 42.5 18.7709 42.36 18.5909 42.2C18.4109 42.0333 18.2309 41.8567 18.0509 41.67L16.9209 40.49V39.14C17.1276 39.0333 17.3476 38.9433 17.5809 38.87C17.8209 38.79 18.0676 38.73 18.3209 38.69C18.5742 38.6433 18.8309 38.62 19.0909 38.62C19.5176 38.62 19.8809 38.6667 20.1809 38.76C20.4876 38.8533 20.7209 39.0033 20.8809 39.21C21.0476 39.4167 21.1309 39.6867 21.1309 40.02C21.1309 40.2533 21.0876 40.4833 21.0009 40.71C20.9142 40.93 20.7909 41.1433 20.6309 41.35C20.4709 41.55 20.2842 41.7367 20.0709 41.91C20.1842 41.9367 20.3009 41.9567 20.4209 41.97C20.5409 41.9767 20.6742 41.98 20.8209 41.98H21.8309V43H20.8209ZM21.983 43V41.98H25.803C25.8163 41.8133 25.8263 41.6667 25.833 41.54C25.8463 41.4133 25.853 41.2967 25.853 41.19C25.8597 41.0833 25.863 40.98 25.863 40.88C25.863 40.5667 25.8397 40.27 25.793 39.99C25.7463 39.71 25.673 39.4633 25.573 39.25C25.4797 39.03 25.363 38.86 25.223 38.74C25.083 38.6133 24.9163 38.55 24.723 38.55C24.5297 38.55 24.3563 38.6067 24.203 38.72C24.0563 38.8267 23.9397 38.9633 23.853 39.13C23.773 39.2967 23.733 39.4667 23.733 39.64C23.733 39.7867 23.7663 39.9167 23.833 40.03C23.9063 40.1367 24.023 40.2233 24.183 40.29C24.343 40.35 24.563 40.38 24.843 40.38C25.0163 40.38 25.1897 40.3667 25.363 40.34C25.543 40.3067 25.7263 40.2567 25.913 40.19L26.423 40.95C26.1697 41.0967 25.8897 41.21 25.583 41.29C25.283 41.3633 24.993 41.4 24.713 41.4C24.373 41.4 24.0797 41.36 23.833 41.28C23.593 41.1933 23.393 41.08 23.233 40.94C23.0797 40.7933 22.9663 40.6267 22.893 40.44C22.8197 40.2533 22.783 40.0533 22.783 39.84C22.783 39.4933 22.8397 39.18 22.953 38.9C23.0663 38.6133 23.2163 38.37 23.403 38.17C23.5963 37.9633 23.8097 37.8067 24.043 37.7C24.283 37.5867 24.5297 37.53 24.783 37.53C25.183 37.53 25.533 37.65 25.833 37.89C26.133 38.13 26.3663 38.4567 26.533 38.87C26.6997 39.2833 26.783 39.7567 26.783 40.29C26.783 40.5633 26.7697 40.87 26.743 41.21C26.7163 41.5433 26.683 41.87 26.643 42.19C26.603 42.5033 26.5597 42.7733 26.513 43H21.983ZM21.983 41.98H22.083V43H21.983C21.783 43 21.683 42.8233 21.683 42.47C21.683 42.1433 21.783 41.98 21.983 41.98ZM24.803 36.46L23.993 35.64L24.763 34.82L25.573 35.64L24.803 36.46ZM28.2211 43L28.0311 41.98H30.8211C31.1411 41.98 31.3744 41.95 31.5211 41.89C31.6744 41.8233 31.7877 41.7333 31.8611 41.62L32.2211 42.44C32.1611 42.58 32.0611 42.69 31.9211 42.77C31.7811 42.85 31.6144 42.91 31.4211 42.95C31.2344 42.9833 31.0344 43 30.8211 43H28.2211ZM29.6811 39.12L30.4611 38.13L32.2111 41.15C32.3311 41.3567 32.4411 41.5233 32.5411 41.65C32.6411 41.77 32.7444 41.8567 32.8511 41.91C32.9644 41.9567 33.0977 41.98 33.2511 41.98H33.3511V43H33.2511C33.0511 43 32.8644 42.9767 32.6911 42.93C32.5244 42.8767 32.3644 42.8 32.2111 42.7C32.0644 42.5933 31.9177 42.4567 31.7711 42.29C31.6311 42.1233 31.4844 41.9233 31.3311 41.69L29.6811 39.12ZM33.5037 43V41.98H34.7537V35.6H35.7937V43H33.5037ZM33.5037 41.98H33.6037V43H33.5037C33.3037 43 33.2037 42.8233 33.2037 42.47C33.2037 42.1433 33.3037 41.98 33.5037 41.98ZM37.5396 35.6H38.5796V43H37.5396V35.6ZM49.0691 43C48.6624 43 48.3158 42.9533 48.0291 42.86C47.7491 42.7667 47.5224 42.6233 47.3491 42.43C47.1758 42.23 47.0424 41.9767 46.9491 41.67L47.6491 41.33C47.7224 41.4833 47.8158 41.61 47.9291 41.71C48.0491 41.8033 48.2024 41.8733 48.3891 41.92C48.5824 41.96 48.8191 41.98 49.0991 41.98H49.4291V43H49.0691ZM49.1091 46.16L49.3691 46.99C49.0358 47.1167 48.7091 47.2233 48.3891 47.31C48.0758 47.3967 47.7558 47.46 47.4291 47.5C47.1024 47.54 46.7491 47.56 46.3691 47.56C45.8558 47.56 45.3791 47.5 44.9391 47.38C44.5058 47.2667 44.1258 47.0933 43.7991 46.86C43.4791 46.6333 43.2291 46.3467 43.0491 46C42.8691 45.66 42.7791 45.2633 42.7791 44.81C42.7791 44.3167 42.8658 43.8667 43.0391 43.46C43.2191 43.0533 43.4891 42.6833 43.8491 42.35C44.2158 42.01 44.6758 41.6967 45.2291 41.41C45.7891 41.1233 46.4491 40.8533 47.2091 40.6C47.0424 40.5067 46.8658 40.4167 46.6791 40.33C46.4991 40.2367 46.3158 40.15 46.1291 40.07C45.9424 39.99 45.7591 39.9267 45.5791 39.88C45.3991 39.8333 45.2258 39.81 45.0591 39.81C44.8391 39.81 44.6324 39.8533 44.4391 39.94C44.2458 40.02 44.0691 40.1367 43.9091 40.29C43.7558 40.4367 43.6191 40.6133 43.4991 40.82L42.8391 40.45C42.9791 40.15 43.1658 39.8767 43.3991 39.63C43.6391 39.3767 43.9158 39.1733 44.2291 39.02C44.5424 38.8667 44.8758 38.79 45.2291 38.79C45.5091 38.79 45.7891 38.8367 46.0691 38.93C46.3491 39.0233 46.6224 39.14 46.8891 39.28C47.1558 39.42 47.4124 39.5633 47.6591 39.71C47.9058 39.85 48.1358 39.9667 48.3491 40.06C48.5691 40.1533 48.7691 40.2 48.9491 40.2V41.05C48.1291 41.2833 47.3991 41.5167 46.7591 41.75C46.1258 41.9833 45.5891 42.24 45.1491 42.52C44.7158 42.7933 44.3858 43.1033 44.1591 43.45C43.9324 43.7967 43.8191 44.2 43.8191 44.66C43.8191 45.0533 43.9224 45.39 44.1291 45.67C44.3424 45.9567 44.6624 46.1733 45.0891 46.32C45.5158 46.4667 46.0524 46.54 46.6991 46.54C47.0258 46.54 47.3224 46.5267 47.5891 46.5C47.8558 46.4733 48.1124 46.43 48.3591 46.37C48.6058 46.3167 48.8558 46.2467 49.1091 46.16ZM45.2491 37.72L44.4391 36.9L45.2091 36.08L46.0191 36.9L45.2491 37.72ZM49.5822 43V41.98H51.5722C51.5722 41.5267 51.5022 41.11 51.3622 40.73C51.2289 40.35 51.0489 39.9533 50.8222 39.54L51.7322 38.62C51.9256 39.04 52.0956 39.4767 52.2422 39.93C52.3956 40.3833 52.4822 40.8633 52.5022 41.37C52.5222 41.87 52.4256 42.4133 52.2122 43H49.5822ZM49.5822 41.98H49.6822V43H49.5822C49.3822 43 49.2822 42.8233 49.2822 42.47C49.2822 42.1433 49.3822 41.98 49.5822 41.98ZM50.3222 45.43L49.5122 44.61L50.2822 43.79L51.0922 44.61L50.3222 45.43ZM52.0422 45.43L51.2322 44.61L52.0022 43.79L52.8122 44.61L52.0422 45.43ZM53.9255 45.3C53.8055 45.3 53.6788 45.29 53.5455 45.27C53.4122 45.25 53.2788 45.22 53.1455 45.18L53.3955 44.24C53.4622 44.2533 53.5255 44.2633 53.5855 44.27C53.6522 44.2767 53.7122 44.28 53.7655 44.28C54.1655 44.28 54.5155 44.19 54.8155 44.01C55.1155 43.83 55.3488 43.5833 55.5155 43.27C55.6888 42.9567 55.7755 42.5967 55.7755 42.19C55.7755 42.01 55.7388 41.8167 55.6655 41.61C55.5922 41.3967 55.4622 41.1433 55.2755 40.85C55.0955 40.5567 54.8388 40.2067 54.5055 39.8L55.2455 38.87C55.5988 39.3433 55.8822 39.7633 56.0955 40.13C56.3088 40.4967 56.4655 40.8433 56.5655 41.17C56.6655 41.4967 56.7155 41.8367 56.7155 42.19C56.7155 42.47 56.6788 42.7567 56.6055 43.05C56.5388 43.3433 56.4322 43.6233 56.2855 43.89C56.1388 44.1567 55.9522 44.3967 55.7255 44.61C55.5055 44.8233 55.2455 44.99 54.9455 45.11C54.6455 45.2367 54.3055 45.3 53.9255 45.3ZM59.9901 43C59.6434 43 59.3568 42.9567 59.1301 42.87C58.9101 42.7833 58.7368 42.6667 58.6101 42.52C58.4834 42.3667 58.3934 42.19 58.3401 41.99C58.2934 41.79 58.2701 41.58 58.2701 41.36V35.6H59.3101V41.1C59.3101 41.2533 59.3201 41.3867 59.3401 41.5C59.3668 41.6133 59.4101 41.7067 59.4701 41.78C59.5301 41.8467 59.6168 41.8967 59.7301 41.93C59.8501 41.9633 60.0034 41.98 60.1901 41.98H60.5701V43H59.9901ZM60.7158 43V41.98H62.7058C62.7058 41.5267 62.6358 41.11 62.4958 40.73C62.3625 40.35 62.1825 39.9533 61.9558 39.54L62.8658 38.62C63.0592 39.04 63.2292 39.4767 63.3758 39.93C63.5292 40.3833 63.6158 40.8633 63.6358 41.37C63.6558 41.87 63.5592 42.4133 63.3458 43H60.7158ZM60.7158 41.98H60.8158V43H60.7158C60.5158 43 60.4158 42.8233 60.4158 42.47C60.4158 42.1433 60.5158 41.98 60.7158 41.98ZM61.5858 37.55L60.7758 36.73L61.5458 35.91L62.3558 36.73L61.5858 37.55ZM63.3058 37.55L62.4958 36.73L63.2658 35.91L64.0758 36.73L63.3058 37.55Z" fill="#ADADAD"/>
</svg>
