<svg width="80" height="49" viewBox="0 0 80 49" fill="none" xmlns="http://www.w3.org/2000/svg">
<g clip-path="url(#clip0_328_12465)">
<path fill-rule="evenodd" clip-rule="evenodd" d="M31.8787 8.87868C32.4413 8.31607 33.2044 8 34 8H41C41.2652 8 41.5196 8.10536 41.7071 8.29289L48.7071 15.2929C48.8946 15.4804 49 15.7348 49 16V27C49 27.7957 48.6839 28.5587 48.1213 29.1213C47.5587 29.6839 46.7957 30 46 30H34C33.2043 30 32.4413 29.6839 31.8787 29.1213C31.3161 28.5587 31 27.7957 31 27V11C31 10.2044 31.3161 9.44129 31.8787 8.87868ZM34 10C33.7348 10 33.4804 10.1054 33.2929 10.2929C33.1054 10.4804 33 10.7348 33 11V27C33 27.2652 33.1054 27.5196 33.2929 27.7071C33.4804 27.8946 33.7348 28 34 28H46C46.2652 28 46.5196 27.8946 46.7071 27.7071C46.8946 27.5196 47 27.2652 47 27V16.4142L40.5858 10H34Z" fill="#ADADAD"/>
<path fill-rule="evenodd" clip-rule="evenodd" d="M41 8C41.5523 8 42 8.44772 42 9V15H48C48.5523 15 49 15.4477 49 16C49 16.5523 48.5523 17 48 17H41C40.4477 17 40 16.5523 40 16V9C40 8.44772 40.4477 8 41 8Z" fill="#ADADAD"/>
</g>
<path d="M27.7101 45L27.5201 43.98H30.5101C30.4435 43.6133 30.3468 43.2733 30.2201 42.96C30.1001 42.64 29.9301 42.33 29.7101 42.03C29.4968 41.73 29.2168 41.4267 28.8701 41.12L29.6501 40.13C30.1368 40.65 30.5235 41.1567 30.8101 41.65C31.1035 42.1367 31.2968 42.65 31.3901 43.19C31.4835 43.73 31.4835 44.3333 31.3901 45H27.7101ZM33.0115 37.6H34.0515V45H33.0115V37.6ZM36.8382 47.3C36.5582 47.3 36.2549 47.2467 35.9282 47.14C35.6016 47.04 35.2916 46.8767 34.9982 46.65L35.3682 45.95C35.5816 46.0367 35.8049 46.1133 36.0382 46.18C36.2782 46.2467 36.4916 46.28 36.6782 46.28C37.1316 46.28 37.5216 46.1633 37.8482 45.93C38.1816 45.6967 38.4182 45.3867 38.5582 45H37.7382C37.3516 45 37.0216 44.96 36.7482 44.88C36.4816 44.7933 36.2616 44.68 36.0882 44.54C35.9216 44.3933 35.7982 44.2267 35.7182 44.04C35.6449 43.8533 35.6082 43.6533 35.6082 43.44C35.6082 43.0933 35.6649 42.78 35.7782 42.5C35.8916 42.2133 36.0416 41.97 36.2282 41.77C36.4216 41.5633 36.6349 41.4067 36.8682 41.3C37.1082 41.1867 37.3549 41.13 37.6082 41.13C37.9749 41.13 38.2982 41.2333 38.5782 41.44C38.8649 41.6467 39.0949 41.94 39.2682 42.32C39.4416 42.7 39.5482 43.15 39.5882 43.67C39.5949 43.7167 39.5982 43.7667 39.5982 43.82C39.6049 43.8733 39.6082 43.9267 39.6082 43.98H40.3082V45H39.4982C39.4249 45.2933 39.3149 45.5767 39.1682 45.85C39.0282 46.1233 38.8482 46.37 38.6282 46.59C38.4082 46.81 38.1482 46.9833 37.8482 47.11C37.5549 47.2367 37.2182 47.3 36.8382 47.3ZM37.8382 43.98H38.6782C38.6716 43.9267 38.6649 43.8733 38.6582 43.82C38.6582 43.7667 38.6549 43.7167 38.6482 43.67C38.6149 43.4033 38.5482 43.1567 38.4482 42.93C38.3549 42.6967 38.2316 42.51 38.0782 42.37C37.9316 42.2233 37.7549 42.15 37.5482 42.15C37.3549 42.15 37.1816 42.2067 37.0282 42.32C36.8816 42.4267 36.7649 42.5633 36.6782 42.73C36.5982 42.8967 36.5582 43.0667 36.5582 43.24C36.5582 43.3867 36.5949 43.5167 36.6682 43.63C36.7416 43.7367 36.8716 43.8233 37.0582 43.89C37.2449 43.95 37.5049 43.98 37.8382 43.98ZM40.4607 45V43.98H40.5207C40.6407 43.98 40.7441 43.9633 40.8307 43.93C40.9241 43.8967 41.0107 43.8367 41.0907 43.75C41.1707 43.6633 41.2607 43.5433 41.3607 43.39C41.4607 43.23 41.5841 43.0267 41.7307 42.78C41.9307 42.44 42.1241 42.1533 42.3107 41.92C42.4974 41.68 42.6774 41.49 42.8507 41.35C43.0307 41.21 43.2074 41.11 43.3807 41.05C43.5607 40.9833 43.7407 40.95 43.9207 40.95C44.1807 40.95 44.4141 41.01 44.6207 41.13C44.8274 41.25 45.0207 41.4533 45.2007 41.74C45.3807 42.0267 45.5607 42.4233 45.7407 42.93C45.8607 43.2567 45.9707 43.4967 46.0707 43.65C46.1707 43.7967 46.2774 43.89 46.3907 43.93C46.5107 43.9633 46.6607 43.98 46.8407 43.98H46.8607V45H46.8407C46.5407 45 46.2841 44.9667 46.0707 44.9C45.8574 44.8267 45.6707 44.72 45.5107 44.58C45.3574 44.4333 45.2241 44.2567 45.1107 44.05C44.9974 43.8433 44.8941 43.6033 44.8007 43.33C44.6674 42.9367 44.5474 42.6467 44.4407 42.46C44.3407 42.2667 44.2441 42.14 44.1507 42.08C44.0574 42.02 43.9541 41.99 43.8407 41.99C43.7341 41.99 43.6174 42.03 43.4907 42.11C43.3707 42.1833 43.2374 42.3067 43.0907 42.48C42.9441 42.6533 42.7841 42.89 42.6107 43.19C42.4374 43.49 42.2807 43.7467 42.1407 43.96C42.0074 44.1667 41.8807 44.34 41.7607 44.48C41.6474 44.6133 41.5307 44.72 41.4107 44.8C41.2907 44.8733 41.1574 44.9267 41.0107 44.96C40.8707 44.9867 40.7074 45 40.5207 45H40.4607ZM45.8107 44.53C45.6241 44.77 45.4007 44.9367 45.1407 45.03C44.8874 45.13 44.6141 45.1733 44.3207 45.16C44.0274 45.1467 43.7307 45.0867 43.4307 44.98C43.1374 44.8667 42.8541 44.72 42.5807 44.54C42.3141 44.3533 42.0741 44.1467 41.8607 43.92L42.4207 43.28C42.6007 43.4267 42.8007 43.5633 43.0207 43.69C43.2474 43.81 43.4841 43.9067 43.7307 43.98C43.9841 44.0533 44.2441 44.0933 44.5107 44.1C44.7841 44.1067 45.0574 44.0667 45.3307 43.98L45.8107 44.53ZM40.4607 43.98H40.5607V45H40.4607C40.2607 45 40.1607 44.8233 40.1607 44.47C40.1607 44.1433 40.2607 43.98 40.4607 43.98ZM47.0072 45V43.98H48.2572V37.6H49.2972V45H47.0072ZM47.0072 43.98H47.1072V45H47.0072C46.8072 45 46.7072 44.8233 46.7072 44.47C46.7072 44.1433 46.8072 43.98 47.0072 43.98ZM51.0432 37.6H52.0832V45H51.0432V37.6Z" fill="#ADADAD"/>
<defs>
<clipPath id="clip0_328_12465">
<rect width="24" height="24" fill="white" transform="translate(28 7)"/>
</clipPath>
</defs>
</svg>
