<svg width="80" height="50" viewBox="0 0 80 50" fill="none" xmlns="http://www.w3.org/2000/svg">
<path fill-rule="evenodd" clip-rule="evenodd" d="M31 11C30.7348 11 30.4804 11.1054 30.2929 11.2929C30.1054 11.4804 30 11.7348 30 12V26C30 26.2652 30.1054 26.5196 30.2929 26.7071C30.4804 26.8946 30.7348 27 31 27H35C35.5523 27 36 27.4477 36 28C36 28.5523 35.5523 29 35 29H31C30.2043 29 29.4413 28.6839 28.8787 28.1213C28.3161 27.5587 28 26.7957 28 26V12C28 11.2044 28.3161 10.4413 28.8787 9.87868C29.4413 9.31607 30.2044 9 31 9H35C35.5523 9 36 9.44772 36 10C36 10.5523 35.5523 11 35 11H31ZM41.2929 13.2929C41.6834 12.9024 42.3166 12.9024 42.7071 13.2929L47.7071 18.2929C48.0976 18.6834 48.0976 19.3166 47.7071 19.7071L42.7071 24.7071C42.3166 25.0976 41.6834 25.0976 41.2929 24.7071C40.9024 24.3166 40.9024 23.6834 41.2929 23.2929L44.5858 20H35C34.4477 20 34 19.5523 34 19C34 18.4477 34.4477 18 35 18H44.5858L41.2929 14.7071C40.9024 14.3166 40.9024 13.6834 41.2929 13.2929Z" fill="#ADADAD"/>
<path d="M13.1927 48.16L13.4527 48.99C13.1194 49.1167 12.7927 49.2233 12.4727 49.31C12.1594 49.3967 11.8394 49.46 11.5127 49.5C11.186 49.54 10.8327 49.56 10.4527 49.56C9.93936 49.56 9.46269 49.5 9.02269 49.38C8.58936 49.2667 8.20936 49.0933 7.88269 48.86C7.56269 48.6333 7.31269 48.3467 7.13269 48C6.95269 47.66 6.86269 47.2633 6.86269 46.81C6.86269 46.3167 6.94936 45.8667 7.12269 45.46C7.30269 45.0533 7.57269 44.6833 7.93269 44.35C8.29936 44.01 8.75936 43.6967 9.31269 43.41C9.87269 43.1233 10.5327 42.8533 11.2927 42.6C11.126 42.5067 10.9494 42.4167 10.7627 42.33C10.5827 42.2367 10.3994 42.15 10.2127 42.07C10.026 41.99 9.84269 41.9267 9.66269 41.88C9.48269 41.8333 9.30936 41.81 9.14269 41.81C8.92269 41.81 8.71603 41.8533 8.52269 41.94C8.32936 42.02 8.15269 42.1367 7.99269 42.29C7.83936 42.4367 7.70269 42.6133 7.58269 42.82L6.92269 42.45C7.06269 42.15 7.24936 41.8767 7.48269 41.63C7.72269 41.3767 7.99936 41.1733 8.31269 41.02C8.62603 40.8667 8.95936 40.79 9.31269 40.79C9.59269 40.79 9.87269 40.8367 10.1527 40.93C10.4327 41.0233 10.706 41.14 10.9727 41.28C11.2394 41.42 11.496 41.5633 11.7427 41.71C11.9894 41.85 12.2194 41.9667 12.4327 42.06C12.6527 42.1533 12.8527 42.2 13.0327 42.2V43.05C12.2127 43.2833 11.4827 43.5167 10.8427 43.75C10.2094 43.9833 9.67269 44.24 9.23269 44.52C8.79936 44.7933 8.46936 45.1033 8.24269 45.45C8.01603 45.7967 7.90269 46.2 7.90269 46.66C7.90269 47.0533 8.00603 47.39 8.21269 47.67C8.42603 47.9567 8.74603 48.1733 9.17269 48.32C9.59936 48.4667 10.136 48.54 10.7827 48.54C11.1094 48.54 11.406 48.5267 11.6727 48.5C11.9394 48.4733 12.196 48.43 12.4427 48.37C12.6894 48.3167 12.9394 48.2467 13.1927 48.16ZM10.4827 47.06L9.67269 46.24L10.4427 45.42L11.2527 46.24L10.4827 47.06ZM16.4125 41.12C16.7125 41.12 16.9859 41.19 17.2325 41.33C17.4792 41.47 17.6892 41.67 17.8625 41.93C18.0359 42.19 18.1692 42.5033 18.2625 42.87C18.3625 43.2367 18.4125 43.6467 18.4125 44.1C18.4125 44.38 18.3759 44.67 18.3025 44.97C18.2359 45.27 18.1292 45.5567 17.9825 45.83C17.8425 46.11 17.6625 46.36 17.4425 46.58C17.2225 46.8 16.9625 46.9733 16.6625 47.1C16.3625 47.2333 16.0225 47.3 15.6425 47.3C15.3625 47.3 15.0592 47.2467 14.7325 47.14C14.4059 47.04 14.0959 46.8767 13.8025 46.65L14.1725 45.95C14.3859 46.0367 14.6092 46.1133 14.8425 46.18C15.0825 46.2467 15.2959 46.28 15.4825 46.28C15.8092 46.28 16.1025 46.22 16.3625 46.1C16.6292 45.98 16.8525 45.81 17.0325 45.59C17.2125 45.37 17.3392 45.1133 17.4125 44.82C17.2392 44.8733 17.0592 44.9167 16.8725 44.95C16.6925 44.9767 16.5159 44.99 16.3425 44.99C16.0025 44.99 15.7092 44.95 15.4625 44.87C15.2225 44.7833 15.0225 44.67 14.8625 44.53C14.7092 44.3833 14.5959 44.2167 14.5225 44.03C14.4492 43.8433 14.4125 43.6433 14.4125 43.43C14.4125 43.0833 14.4692 42.77 14.5825 42.49C14.6959 42.2033 14.8459 41.96 15.0325 41.76C15.2259 41.5533 15.4392 41.3967 15.6725 41.29C15.9125 41.1767 16.1592 41.12 16.4125 41.12ZM15.3625 43.23C15.3625 43.3767 15.3959 43.5067 15.4625 43.62C15.5359 43.7267 15.6525 43.8133 15.8125 43.88C15.9725 43.94 16.1925 43.97 16.4725 43.97C16.6392 43.97 16.8059 43.9567 16.9725 43.93C17.1392 43.9033 17.3059 43.86 17.4725 43.8C17.4459 43.5133 17.3859 43.2467 17.2925 43C17.1992 42.7467 17.0725 42.54 16.9125 42.38C16.7592 42.22 16.5725 42.14 16.3525 42.14C16.1592 42.14 15.9859 42.1967 15.8325 42.31C15.6859 42.4167 15.5692 42.5533 15.4825 42.72C15.4025 42.8867 15.3625 43.0567 15.3625 43.23ZM20.305 47.3C20.025 47.3 19.7217 47.2467 19.395 47.14C19.0684 47.04 18.7584 46.8767 18.465 46.65L18.835 45.95C19.0484 46.0367 19.2717 46.1133 19.505 46.18C19.745 46.2467 19.9584 46.28 20.145 46.28C20.545 46.28 20.895 46.19 21.195 46.01C21.495 45.83 21.7284 45.5833 21.895 45.27C22.0684 44.9567 22.155 44.5967 22.155 44.19C22.155 44.0367 22.135 43.9033 22.095 43.79C22.055 43.6767 22.0017 43.5633 21.935 43.45C21.8684 43.3367 21.7917 43.2133 21.705 43.08L23.095 43.83C23.095 43.89 23.095 43.95 23.095 44.01C23.095 44.07 23.095 44.13 23.095 44.19C23.095 44.47 23.055 44.7567 22.975 45.05C22.9017 45.3433 22.7917 45.6233 22.645 45.89C22.4984 46.1567 22.3117 46.3967 22.085 46.61C21.865 46.8233 21.605 46.99 21.305 47.11C21.0117 47.2367 20.6784 47.3 20.305 47.3ZM24.115 45C23.8884 45 23.6817 44.9767 23.495 44.93C23.315 44.8767 23.145 44.8 22.985 44.7C22.825 44.5933 22.6717 44.4567 22.525 44.29C22.385 44.1233 22.2417 43.9233 22.095 43.69L20.885 41.8L21.625 40.87L22.975 43.15C23.1017 43.3567 23.215 43.5233 23.315 43.65C23.415 43.77 23.525 43.8567 23.645 43.91C23.7717 43.9567 23.9284 43.98 24.115 43.98H24.215V45H24.115ZM31.6562 45C31.2495 45 30.9029 44.9533 30.6162 44.86C30.3362 44.7667 30.1095 44.6233 29.9362 44.43C29.7629 44.23 29.6295 43.9767 29.5362 43.67L30.2362 43.33C30.3095 43.4833 30.4029 43.61 30.5162 43.71C30.6362 43.8033 30.7895 43.8733 30.9762 43.92C31.1695 43.96 31.4062 43.98 31.6862 43.98H32.0162V45H31.6562ZM24.3662 43.98H24.4662V45H24.3662C24.1662 45 24.0662 44.8233 24.0662 44.47C24.0662 44.1433 24.1662 43.98 24.3662 43.98ZM24.3662 45V43.98H24.6562C25.2829 43.98 25.8195 43.9567 26.2662 43.91C26.7129 43.8633 27.0962 43.8 27.4162 43.72C27.7429 43.64 28.0295 43.5467 28.2762 43.44C28.5229 43.3267 28.7595 43.21 28.9862 43.09C29.0529 43.05 29.1195 43.0133 29.1862 42.98C29.2529 42.9467 29.3195 42.9133 29.3862 42.88C29.4529 42.8467 29.5195 42.8133 29.5862 42.78C29.3329 42.6867 29.0829 42.58 28.8362 42.46C28.5895 42.3333 28.3462 42.21 28.1062 42.09C27.8662 41.9633 27.6295 41.86 27.3962 41.78C27.1695 41.7 26.9462 41.66 26.7262 41.66C26.5262 41.66 26.3162 41.7133 26.0962 41.82C25.8762 41.92 25.6695 42.1467 25.4762 42.5L24.7562 42.13C24.9362 41.7633 25.1362 41.47 25.3562 41.25C25.5829 41.03 25.8229 40.87 26.0762 40.77C26.3362 40.67 26.5995 40.62 26.8662 40.62C27.1862 40.62 27.4929 40.68 27.7862 40.8C28.0862 40.9133 28.3762 41.0533 28.6562 41.22C28.9429 41.3867 29.2229 41.5567 29.4962 41.73C29.7695 41.8967 30.0429 42.04 30.3162 42.16C30.5895 42.2733 30.8629 42.33 31.1362 42.33V43.23C30.9495 43.23 30.7129 43.2967 30.4262 43.43C30.1462 43.5633 29.8229 43.7267 29.4562 43.92C29.2295 44.04 28.9795 44.1633 28.7062 44.29C28.4329 44.4167 28.1129 44.5333 27.7462 44.64C27.3795 44.7467 26.9395 44.8333 26.4262 44.9C25.9129 44.9667 25.3029 45 24.5962 45H24.3662ZM24.3662 43.98H24.4662V45H24.3662C24.1662 45 24.0662 44.8233 24.0662 44.47C24.0662 44.1433 24.1662 43.98 24.3662 43.98ZM26.8862 39.55L26.0762 38.73L26.8462 37.91L27.6562 38.73L26.8862 39.55ZM32.1627 45V43.98H33.4127V37.6H34.4527V45H32.1627ZM32.1627 43.98H32.2627V45H32.1627C31.9627 45 31.8627 44.8233 31.8627 44.47C31.8627 44.1433 31.9627 43.98 32.1627 43.98ZM36.1986 37.6H37.2386V45H36.1986V37.6ZM47.2281 43.98H48.4281V45H47.2281V43.98ZM44.3481 47.3C43.8414 47.3 43.4048 47.2333 43.0381 47.1C42.6714 46.9667 42.3681 46.7833 42.1281 46.55C41.8948 46.3233 41.7214 46.0567 41.6081 45.75C41.4948 45.4433 41.4381 45.1167 41.4381 44.77C41.4381 44.5767 41.4714 44.3133 41.5381 43.98C41.6048 43.6467 41.7181 43.2733 41.8781 42.86L42.7581 43.15C42.6514 43.4367 42.5714 43.7067 42.5181 43.96C42.4714 44.2067 42.4481 44.4267 42.4481 44.62C42.4481 44.98 42.5281 45.2833 42.6881 45.53C42.8481 45.7767 43.0781 45.9633 43.3781 46.09C43.6848 46.2167 44.0514 46.28 44.4781 46.28C44.7581 46.28 45.0181 46.2433 45.2581 46.17C45.5048 46.0967 45.7181 45.9833 45.8981 45.83C46.0848 45.6767 46.2281 45.48 46.3281 45.24C46.4348 45.0067 46.4881 44.7267 46.4881 44.4V37.6H47.5281V44.26C47.5281 44.9467 47.3914 45.5133 47.1181 45.96C46.8514 46.4133 46.4781 46.75 45.9981 46.97C45.5248 47.19 44.9748 47.3 44.3481 47.3ZM48.5732 45V43.98H49.7932C49.8466 43.88 49.9032 43.7233 49.9632 43.51C50.0232 43.29 50.0766 43.0533 50.1232 42.8C50.1699 42.5467 50.1999 42.3167 50.2132 42.11L51.4232 41.69C51.3299 42.15 51.2266 42.5667 51.1132 42.94C51.0066 43.3133 50.8766 43.6667 50.7232 44C50.5699 44.3267 50.3766 44.66 50.1432 45H48.5732ZM52.1432 45C51.7832 45 51.4632 44.9667 51.1832 44.9C50.9099 44.8333 50.6666 44.75 50.4532 44.65C50.2466 44.5433 50.0566 44.4333 49.8832 44.32L50.4332 43.64C50.5666 43.7133 50.7099 43.7767 50.8632 43.83C51.0166 43.8767 51.1799 43.9133 51.3532 43.94C51.5332 43.9667 51.7199 43.98 51.9132 43.98H52.2332V45H52.1432ZM48.5732 43.98H48.6732V45H48.5732C48.3732 45 48.2732 44.8233 48.2732 44.47C48.2732 44.1433 48.3732 43.98 48.5732 43.98ZM49.5232 47.43L48.7132 46.61L49.4832 45.79L50.2932 46.61L49.5232 47.43ZM51.2432 47.43L50.4332 46.61L51.2032 45.79L52.0132 46.61L51.2432 47.43ZM59.6753 45C59.2687 45 58.922 44.9533 58.6353 44.86C58.3553 44.7667 58.1287 44.6233 57.9553 44.43C57.782 44.23 57.6487 43.9767 57.5553 43.67L58.2553 43.33C58.3287 43.4833 58.422 43.61 58.5353 43.71C58.6553 43.8033 58.8087 43.8733 58.9953 43.92C59.1887 43.96 59.4253 43.98 59.7053 43.98H60.0353V45H59.6753ZM52.3853 43.98H52.4853V45H52.3853C52.1853 45 52.0853 44.8233 52.0853 44.47C52.0853 44.1433 52.1853 43.98 52.3853 43.98ZM52.3853 45V43.98H52.6753C53.302 43.98 53.8387 43.9567 54.2853 43.91C54.732 43.8633 55.1153 43.8 55.4353 43.72C55.762 43.64 56.0487 43.5467 56.2953 43.44C56.542 43.3267 56.7787 43.21 57.0053 43.09C57.072 43.05 57.1387 43.0133 57.2053 42.98C57.272 42.9467 57.3387 42.9133 57.4053 42.88C57.472 42.8467 57.5387 42.8133 57.6053 42.78C57.352 42.6867 57.102 42.58 56.8553 42.46C56.6087 42.3333 56.3653 42.21 56.1253 42.09C55.8853 41.9633 55.6487 41.86 55.4153 41.78C55.1887 41.7 54.9653 41.66 54.7453 41.66C54.5453 41.66 54.3353 41.7133 54.1153 41.82C53.8953 41.92 53.6887 42.1467 53.4953 42.5L52.7753 42.13C52.9553 41.7633 53.1553 41.47 53.3753 41.25C53.602 41.03 53.842 40.87 54.0953 40.77C54.3553 40.67 54.6187 40.62 54.8853 40.62C55.2053 40.62 55.512 40.68 55.8053 40.8C56.1053 40.9133 56.3953 41.0533 56.6753 41.22C56.962 41.3867 57.242 41.5567 57.5153 41.73C57.7887 41.8967 58.062 42.04 58.3353 42.16C58.6087 42.2733 58.882 42.33 59.1553 42.33V43.23C58.9687 43.23 58.732 43.2967 58.4453 43.43C58.1653 43.5633 57.842 43.7267 57.4753 43.92C57.2487 44.04 56.9987 44.1633 56.7253 44.29C56.452 44.4167 56.132 44.5333 55.7653 44.64C55.3987 44.7467 54.9587 44.8333 54.4453 44.9C53.932 44.9667 53.322 45 52.6153 45H52.3853ZM52.3853 43.98H52.4853V45H52.3853C52.1853 45 52.0853 44.8233 52.0853 44.47C52.0853 44.1433 52.1853 43.98 52.3853 43.98ZM55.5853 47.43L54.7753 46.61L55.5453 45.79L56.3553 46.61L55.5853 47.43ZM66.8618 45C66.5018 45 66.1818 44.9667 65.9018 44.9C65.6285 44.8333 65.3852 44.75 65.1718 44.65C64.9652 44.5433 64.7752 44.4333 64.6018 44.32L65.1518 43.64C65.5518 43.8667 66.0452 43.98 66.6318 43.98H67.9118C67.8785 43.68 67.8385 43.4233 67.7918 43.21C67.7518 42.9967 67.7018 42.7867 67.6418 42.58C67.5818 42.3667 67.5018 42.1233 67.4018 41.85L68.5518 41.08C68.6118 41.5 68.6618 41.9267 68.7018 42.36C68.7485 42.7867 68.7652 43.22 68.7518 43.66C68.7385 44.1 68.6718 44.5467 68.5518 45H66.8618ZM60.1818 45V43.98H61.5118C61.5918 43.8533 61.6585 43.6833 61.7118 43.47C61.7718 43.25 61.8185 43.02 61.8518 42.78C61.8918 42.54 61.9185 42.3167 61.9318 42.11L63.1418 41.69C63.0685 42.0367 62.9918 42.3567 62.9118 42.65C62.8385 42.9433 62.7518 43.2233 62.6518 43.49C62.5518 43.75 62.4385 44.0033 62.3118 44.25C62.1852 44.4967 62.0352 44.7467 61.8618 45H60.1818ZM63.6418 45C63.2818 45 62.9618 44.9667 62.6818 44.9C62.4085 44.8333 62.1652 44.75 61.9518 44.65C61.7452 44.5433 61.5552 44.4333 61.3818 44.32L61.9318 43.64C62.1252 43.7467 62.3452 43.83 62.5918 43.89C62.8452 43.95 63.1185 43.98 63.4118 43.98H64.2118C64.2918 43.8533 64.3585 43.6833 64.4118 43.47C64.4718 43.25 64.5185 43.02 64.5518 42.78C64.5918 42.54 64.6185 42.3167 64.6318 42.11L65.8418 41.69C65.7685 42.0367 65.6918 42.3567 65.6118 42.65C65.5385 42.9433 65.4518 43.2233 65.3518 43.49C65.2518 43.75 65.1385 44.0033 65.0118 44.25C64.8852 44.4967 64.7352 44.7467 64.5618 45H63.6418ZM69.7918 45C69.5118 45 69.2552 44.98 69.0218 44.94C68.7952 44.8933 68.5885 44.8367 68.4018 44.77C68.2152 44.6967 68.0452 44.62 67.8918 44.54L68.3018 43.75C68.3885 43.79 68.4785 43.8233 68.5718 43.85C68.6718 43.8767 68.7752 43.9 68.8818 43.92C68.9885 43.94 69.0985 43.9567 69.2118 43.97C69.3252 43.9767 69.4418 43.98 69.5618 43.98H69.8818V45H69.7918ZM60.1818 43.98H60.2818V45H60.1818C59.9818 45 59.8818 44.8233 59.8818 44.47C59.8818 44.1433 59.9818 43.98 60.1818 43.98ZM70.0291 45V43.98H71.8191C71.8191 43.5267 71.7491 43.11 71.6091 42.73C71.4758 42.35 71.2958 41.9533 71.0691 41.54L71.9791 40.62C72.1724 41.04 72.3424 41.4767 72.4891 41.93C72.6424 42.3833 72.7291 42.8633 72.7491 43.37C72.7691 43.87 72.6724 44.4133 72.4591 45H70.0291ZM70.0291 43.98H70.1291V45H70.0291C69.8291 45 69.7291 44.8233 69.7291 44.47C69.7291 44.1433 69.8291 43.98 70.0291 43.98ZM70.6991 39.55L69.8891 38.73L70.6591 37.91L71.4691 38.73L70.6991 39.55ZM72.4191 39.55L71.6091 38.73L72.3791 37.91L73.1891 38.73L72.4191 39.55Z" fill="#ADADAD"/>
</svg>
