<svg width="80" height="49" viewBox="0 0 80 49" fill="none" xmlns="http://www.w3.org/2000/svg">
<path fill-rule="evenodd" clip-rule="evenodd" d="M41.6771 13.9984L43.1847 11.9425C43.2873 11.8027 43.481 11.7671 43.6266 11.8613C45.599 13.1376 46.1412 15.0872 45.3499 16.5244C44.4844 18.0961 43.1497 20.0237 41.1023 22.0711C39.0549 24.1185 37.1273 25.4532 35.5556 26.3187C34.1184 27.11 32.1688 26.5678 30.8925 24.5954C30.7983 24.4498 30.8339 24.2561 30.9737 24.1535L33.0296 22.6459C33.3319 22.4242 33.7329 22.3902 34.0682 22.5579L34.8876 22.9676C35.5846 23.3161 36.5401 23.4385 37.4445 22.9732C38.0491 22.6622 38.9811 22.071 40.0416 21.0104C41.1022 19.9499 41.6934 19.0179 42.0044 18.4133C42.4697 17.5089 42.3473 16.5534 41.9988 15.8564L41.5891 15.037C41.4214 14.7017 41.4554 14.3007 41.6771 13.9984ZM44.7131 10.1822C47.2536 11.826 48.5613 14.8383 47.1018 17.489C46.1493 19.219 44.7025 21.2994 42.5165 23.4853C40.3306 25.6713 38.2502 27.1181 36.5202 28.0706C33.8695 29.5301 30.8572 28.2224 29.2134 25.6819C28.5438 24.647 28.7971 23.2696 29.791 22.5407L31.8469 21.0331C32.7539 20.368 33.9567 20.266 34.9626 20.769L35.7821 21.1788C36.0193 21.2974 36.2937 21.3161 36.5295 21.1948C36.9592 20.9737 37.7206 20.503 38.6274 19.5962C39.5342 18.6894 40.0049 17.928 40.226 17.4983C40.3473 17.2625 40.3286 16.9881 40.21 16.7509L39.8002 15.9314C39.2972 14.9255 39.3992 13.7227 40.0643 12.8157L41.5719 10.7598C42.3008 9.76588 43.6782 9.51256 44.7131 10.1822Z" fill="#ADADAD"/>
<path d="M16.8059 45C16.4593 45 16.1726 44.9567 15.9459 44.87C15.7259 44.7833 15.5526 44.6667 15.4259 44.52C15.2993 44.3667 15.2093 44.19 15.1559 43.99C15.1093 43.79 15.0859 43.58 15.0859 43.36V37.6H16.1259V43.1C16.1259 43.2533 16.1359 43.3867 16.1559 43.5C16.1826 43.6133 16.2259 43.7067 16.2859 43.78C16.3459 43.8467 16.4326 43.8967 16.5459 43.93C16.6659 43.9633 16.8193 43.98 17.0059 43.98H17.3859V45H16.8059ZM17.5316 45V43.98H18.7516C18.805 43.88 18.8616 43.7233 18.9216 43.51C18.9816 43.29 19.035 43.0533 19.0816 42.8C19.1283 42.5467 19.1583 42.3167 19.1716 42.11L20.3816 41.69C20.2883 42.15 20.185 42.5667 20.0716 42.94C19.965 43.3133 19.835 43.6667 19.6816 44C19.5283 44.3267 19.335 44.66 19.1016 45H17.5316ZM21.1016 45C20.7416 45 20.4216 44.9667 20.1416 44.9C19.8683 44.8333 19.625 44.75 19.4116 44.65C19.205 44.5433 19.015 44.4333 18.8416 44.32L19.3916 43.64C19.525 43.7133 19.6683 43.7767 19.8216 43.83C19.975 43.8767 20.1383 43.9133 20.3116 43.94C20.4916 43.9667 20.6783 43.98 20.8716 43.98H21.1916V45H21.1016ZM17.5316 43.98H17.6316V45H17.5316C17.3316 45 17.2316 44.8233 17.2316 44.47C17.2316 44.1433 17.3316 43.98 17.5316 43.98ZM19.8116 40.43L19.0016 39.61L19.7716 38.79L20.5816 39.61L19.8116 40.43ZM26.6338 45C26.3204 45 26.0371 44.9867 25.7838 44.96C25.5371 44.9333 25.3071 44.89 25.0938 44.83C24.8871 44.77 24.6904 44.69 24.5038 44.59C24.3171 44.49 24.1304 44.3633 23.9438 44.21C23.7638 44.0567 23.5738 43.8767 23.3738 43.67L22.2438 42.49V41.14C22.4504 41.0333 22.6704 40.9433 22.9038 40.87C23.1438 40.79 23.3904 40.73 23.6438 40.69C23.8971 40.6433 24.1538 40.62 24.4138 40.62C24.8404 40.62 25.2038 40.6667 25.5038 40.76C25.8104 40.8533 26.0438 41.0033 26.2038 41.21C26.3704 41.4167 26.4538 41.6867 26.4538 42.02C26.4538 42.26 26.4071 42.4967 26.3138 42.73C26.2204 42.9633 26.0938 43.18 25.9338 43.38C25.7804 43.58 25.6071 43.7567 25.4138 43.91C25.5271 43.9367 25.6404 43.9567 25.7538 43.97C25.8738 43.9767 26.0038 43.98 26.1438 43.98H27.1538V45H26.6338ZM21.3438 45V43.98H22.2638C22.4438 43.98 22.6138 43.9733 22.7738 43.96C22.9338 43.94 23.0871 43.9167 23.2338 43.89C23.3804 43.8567 23.5171 43.82 23.6438 43.78L24.5038 44.46C24.1304 44.6267 23.7171 44.76 23.2638 44.86C22.8171 44.9533 22.3438 45 21.8438 45H21.3438ZM24.4838 43.41C24.6904 43.2833 24.8604 43.15 24.9938 43.01C25.1338 42.87 25.2371 42.73 25.3038 42.59C25.3771 42.45 25.4138 42.32 25.4138 42.2C25.4138 42.08 25.3804 41.98 25.3138 41.9C25.2471 41.8133 25.1404 41.75 24.9938 41.71C24.8538 41.6633 24.6604 41.64 24.4138 41.64C24.1538 41.64 23.9004 41.6633 23.6538 41.71C23.4071 41.75 23.1838 41.8033 22.9838 41.87L24.0338 42.97C24.1138 43.0567 24.1904 43.1367 24.2638 43.21C24.3438 43.2833 24.4171 43.35 24.4838 43.41ZM21.3438 43.98H21.4438V45H21.3438C21.1437 45 21.0437 44.8233 21.0437 44.47C21.0437 44.1433 21.1437 43.98 21.3438 43.98ZM27.3043 45V43.98H27.3243C27.4776 43.98 27.611 43.9467 27.7243 43.88C27.8376 43.8133 27.9443 43.7133 28.0443 43.58C28.1443 43.44 28.251 43.27 28.3643 43.07C28.4643 42.8833 28.5843 42.67 28.7243 42.43C28.871 42.19 29.0376 41.9567 29.2243 41.73C29.4176 41.5033 29.6343 41.3167 29.8743 41.17C30.121 41.0233 30.3943 40.95 30.6943 40.95C31.0743 40.95 31.4043 41.05 31.6843 41.25C31.9643 41.45 32.1843 41.73 32.3443 42.09C32.511 42.4433 32.6076 42.8567 32.6343 43.33C32.6676 43.7967 32.6243 44.3 32.5043 44.84C32.2576 44.9533 32.0043 45.04 31.7443 45.1C31.4843 45.16 31.2243 45.19 30.9643 45.19C30.7043 45.1967 30.451 45.17 30.2043 45.11C29.9643 45.0567 29.7343 44.9733 29.5143 44.86C29.2943 44.74 29.091 44.5933 28.9043 44.42C28.7243 44.24 28.5643 44.03 28.4243 43.79L29.0543 43.27C29.1676 43.4433 29.3143 43.5967 29.4943 43.73C29.681 43.8567 29.891 43.96 30.1243 44.04C30.3576 44.12 30.6076 44.17 30.8743 44.19C31.141 44.21 31.4143 44.1967 31.6943 44.15C31.721 43.8567 31.7143 43.58 31.6743 43.32C31.6343 43.06 31.5643 42.83 31.4643 42.63C31.371 42.43 31.251 42.2733 31.1043 42.16C30.9576 42.0467 30.7943 41.99 30.6143 41.99C30.4943 41.99 30.371 42.03 30.2443 42.11C30.1176 42.19 29.9743 42.3367 29.8143 42.55C29.661 42.7633 29.471 43.0733 29.2443 43.48C29.171 43.6133 29.081 43.7667 28.9743 43.94C28.8743 44.1133 28.751 44.28 28.6043 44.44C28.4576 44.6 28.281 44.7333 28.0743 44.84C27.8676 44.9467 27.6176 45 27.3243 45H27.3043ZM27.3043 43.98H27.4043V45H27.3043C27.1043 45 27.0043 44.8233 27.0043 44.47C27.0043 44.1433 27.1043 43.98 27.3043 43.98ZM42.5322 43.98H43.7322V45H42.5322V43.98ZM39.6522 47.3C39.1455 47.3 38.7089 47.2333 38.3422 47.1C37.9755 46.9667 37.6722 46.7833 37.4322 46.55C37.1989 46.3233 37.0255 46.0567 36.9122 45.75C36.7989 45.4433 36.7422 45.1167 36.7422 44.77C36.7422 44.5767 36.7755 44.3133 36.8422 43.98C36.9089 43.6467 37.0222 43.2733 37.1822 42.86L38.0622 43.15C37.9555 43.4367 37.8755 43.7067 37.8222 43.96C37.7755 44.2067 37.7522 44.4267 37.7522 44.62C37.7522 44.98 37.8322 45.2833 37.9922 45.53C38.1522 45.7767 38.3822 45.9633 38.6822 46.09C38.9889 46.2167 39.3555 46.28 39.7822 46.28C40.0622 46.28 40.3222 46.2433 40.5622 46.17C40.8089 46.0967 41.0222 45.9833 41.2022 45.83C41.3889 45.6767 41.5322 45.48 41.6322 45.24C41.7389 45.0067 41.7922 44.7267 41.7922 44.4V37.6H42.8322V44.26C42.8322 44.9467 42.6955 45.5133 42.4222 45.96C42.1555 46.4133 41.7822 46.75 41.3022 46.97C40.8289 47.19 40.2789 47.3 39.6522 47.3ZM47.5373 45V43.98H52.2073C52.214 43.4933 52.1707 43.08 52.0773 42.74C51.984 42.3933 51.8307 42.1267 51.6173 41.94C51.4107 41.7533 51.1273 41.66 50.7673 41.66C50.4007 41.66 50.024 41.7833 49.6373 42.03C49.2507 42.2767 48.864 42.64 48.4773 43.12C48.0973 43.5933 47.724 44.18 47.3573 44.88L46.7073 44.03C47.1607 43.2633 47.614 42.63 48.0673 42.13C48.5273 41.6233 48.9907 41.2467 49.4573 41C49.9307 40.7467 50.4073 40.62 50.8873 40.62C51.3807 40.62 51.794 40.7333 52.1273 40.96C52.4607 41.18 52.7173 41.49 52.8973 41.89C53.0773 42.29 53.1773 42.7567 53.1973 43.29C53.224 43.8167 53.1707 44.3867 53.0373 45H47.5373ZM43.8773 45V43.98H45.0973C45.1507 43.88 45.2073 43.7233 45.2673 43.51C45.3273 43.29 45.3807 43.0533 45.4273 42.8C45.474 42.5467 45.504 42.3167 45.5173 42.11L46.7273 41.69C46.634 42.15 46.5307 42.5667 46.4173 42.94C46.3107 43.3133 46.1807 43.6667 46.0273 44C45.874 44.3267 45.6807 44.66 45.4473 45H43.8773ZM47.4473 45C47.0873 45 46.7673 44.9667 46.4873 44.9C46.214 44.8333 45.9707 44.75 45.7573 44.65C45.5507 44.5433 45.3607 44.4333 45.1873 44.32L45.7373 43.64C45.8707 43.7133 46.014 43.7767 46.1673 43.83C46.3207 43.8767 46.484 43.9133 46.6573 43.94C46.8373 43.9667 47.024 43.98 47.2173 43.98H47.5373V45H47.4473ZM43.8773 43.98H43.9773V45H43.8773C43.6773 45 43.5773 44.8233 43.5773 44.47C43.5773 44.1433 43.6773 43.98 43.8773 43.98ZM54.8566 37.6H55.8966V45H54.8566V37.6ZM58.6834 47.3C58.4034 47.3 58.1 47.2467 57.7734 47.14C57.4467 47.04 57.1367 46.8767 56.8434 46.65L57.2134 45.95C57.4267 46.0367 57.65 46.1133 57.8834 46.18C58.1234 46.2467 58.3367 46.28 58.5234 46.28C58.9767 46.28 59.3667 46.1633 59.6934 45.93C60.0267 45.6967 60.2634 45.3867 60.4034 45H59.5834C59.1967 45 58.8667 44.96 58.5934 44.88C58.3267 44.7933 58.1067 44.68 57.9334 44.54C57.7667 44.3933 57.6434 44.2267 57.5634 44.04C57.49 43.8533 57.4534 43.6533 57.4534 43.44C57.4534 43.0933 57.51 42.78 57.6234 42.5C57.7367 42.2133 57.8867 41.97 58.0734 41.77C58.2667 41.5633 58.48 41.4067 58.7134 41.3C58.9534 41.1867 59.2 41.13 59.4534 41.13C59.82 41.13 60.1434 41.2333 60.4234 41.44C60.71 41.6467 60.94 41.94 61.1134 42.32C61.2867 42.7 61.3934 43.15 61.4334 43.67C61.44 43.7167 61.4434 43.7667 61.4434 43.82C61.45 43.8733 61.4534 43.9267 61.4534 43.98H62.1534V45H61.3434C61.27 45.2933 61.16 45.5767 61.0134 45.85C60.8734 46.1233 60.6934 46.37 60.4734 46.59C60.2534 46.81 59.9934 46.9833 59.6934 47.11C59.4 47.2367 59.0634 47.3 58.6834 47.3ZM59.6834 43.98H60.5234C60.5167 43.9267 60.51 43.8733 60.5034 43.82C60.5034 43.7667 60.5 43.7167 60.4934 43.67C60.46 43.4033 60.3934 43.1567 60.2934 42.93C60.2 42.6967 60.0767 42.51 59.9234 42.37C59.7767 42.2233 59.6 42.15 59.3934 42.15C59.2 42.15 59.0267 42.2067 58.8734 42.32C58.7267 42.4267 58.61 42.5633 58.5234 42.73C58.4434 42.8967 58.4034 43.0667 58.4034 43.24C58.4034 43.3867 58.44 43.5167 58.5134 43.63C58.5867 43.7367 58.7167 43.8233 58.9034 43.89C59.09 43.95 59.35 43.98 59.6834 43.98ZM62.3059 45V43.98H64.0959C64.0959 43.5267 64.0259 43.11 63.8859 42.73C63.7525 42.35 63.5725 41.9533 63.3459 41.54L64.2559 40.62C64.4492 41.04 64.6192 41.4767 64.7659 41.93C64.9192 42.3833 65.0059 42.8633 65.0259 43.37C65.0459 43.87 64.9492 44.4133 64.7359 45H62.3059ZM62.3059 43.98H62.4059V45H62.3059C62.1059 45 62.0059 44.8233 62.0059 44.47C62.0059 44.1433 62.1059 43.98 62.3059 43.98ZM62.9759 39.55L62.1659 38.73L62.9359 37.91L63.7459 38.73L62.9759 39.55ZM64.6959 39.55L63.8859 38.73L64.6559 37.91L65.4659 38.73L64.6959 39.55Z" fill="#ADADAD"/>
</svg>
