<svg width="80" height="59" viewBox="0 0 80 59" fill="none" xmlns="http://www.w3.org/2000/svg">
<path fill-rule="evenodd" clip-rule="evenodd" d="M39.6489 8.06367C39.8753 7.97878 40.1247 7.97878 40.3511 8.06367L48.3511 11.0637C48.7414 11.21 49 11.5832 49 12V19C49 22.4464 46.7183 25.2003 44.6585 27.0026C43.6076 27.9221 42.5615 28.6408 41.78 29.1292C41.3882 29.3741 41.0603 29.5627 40.8281 29.6913C40.7119 29.7556 40.6194 29.805 40.5547 29.839C40.5223 29.856 40.4968 29.8692 40.4788 29.8784L40.4573 29.8894L40.4508 29.8926L40.4486 29.8937C40.4483 29.8939 40.4472 29.8944 40 29C39.5528 29.8944 39.5525 29.8943 39.5522 29.8941L39.5492 29.8926L39.5427 29.8894L39.5212 29.8784C39.5032 29.8692 39.4777 29.856 39.4453 29.839C39.3806 29.805 39.2881 29.7556 39.1719 29.6913C38.9397 29.5627 38.6118 29.3741 38.22 29.1292C37.4385 28.6408 36.3924 27.9221 35.3415 27.0026C33.2817 25.2003 31 22.4464 31 19V12C31 11.5832 31.2586 11.21 31.6489 11.0637L39.6489 8.06367ZM40 29L39.5522 29.8941C39.8337 30.0349 40.1657 30.0352 40.4472 29.8944L40 29ZM40 27.8628C40.1916 27.7541 40.4367 27.6103 40.72 27.4333C41.4385 26.9842 42.3924 26.3279 43.3415 25.4974C45.2817 23.7997 47 21.5536 47 19V12.693L40 10.068L33 12.693V19C33 21.5536 34.7183 23.7997 36.6585 25.4974C37.6076 26.3279 38.5615 26.9842 39.28 27.4333C39.5633 27.6103 39.8084 27.7541 40 27.8628Z" fill="#ADADAD"/>
<path d="M26.6424 42.55C26.2424 42.55 25.8791 42.49 25.5524 42.37C25.2258 42.25 24.9658 42.08 24.7724 41.86C24.5791 41.6333 24.4824 41.3633 24.4824 41.05C24.4824 40.7567 24.5458 40.5 24.6724 40.28C24.8058 40.0533 25.0091 39.8433 25.2824 39.65C25.5624 39.4567 25.9158 39.26 26.3424 39.06C26.7691 38.86 27.2791 38.6367 27.8724 38.39L28.0624 39.47C27.5224 39.67 27.0858 39.8433 26.7524 39.99C26.4191 40.1367 26.1624 40.27 25.9824 40.39C25.8024 40.5033 25.6791 40.61 25.6124 40.71C25.5524 40.8033 25.5224 40.9 25.5224 41C25.5224 41.18 25.6158 41.3167 25.8024 41.41C25.9891 41.5033 26.2691 41.55 26.6424 41.55C26.7558 41.55 26.8758 41.5467 27.0024 41.54C27.1358 41.5267 27.2758 41.5067 27.4224 41.48C27.5691 41.4467 27.7258 41.4067 27.8924 41.36L28.1224 42.28C27.8758 42.3867 27.6391 42.46 27.4124 42.5C27.1924 42.5333 26.9358 42.55 26.6424 42.55ZM29.1924 43C28.8458 43 28.5591 42.9567 28.3324 42.87C28.1124 42.7833 27.9391 42.6667 27.8124 42.52C27.6858 42.3667 27.5958 42.19 27.5424 41.99C27.4958 41.79 27.4724 41.58 27.4724 41.36V37.75H28.5124V41.1C28.5124 41.4067 28.5658 41.63 28.6724 41.77C28.7791 41.91 29.0191 41.98 29.3924 41.98H29.7724V43H29.1924ZM25.9024 37.18L25.0924 36.36L25.8624 35.54L26.6724 36.36L25.9024 37.18ZM27.6224 37.18L26.8124 36.36L27.5824 35.54L28.3924 36.36L27.6224 37.18ZM36.5984 43C36.2384 43 35.9184 42.9667 35.6384 42.9C35.365 42.8333 35.1217 42.75 34.9084 42.65C34.7017 42.5433 34.5117 42.4333 34.3384 42.32L34.8884 41.64C35.0817 41.7467 35.3017 41.83 35.5484 41.89C35.8017 41.95 36.075 41.98 36.3684 41.98H37.6484C37.6484 41.5267 37.5784 41.11 37.4384 40.73C37.305 40.35 37.125 39.9533 36.8984 39.54L37.8084 38.62C37.955 38.94 38.0884 39.2667 38.2084 39.6C38.335 39.9267 38.4317 40.27 38.4984 40.63C38.565 40.9833 38.585 41.3567 38.5584 41.75C38.5384 42.1433 38.4484 42.56 38.2884 43H36.5984ZM29.9184 43V41.98H31.2484C31.3284 41.8533 31.405 41.6833 31.4784 41.47C31.5517 41.25 31.615 41.02 31.6684 40.78C31.7217 40.54 31.755 40.3167 31.7684 40.11L32.9784 39.69C32.905 40.0367 32.825 40.3567 32.7384 40.65C32.6517 40.9433 32.5517 41.2233 32.4384 41.49C32.325 41.75 32.1984 42.0033 32.0584 42.25C31.925 42.4967 31.7717 42.7467 31.5984 43H29.9184ZM33.3784 43C33.0184 43 32.6984 42.9667 32.4184 42.9C32.145 42.8333 31.9017 42.75 31.6884 42.65C31.4817 42.5433 31.2917 42.4333 31.1184 42.32L31.6684 41.64C31.8617 41.7467 32.0817 41.83 32.3284 41.89C32.5817 41.95 32.855 41.98 33.1484 41.98H33.9484C34.0284 41.8533 34.105 41.6833 34.1784 41.47C34.2517 41.25 34.315 41.02 34.3684 40.78C34.4217 40.54 34.455 40.3167 34.4684 40.11L35.6784 39.69C35.605 40.0367 35.525 40.3567 35.4384 40.65C35.3517 40.9433 35.2517 41.2233 35.1384 41.49C35.025 41.75 34.8984 42.0033 34.7584 42.25C34.625 42.4967 34.4717 42.7467 34.2984 43H33.3784ZM29.9184 41.98H30.0184V43H29.9184C29.7184 43 29.6184 42.8233 29.6184 42.47C29.6184 42.1433 29.7184 41.98 29.9184 41.98ZM41.9341 43C41.5874 43 41.3007 42.9567 41.0741 42.87C40.8541 42.7833 40.6807 42.6667 40.5541 42.52C40.4274 42.3667 40.3374 42.19 40.2841 41.99C40.2374 41.79 40.2141 41.58 40.2141 41.36V35.6H41.2541V41.1C41.2541 41.2533 41.2641 41.3867 41.2841 41.5C41.3107 41.6133 41.3541 41.7067 41.4141 41.78C41.4741 41.8467 41.5607 41.8967 41.6741 41.93C41.7941 41.9633 41.9474 41.98 42.1341 41.98H42.5141V43H41.9341ZM42.6598 43V41.98H43.8798C43.9331 41.88 43.9898 41.7233 44.0498 41.51C44.1098 41.29 44.1631 41.0533 44.2098 40.8C44.2564 40.5467 44.2864 40.3167 44.2998 40.11L45.5098 39.69C45.4164 40.15 45.3131 40.5667 45.1998 40.94C45.0931 41.3133 44.9631 41.6667 44.8098 42C44.6564 42.3267 44.4631 42.66 44.2298 43H42.6598ZM46.2298 43C45.8698 43 45.5498 42.9667 45.2698 42.9C44.9964 42.8333 44.7531 42.75 44.5398 42.65C44.3331 42.5433 44.1431 42.4333 43.9698 42.32L44.5198 41.64C44.6531 41.7133 44.7964 41.7767 44.9498 41.83C45.1031 41.8767 45.2664 41.9133 45.4398 41.94C45.6198 41.9667 45.8064 41.98 45.9998 41.98H46.3198V43H46.2298ZM42.6598 41.98H42.7598V43H42.6598C42.4598 43 42.3598 42.8233 42.3598 42.47C42.3598 42.1433 42.4598 41.98 42.6598 41.98ZM43.6098 45.43L42.7998 44.61L43.5698 43.79L44.3798 44.61L43.6098 45.43ZM45.3298 45.43L44.5198 44.61L45.2898 43.79L46.0998 44.61L45.3298 45.43ZM53.1519 43C52.7919 43 52.4719 42.9667 52.1919 42.9C51.9185 42.8333 51.6752 42.75 51.4619 42.65C51.2552 42.5433 51.0652 42.4333 50.8919 42.32L51.4419 41.64C51.6352 41.7467 51.8552 41.83 52.1019 41.89C52.3552 41.95 52.6285 41.98 52.9219 41.98H54.2019C54.2019 41.5267 54.1319 41.11 53.9919 40.73C53.8585 40.35 53.6785 39.9533 53.4519 39.54L54.3619 38.62C54.5085 38.94 54.6419 39.2667 54.7619 39.6C54.8885 39.9267 54.9852 40.27 55.0519 40.63C55.1185 40.9833 55.1385 41.3567 55.1119 41.75C55.0919 42.1433 55.0019 42.56 54.8419 43H53.1519ZM46.4719 43V41.98H47.8019C47.8819 41.8533 47.9585 41.6833 48.0319 41.47C48.1052 41.25 48.1685 41.02 48.2219 40.78C48.2752 40.54 48.3085 40.3167 48.3219 40.11L49.5319 39.69C49.4585 40.0367 49.3785 40.3567 49.2919 40.65C49.2052 40.9433 49.1052 41.2233 48.9919 41.49C48.8785 41.75 48.7519 42.0033 48.6119 42.25C48.4785 42.4967 48.3252 42.7467 48.1519 43H46.4719ZM49.9319 43C49.5719 43 49.2519 42.9667 48.9719 42.9C48.6985 42.8333 48.4552 42.75 48.2419 42.65C48.0352 42.5433 47.8452 42.4333 47.6719 42.32L48.2219 41.64C48.4152 41.7467 48.6352 41.83 48.8819 41.89C49.1352 41.95 49.4085 41.98 49.7019 41.98H50.5019C50.5819 41.8533 50.6585 41.6833 50.7319 41.47C50.8052 41.25 50.8685 41.02 50.9219 40.78C50.9752 40.54 51.0085 40.3167 51.0219 40.11L52.2319 39.69C52.1585 40.0367 52.0785 40.3567 51.9919 40.65C51.9052 40.9433 51.8052 41.2233 51.6919 41.49C51.5785 41.75 51.4519 42.0033 51.3119 42.25C51.1785 42.4967 51.0252 42.7467 50.8519 43H49.9319ZM46.4719 41.98H46.5719V43H46.4719C46.2719 43 46.1719 42.8233 46.1719 42.47C46.1719 42.1433 46.2719 41.98 46.4719 41.98ZM17.7748 55.55C17.3748 55.55 17.0115 55.49 16.6848 55.37C16.3582 55.25 16.0982 55.08 15.9048 54.86C15.7115 54.6333 15.6148 54.3633 15.6148 54.05C15.6148 53.7567 15.6782 53.5 15.8048 53.28C15.9382 53.0533 16.1415 52.8433 16.4148 52.65C16.6948 52.4567 17.0482 52.26 17.4748 52.06C17.9015 51.86 18.4115 51.6367 19.0048 51.39L19.1948 52.47C18.6548 52.67 18.2182 52.8433 17.8848 52.99C17.5515 53.1367 17.2948 53.27 17.1148 53.39C16.9348 53.5033 16.8115 53.61 16.7448 53.71C16.6848 53.8033 16.6548 53.9 16.6548 54C16.6548 54.18 16.7482 54.3167 16.9348 54.41C17.1215 54.5033 17.4015 54.55 17.7748 54.55C17.8882 54.55 18.0082 54.5467 18.1348 54.54C18.2682 54.5267 18.4082 54.5067 18.5548 54.48C18.7015 54.4467 18.8582 54.4067 19.0248 54.36L19.2548 55.28C19.0082 55.3867 18.7715 55.46 18.5448 55.5C18.3248 55.5333 18.0682 55.55 17.7748 55.55ZM20.3248 56C19.9782 56 19.6915 55.9567 19.4648 55.87C19.2448 55.7833 19.0715 55.6667 18.9448 55.52C18.8182 55.3667 18.7282 55.19 18.6748 54.99C18.6282 54.79 18.6048 54.58 18.6048 54.36V50.75H19.6448V54.1C19.6448 54.4067 19.6982 54.63 19.8048 54.77C19.9115 54.91 20.1515 54.98 20.5248 54.98H20.9048V56H20.3248ZM17.0348 50.18L16.2248 49.36L16.9948 48.54L17.8048 49.36L17.0348 50.18ZM18.7548 50.18L17.9448 49.36L18.7148 48.54L19.5248 49.36L18.7548 50.18ZM21.0508 56V54.98H22.2708C22.3241 54.88 22.3808 54.7233 22.4408 54.51C22.5008 54.29 22.5541 54.0533 22.6008 53.8C22.6474 53.5467 22.6774 53.3167 22.6908 53.11L23.9008 52.69C23.8074 53.15 23.7041 53.5667 23.5908 53.94C23.4841 54.3133 23.3541 54.6667 23.2008 55C23.0474 55.3267 22.8541 55.66 22.6208 56H21.0508ZM24.6208 56C24.2608 56 23.9408 55.9667 23.6608 55.9C23.3874 55.8333 23.1441 55.75 22.9308 55.65C22.7241 55.5433 22.5341 55.4333 22.3608 55.32L22.9108 54.64C23.0441 54.7133 23.1874 54.7767 23.3408 54.83C23.4941 54.8767 23.6574 54.9133 23.8308 54.94C24.0108 54.9667 24.1974 54.98 24.3908 54.98H24.7108V56H24.6208ZM21.0508 54.98H21.1508V56H21.0508C20.8508 56 20.7508 55.8233 20.7508 55.47C20.7508 55.1433 20.8508 54.98 21.0508 54.98ZM22.0008 58.43L21.1908 57.61L21.9608 56.79L22.7708 57.61L22.0008 58.43ZM23.7208 58.43L22.9108 57.61L23.6808 56.79L24.4908 57.61L23.7208 58.43ZM28.5229 56V54.98H33.1929C33.1996 54.4933 33.1562 54.08 33.0629 53.74C32.9696 53.3933 32.8162 53.1267 32.6029 52.94C32.3962 52.7533 32.1129 52.66 31.7529 52.66C31.3862 52.66 31.0096 52.7833 30.6229 53.03C30.2362 53.2767 29.8496 53.64 29.4629 54.12C29.0829 54.5933 28.7096 55.18 28.3429 55.88L27.6929 55.03C28.1462 54.2633 28.5996 53.63 29.0529 53.13C29.5129 52.6233 29.9762 52.2467 30.4429 52C30.9162 51.7467 31.3929 51.62 31.8729 51.62C32.3662 51.62 32.7796 51.7333 33.1129 51.96C33.4462 52.18 33.7029 52.49 33.8829 52.89C34.0629 53.29 34.1629 53.7567 34.1829 54.29C34.2096 54.8167 34.1562 55.3867 34.0229 56H28.5229ZM24.8629 56V54.98H26.0829C26.1362 54.88 26.1929 54.7233 26.2529 54.51C26.3129 54.29 26.3662 54.0533 26.4129 53.8C26.4596 53.5467 26.4896 53.3167 26.5029 53.11L27.7129 52.69C27.6196 53.15 27.5162 53.5667 27.4029 53.94C27.2962 54.3133 27.1662 54.6667 27.0129 55C26.8596 55.3267 26.6662 55.66 26.4329 56H24.8629ZM28.4329 56C28.0729 56 27.7529 55.9667 27.4729 55.9C27.1996 55.8333 26.9562 55.75 26.7429 55.65C26.5362 55.5433 26.3462 55.4333 26.1729 55.32L26.7229 54.64C26.8562 54.7133 26.9996 54.7767 27.1529 54.83C27.3062 54.8767 27.4696 54.9133 27.6429 54.94C27.8229 54.9667 28.0096 54.98 28.2029 54.98H28.5229V56H28.4329ZM24.8629 54.98H24.9629V56H24.8629C24.6629 56 24.5629 55.8233 24.5629 55.47C24.5629 55.1433 24.6629 54.98 24.8629 54.98ZM36.8822 58.3C36.6022 58.3 36.2989 58.2467 35.9722 58.14C35.6455 58.04 35.3355 57.8767 35.0422 57.65L35.4122 56.95C35.6255 57.0367 35.8489 57.1133 36.0822 57.18C36.3222 57.2467 36.5355 57.28 36.7222 57.28C37.1755 57.28 37.5655 57.1633 37.8922 56.93C38.2255 56.6967 38.4622 56.3867 38.6022 56H37.7822C37.3955 56 37.0655 55.96 36.7922 55.88C36.5255 55.7933 36.3055 55.68 36.1322 55.54C35.9655 55.3933 35.8422 55.2267 35.7622 55.04C35.6889 54.8533 35.6522 54.6533 35.6522 54.44C35.6522 54.0933 35.7089 53.78 35.8222 53.5C35.9355 53.2133 36.0855 52.97 36.2722 52.77C36.4655 52.5633 36.6789 52.4067 36.9122 52.3C37.1522 52.1867 37.3989 52.13 37.6522 52.13C38.0189 52.13 38.3422 52.2333 38.6222 52.44C38.9089 52.6467 39.1389 52.94 39.3122 53.32C39.4855 53.7 39.5922 54.15 39.6322 54.67C39.6389 54.7167 39.6422 54.7667 39.6422 54.82C39.6489 54.8733 39.6522 54.9267 39.6522 54.98H40.3522V56H39.5422C39.4689 56.2933 39.3589 56.5767 39.2122 56.85C39.0722 57.1233 38.8922 57.37 38.6722 57.59C38.4522 57.81 38.1922 57.9833 37.8922 58.11C37.5989 58.2367 37.2622 58.3 36.8822 58.3ZM37.8822 54.98H38.7222C38.7155 54.9267 38.7089 54.8733 38.7022 54.82C38.7022 54.7667 38.6989 54.7167 38.6922 54.67C38.6589 54.4033 38.5922 54.1567 38.4922 53.93C38.3989 53.6967 38.2755 53.51 38.1222 53.37C37.9755 53.2233 37.7989 53.15 37.5922 53.15C37.3989 53.15 37.2255 53.2067 37.0722 53.32C36.9255 53.4267 36.8089 53.5633 36.7222 53.73C36.6422 53.8967 36.6022 54.0667 36.6022 54.24C36.6022 54.3867 36.6389 54.5167 36.7122 54.63C36.7855 54.7367 36.9155 54.8233 37.1022 54.89C37.2889 54.95 37.5489 54.98 37.8822 54.98ZM49.3547 54.51C49.5614 54.7033 49.7914 54.83 50.0447 54.89C50.298 54.95 50.5714 54.98 50.8647 54.98V56C50.478 56 50.1047 55.9233 49.7447 55.77C49.3914 55.61 49.1014 55.3467 48.8747 54.98L49.3547 54.51ZM44.1647 56V54.98H48.8347C48.8414 54.4933 48.798 54.08 48.7047 53.74C48.6114 53.3933 48.458 53.1267 48.2447 52.94C48.038 52.7533 47.7547 52.66 47.3947 52.66C47.028 52.66 46.6514 52.7833 46.2647 53.03C45.878 53.2767 45.4914 53.64 45.1047 54.12C44.7247 54.5933 44.3514 55.18 43.9847 55.88L43.3347 55.03C43.788 54.2633 44.2414 53.63 44.6947 53.13C45.1547 52.6233 45.618 52.2467 46.0847 52C46.558 51.7467 47.0347 51.62 47.5147 51.62C48.008 51.62 48.4214 51.7333 48.7547 51.96C49.088 52.18 49.3447 52.49 49.5247 52.89C49.7047 53.29 49.8047 53.7567 49.8247 54.29C49.8514 54.8167 49.798 55.3867 49.6647 56H44.1647ZM40.5047 56V54.98H41.7247C41.778 54.88 41.8347 54.7233 41.8947 54.51C41.9547 54.29 42.008 54.0533 42.0547 53.8C42.1014 53.5467 42.1314 53.3167 42.1447 53.11L43.3547 52.69C43.2614 53.15 43.158 53.5667 43.0447 53.94C42.938 54.3133 42.808 54.6667 42.6547 55C42.5014 55.3267 42.308 55.66 42.0747 56H40.5047ZM44.0747 56C43.7147 56 43.3947 55.9667 43.1147 55.9C42.8414 55.8333 42.598 55.75 42.3847 55.65C42.178 55.5433 41.988 55.4333 41.8147 55.32L42.3647 54.64C42.498 54.7133 42.6414 54.7767 42.7947 54.83C42.948 54.8767 43.1114 54.9133 43.2847 54.94C43.4647 54.9667 43.6514 54.98 43.8447 54.98H44.1647V56H44.0747ZM40.5047 54.98H40.6047V56H40.5047C40.3047 56 40.2047 55.8233 40.2047 55.47C40.2047 55.1433 40.3047 54.98 40.5047 54.98ZM58.306 56C57.8993 56 57.5527 55.9533 57.266 55.86C56.986 55.7667 56.7593 55.6233 56.586 55.43C56.4127 55.23 56.2793 54.9767 56.186 54.67L56.886 54.33C56.9593 54.4833 57.0527 54.61 57.166 54.71C57.286 54.8033 57.4393 54.8733 57.626 54.92C57.8193 54.96 58.056 54.98 58.336 54.98H58.666V56H58.306ZM51.016 54.98H51.116V56H51.016C50.816 56 50.716 55.8233 50.716 55.47C50.716 55.1433 50.816 54.98 51.016 54.98ZM51.016 56V54.98H51.306C51.9327 54.98 52.4693 54.9567 52.916 54.91C53.3627 54.8633 53.746 54.8 54.066 54.72C54.3927 54.64 54.6793 54.5467 54.926 54.44C55.1727 54.3267 55.4093 54.21 55.636 54.09C55.7027 54.05 55.7693 54.0133 55.836 53.98C55.9027 53.9467 55.9693 53.9133 56.036 53.88C56.1027 53.8467 56.1693 53.8133 56.236 53.78C55.9827 53.6867 55.7327 53.58 55.486 53.46C55.2393 53.3333 54.996 53.21 54.756 53.09C54.516 52.9633 54.2793 52.86 54.046 52.78C53.8193 52.7 53.596 52.66 53.376 52.66C53.176 52.66 52.966 52.7133 52.746 52.82C52.526 52.92 52.3193 53.1467 52.126 53.5L51.406 53.13C51.586 52.7633 51.786 52.47 52.006 52.25C52.2327 52.03 52.4727 51.87 52.726 51.77C52.986 51.67 53.2493 51.62 53.516 51.62C53.836 51.62 54.1427 51.68 54.436 51.8C54.736 51.9133 55.026 52.0533 55.306 52.22C55.5927 52.3867 55.8727 52.5567 56.146 52.73C56.4193 52.8967 56.6927 53.04 56.966 53.16C57.2393 53.2733 57.5127 53.33 57.786 53.33V54.23C57.5993 54.23 57.3627 54.2967 57.076 54.43C56.796 54.5633 56.4727 54.7267 56.106 54.92C55.8793 55.04 55.6293 55.1633 55.356 55.29C55.0827 55.4167 54.7627 55.5333 54.396 55.64C54.0293 55.7467 53.5893 55.8333 53.076 55.9C52.5627 55.9667 51.9527 56 51.246 56H51.016ZM51.016 54.98H51.116V56H51.016C50.816 56 50.716 55.8233 50.716 55.47C50.716 55.1433 50.816 54.98 51.016 54.98ZM53.536 50.55L52.726 49.73L53.496 48.91L54.306 49.73L53.536 50.55ZM58.8125 56V54.98H60.0625V48.6H61.1025V56H58.8125ZM58.8125 54.98H58.9125V56H58.8125C58.6125 56 58.5125 55.8233 58.5125 55.47C58.5125 55.1433 58.6125 54.98 58.8125 54.98ZM62.8484 48.6H63.8884V56H62.8484V48.6Z" fill="#ADADAD"/>
</svg>
