<svg width="80" height="50" viewBox="0 0 80 50" fill="none" xmlns="http://www.w3.org/2000/svg">
<g clip-path="url(#clip0_328_12473)">
<g clip-path="url(#clip1_328_12473)">
<path fill-rule="evenodd" clip-rule="evenodd" d="M45.3984 14C44.8462 14 44.3984 13.5523 44.3984 13C44.3984 12.4477 44.8462 12 45.3984 12H51.3984C51.9507 12 52.3984 12.4477 52.3984 13V19C52.3984 19.5523 51.9507 20 51.3984 20C50.8462 20 50.3984 19.5523 50.3984 19V15.4142L42.6055 23.2071C42.215 23.5976 41.5819 23.5976 41.1913 23.2071L36.8984 18.9142L30.1055 25.7071C29.715 26.0976 29.0819 26.0976 28.6913 25.7071C28.3008 25.3166 28.3008 24.6834 28.6913 24.2929L36.1913 16.7929C36.5819 16.4024 37.215 16.4024 37.6055 16.7929L41.8984 21.0858L48.9842 14H45.3984Z" fill="#ADADAD"/>
</g>
</g>
<path d="M10.6808 41.14C11.0674 41.14 11.4141 41.2533 11.7208 41.48C12.0274 41.7 12.2808 42.0267 12.4808 42.46C12.6808 42.8867 12.8108 43.4167 12.8708 44.05L12.4808 45C12.3341 44.9467 12.1674 44.9033 11.9808 44.87C11.7941 44.83 11.5841 44.8 11.3508 44.78C11.1174 44.7533 10.8574 44.74 10.5708 44.74C10.3641 44.74 10.1608 44.7533 9.96078 44.78C9.76745 44.8 9.58745 44.8367 9.42078 44.89C9.43411 45.25 9.46411 45.6133 9.51078 45.98C9.56411 46.3467 9.61411 46.72 9.66078 47.1C9.70745 47.4867 9.73411 47.8833 9.74078 48.29C9.75411 48.6967 9.72745 49.1167 9.66078 49.55L8.83078 49.49C8.84411 48.9367 8.82745 48.4333 8.78078 47.98C8.74078 47.5333 8.69078 47.1433 8.63078 46.81C8.57078 46.4767 8.51745 46.2033 8.47078 45.99C8.42411 45.7833 8.40078 45.64 8.40078 45.56C8.40078 45.3267 8.43078 45.1133 8.49078 44.92C8.55745 44.7267 8.66745 44.5467 8.82078 44.38C8.96078 44.22 9.14078 44.0967 9.36078 44.01C9.58745 43.9233 9.83745 43.8633 10.1108 43.83C10.3841 43.79 10.6641 43.77 10.9508 43.77C11.1374 43.77 11.3041 43.7767 11.4508 43.79C11.6041 43.8033 11.7441 43.82 11.8708 43.84C11.8108 43.48 11.7241 43.1767 11.6108 42.93C11.5041 42.6767 11.3741 42.4867 11.2208 42.36C11.0741 42.2267 10.9141 42.16 10.7408 42.16C10.5008 42.16 10.3141 42.2367 10.1808 42.39C10.0474 42.5367 9.95411 42.72 9.90078 42.94L9.03078 42.75C9.06411 42.4433 9.15745 42.17 9.31078 41.93C9.46411 41.6833 9.66078 41.49 9.90078 41.35C10.1408 41.21 10.4008 41.14 10.6808 41.14ZM14.3095 45L14.1195 43.98H16.9095C17.2295 43.98 17.4629 43.95 17.6095 43.89C17.7629 43.8233 17.8762 43.7333 17.9495 43.62L18.3095 44.44C18.2495 44.58 18.1495 44.69 18.0095 44.77C17.8695 44.85 17.7029 44.91 17.5095 44.95C17.3229 44.9833 17.1229 45 16.9095 45H14.3095ZM15.7695 41.12L16.5495 40.13L18.2995 43.15C18.4195 43.3567 18.5295 43.5233 18.6295 43.65C18.7295 43.77 18.8329 43.8567 18.9395 43.91C19.0529 43.9567 19.1862 43.98 19.3395 43.98H19.4395V45H19.3395C19.1395 45 18.9529 44.9767 18.7795 44.93C18.6129 44.8767 18.4529 44.8 18.2995 44.7C18.1529 44.5933 18.0062 44.4567 17.8595 44.29C17.7195 44.1233 17.5729 43.9233 17.4195 43.69L15.7695 41.12ZM19.5922 45V43.98H20.2422C20.3422 43.98 20.4389 43.98 20.5322 43.98C20.6255 43.98 20.7189 43.98 20.8122 43.98C20.9122 43.98 21.0089 43.98 21.1022 43.98C20.9022 43.7933 20.7489 43.5867 20.6422 43.36C20.5422 43.1267 20.4922 42.87 20.4922 42.59C20.4922 42.31 20.5455 42.05 20.6522 41.81C20.7589 41.5633 20.9055 41.3533 21.0922 41.18C21.2789 41 21.4955 40.86 21.7422 40.76C21.9955 40.66 22.2655 40.61 22.5522 40.61C22.8389 40.61 23.1055 40.66 23.3522 40.76C23.5989 40.86 23.8155 41 24.0022 41.18C24.1889 41.36 24.3355 41.57 24.4422 41.81C24.5489 42.05 24.6022 42.31 24.6022 42.59C24.6022 42.8167 24.5622 43.05 24.4822 43.29C24.4022 43.53 24.2522 43.76 24.0322 43.98C24.1055 43.98 24.1789 43.98 24.2522 43.98C24.3255 43.98 24.3989 43.98 24.4722 43.98H25.3022V45H24.7122C24.3722 45 24.0755 44.9933 23.8222 44.98C23.5689 44.96 23.3422 44.9333 23.1422 44.9C22.9422 44.86 22.7489 44.8067 22.5622 44.74C22.4089 44.7867 22.2455 44.8267 22.0722 44.86C21.9055 44.8933 21.7322 44.92 21.5522 44.94C21.3722 44.96 21.1855 44.9767 20.9922 44.99C20.7989 44.9967 20.5989 45 20.3922 45H19.5922ZM22.5922 43.98C22.7655 43.8867 22.9255 43.7767 23.0722 43.65C23.2189 43.5233 23.3355 43.3767 23.4222 43.21C23.5155 43.0433 23.5622 42.85 23.5622 42.63C23.5622 42.4433 23.5155 42.2767 23.4222 42.13C23.3355 41.9767 23.2155 41.8567 23.0622 41.77C22.9089 41.6767 22.7389 41.63 22.5522 41.63C22.3589 41.63 22.1855 41.6733 22.0322 41.76C21.8789 41.8467 21.7555 41.9667 21.6622 42.12C21.5755 42.2667 21.5322 42.4367 21.5322 42.63C21.5322 42.8967 21.5855 43.12 21.6922 43.3C21.8055 43.4733 21.9455 43.6167 22.1122 43.73C22.2789 43.8367 22.4389 43.92 22.5922 43.98ZM19.5922 43.98H19.6922V45H19.5922C19.3922 45 19.2922 44.8233 19.2922 44.47C19.2922 44.1433 19.3922 43.98 19.5922 43.98ZM21.7122 39.54L20.9022 38.72L21.6722 37.9L22.4822 38.72L21.7122 39.54ZM23.4322 39.54L22.6222 38.72L23.3922 37.9L24.2022 38.72L23.4322 39.54ZM25.4551 45V43.98H26.8751C26.9284 43.88 26.9851 43.7233 27.0451 43.51C27.1051 43.29 27.1584 43.0533 27.2051 42.8C27.2517 42.5467 27.2817 42.3167 27.2951 42.11L28.5051 41.69C28.4117 42.15 28.3084 42.5667 28.1951 42.94C28.0884 43.3133 27.9584 43.6667 27.8051 44C27.6517 44.3267 27.4584 44.66 27.2251 45H25.4551ZM29.2251 45C28.8651 45 28.5451 44.9667 28.2651 44.9C27.9917 44.8333 27.7484 44.75 27.5351 44.65C27.3284 44.5433 27.1384 44.4333 26.9651 44.32L27.5151 43.64C27.6484 43.7133 27.7917 43.7767 27.9451 43.83C28.0984 43.8767 28.2617 43.9133 28.4351 43.94C28.6151 43.9667 28.8017 43.98 28.9951 43.98H29.5151V45H29.2251ZM25.4551 43.98H25.5551V45H25.4551C25.2551 45 25.1551 44.8233 25.1551 44.47C25.1551 44.1433 25.2551 43.98 25.4551 43.98ZM27.0751 40.43L26.2651 39.61L27.0351 38.79L27.8451 39.61L27.0751 40.43ZM28.7951 40.43L27.9851 39.61L28.7551 38.79L29.5651 39.61L28.7951 40.43ZM29.6676 45V43.98H30.9176V37.6H31.9576V45H29.6676ZM29.6676 43.98H29.7676V45H29.6676C29.4676 45 29.3676 44.8233 29.3676 44.47C29.3676 44.1433 29.4676 43.98 29.6676 43.98ZM33.7035 37.6H34.7435V45H33.7035V37.6ZM42.113 47.3C41.633 47.3 41.1963 47.2467 40.803 47.14C40.4163 47.0333 40.083 46.8733 39.803 46.66C39.5296 46.4533 39.3163 46.19 39.163 45.87C39.0163 45.5567 38.943 45.19 38.943 44.77C38.943 44.5767 38.9763 44.3133 39.043 43.98C39.1096 43.6467 39.223 43.2733 39.383 42.86L40.263 43.15C40.1563 43.4367 40.0763 43.7067 40.023 43.96C39.9763 44.2067 39.953 44.4267 39.953 44.62C39.953 44.8933 39.9996 45.1333 40.093 45.34C40.193 45.5467 40.3396 45.72 40.533 45.86C40.7263 46 40.963 46.1033 41.243 46.17C41.5296 46.2433 41.8563 46.28 42.223 46.28C42.6763 46.28 43.0663 46.24 43.393 46.16C43.7263 46.08 43.9996 45.9767 44.213 45.85C44.433 45.7233 44.5963 45.5933 44.703 45.46C44.8096 45.3267 44.863 45.2067 44.863 45.1C44.863 44.9867 44.8063 44.8833 44.693 44.79C44.5863 44.6967 44.4363 44.6033 44.243 44.51C44.0496 44.41 43.8263 44.3 43.573 44.18C43.3463 44.0667 43.133 43.9433 42.933 43.81C42.733 43.67 42.5696 43.5067 42.443 43.32C42.3163 43.1267 42.253 42.9 42.253 42.64C42.253 42.24 42.3496 41.89 42.543 41.59C42.7363 41.2833 42.9996 41.0433 43.333 40.87C43.673 40.6967 44.063 40.61 44.503 40.61C44.703 40.61 44.8996 40.6267 45.093 40.66C45.293 40.6933 45.4863 40.7433 45.673 40.81C45.8596 40.87 46.033 40.95 46.193 41.05L45.673 41.93C45.493 41.8233 45.3096 41.7467 45.123 41.7C44.9363 41.6533 44.7296 41.63 44.503 41.63C44.1296 41.63 43.833 41.7167 43.613 41.89C43.3996 42.0633 43.293 42.2733 43.293 42.52C43.293 42.6867 43.3563 42.8367 43.483 42.97C43.6163 43.0967 43.783 43.2133 43.983 43.32C44.183 43.42 44.3896 43.5167 44.603 43.61C44.8696 43.7233 45.093 43.8367 45.273 43.95C45.453 44.0567 45.5896 44.18 45.683 44.32C45.7763 44.46 45.823 44.6267 45.823 44.82C45.823 45.0333 45.7796 45.2567 45.693 45.49C45.6063 45.7233 45.4696 45.9467 45.283 46.16C45.103 46.3733 44.8663 46.5667 44.573 46.74C44.2863 46.9133 43.9396 47.05 43.533 47.15C43.1263 47.25 42.653 47.3 42.113 47.3ZM48.5822 47.3C48.3022 47.3 47.9989 47.2467 47.6722 47.14C47.3455 47.04 47.0355 46.8767 46.7422 46.65L47.1122 45.95C47.3255 46.0367 47.5489 46.1133 47.7822 46.18C48.0222 46.2467 48.2355 46.28 48.4222 46.28C48.8755 46.28 49.2655 46.1633 49.5922 45.93C49.9255 45.6967 50.1622 45.3867 50.3022 45H49.4822C49.0955 45 48.7655 44.96 48.4922 44.88C48.2255 44.7933 48.0055 44.68 47.8322 44.54C47.6655 44.3933 47.5422 44.2267 47.4622 44.04C47.3889 43.8533 47.3522 43.6533 47.3522 43.44C47.3522 43.0933 47.4089 42.78 47.5222 42.5C47.6355 42.2133 47.7855 41.97 47.9722 41.77C48.1655 41.5633 48.3789 41.4067 48.6122 41.3C48.8522 41.1867 49.0989 41.13 49.3522 41.13C49.7189 41.13 50.0422 41.2333 50.3222 41.44C50.6089 41.6467 50.8389 41.94 51.0122 42.32C51.1855 42.7 51.2922 43.15 51.3322 43.67C51.3389 43.7167 51.3422 43.7667 51.3422 43.82C51.3489 43.8733 51.3522 43.9267 51.3522 43.98H52.0522V45H51.2422C51.1689 45.2933 51.0589 45.5767 50.9122 45.85C50.7722 46.1233 50.5922 46.37 50.3722 46.59C50.1522 46.81 49.8922 46.9833 49.5922 47.11C49.2989 47.2367 48.9622 47.3 48.5822 47.3ZM49.5822 43.98H50.4222C50.4155 43.9267 50.4089 43.8733 50.4022 43.82C50.4022 43.7667 50.3989 43.7167 50.3922 43.67C50.3589 43.4033 50.2922 43.1567 50.1922 42.93C50.0989 42.6967 49.9755 42.51 49.8222 42.37C49.6755 42.2233 49.4989 42.15 49.2922 42.15C49.0989 42.15 48.9255 42.2067 48.7722 42.32C48.6255 42.4267 48.5089 42.5633 48.4222 42.73C48.3422 42.8967 48.3022 43.0667 48.3022 43.24C48.3022 43.3867 48.3389 43.5167 48.4122 43.63C48.4855 43.7367 48.6155 43.8233 48.8022 43.89C48.9889 43.95 49.2489 43.98 49.5822 43.98ZM52.2047 45V43.98H53.4247C53.478 43.88 53.5347 43.7233 53.5947 43.51C53.6547 43.29 53.708 43.0533 53.7547 42.8C53.8014 42.5467 53.8314 42.3167 53.8447 42.11L55.0547 41.69C54.9614 42.15 54.858 42.5667 54.7447 42.94C54.638 43.3133 54.508 43.6667 54.3547 44C54.2014 44.3267 54.008 44.66 53.7747 45H52.2047ZM55.7747 45C55.4147 45 55.0947 44.9667 54.8147 44.9C54.5414 44.8333 54.298 44.75 54.0847 44.65C53.878 44.5433 53.688 44.4333 53.5147 44.32L54.0647 43.64C54.198 43.7133 54.3414 43.7767 54.4947 43.83C54.648 43.8767 54.8114 43.9133 54.9847 43.94C55.1647 43.9667 55.3514 43.98 55.5447 43.98H55.8647V45H55.7747ZM52.2047 43.98H52.3047V45H52.2047C52.0047 45 51.9047 44.8233 51.9047 44.47C51.9047 44.1433 52.0047 43.98 52.2047 43.98ZM53.6247 40.43L52.8147 39.61L53.5847 38.79L54.3947 39.61L53.6247 40.43ZM55.3447 40.43L54.5347 39.61L55.3047 38.79L56.1147 39.61L55.3447 40.43ZM62.6968 45C62.3368 45 62.0168 44.9667 61.7368 44.9C61.4635 44.8333 61.2201 44.75 61.0068 44.65C60.8001 44.5433 60.6101 44.4333 60.4368 44.32L60.9868 43.64C61.3868 43.8667 61.8801 43.98 62.4668 43.98H63.7468C63.7135 43.68 63.6735 43.4233 63.6268 43.21C63.5868 42.9967 63.5368 42.7867 63.4768 42.58C63.4168 42.3667 63.3368 42.1233 63.2368 41.85L64.3868 41.08C64.4468 41.5 64.4968 41.9267 64.5368 42.36C64.5835 42.7867 64.6001 43.22 64.5868 43.66C64.5735 44.1 64.5068 44.5467 64.3868 45H62.6968ZM56.0168 45V43.98H57.3468C57.4268 43.8533 57.4935 43.6833 57.5468 43.47C57.6068 43.25 57.6535 43.02 57.6868 42.78C57.7268 42.54 57.7535 42.3167 57.7668 42.11L58.9768 41.69C58.9035 42.0367 58.8268 42.3567 58.7468 42.65C58.6735 42.9433 58.5868 43.2233 58.4868 43.49C58.3868 43.75 58.2735 44.0033 58.1468 44.25C58.0201 44.4967 57.8701 44.7467 57.6968 45H56.0168ZM59.4768 45C59.1168 45 58.7968 44.9667 58.5168 44.9C58.2435 44.8333 58.0001 44.75 57.7868 44.65C57.5801 44.5433 57.3901 44.4333 57.2168 44.32L57.7668 43.64C57.9601 43.7467 58.1801 43.83 58.4268 43.89C58.6801 43.95 58.9535 43.98 59.2468 43.98H60.0468C60.1268 43.8533 60.1935 43.6833 60.2468 43.47C60.3068 43.25 60.3535 43.02 60.3868 42.78C60.4268 42.54 60.4535 42.3167 60.4668 42.11L61.6768 41.69C61.6035 42.0367 61.5268 42.3567 61.4468 42.65C61.3735 42.9433 61.2868 43.2233 61.1868 43.49C61.0868 43.75 60.9735 44.0033 60.8468 44.25C60.7201 44.4967 60.5701 44.7467 60.3968 45H59.4768ZM65.6268 45C65.3468 45 65.0901 44.98 64.8568 44.94C64.6301 44.8933 64.4235 44.8367 64.2368 44.77C64.0501 44.6967 63.8801 44.62 63.7268 44.54L64.1368 43.75C64.2235 43.79 64.3135 43.8233 64.4068 43.85C64.5068 43.8767 64.6101 43.9 64.7168 43.92C64.8235 43.94 64.9335 43.9567 65.0468 43.97C65.1601 43.9767 65.2768 43.98 65.3968 43.98H65.7168V45H65.6268ZM56.0168 43.98H56.1168V45H56.0168C55.8168 45 55.7168 44.8233 55.7168 44.47C55.7168 44.1433 55.8168 43.98 56.0168 43.98ZM65.8641 45V43.98H65.8841C66.0374 43.98 66.1707 43.9467 66.2841 43.88C66.3974 43.8133 66.5041 43.7133 66.6041 43.58C66.7041 43.44 66.8107 43.27 66.9241 43.07C67.0241 42.8833 67.1441 42.67 67.2841 42.43C67.4307 42.19 67.5974 41.9567 67.7841 41.73C67.9774 41.5033 68.1941 41.3167 68.4341 41.17C68.6807 41.0233 68.9541 40.95 69.2541 40.95C69.6341 40.95 69.9641 41.05 70.2441 41.25C70.5241 41.45 70.7441 41.73 70.9041 42.09C71.0707 42.4433 71.1674 42.8567 71.1941 43.33C71.2274 43.7967 71.1841 44.3 71.0641 44.84C70.8174 44.9533 70.5641 45.04 70.3041 45.1C70.0441 45.16 69.7841 45.19 69.5241 45.19C69.2641 45.1967 69.0107 45.17 68.7641 45.11C68.5241 45.0567 68.2941 44.9733 68.0741 44.86C67.8541 44.74 67.6507 44.5933 67.4641 44.42C67.2841 44.24 67.1241 44.03 66.9841 43.79L67.6141 43.27C67.7274 43.4433 67.8741 43.5967 68.0541 43.73C68.2407 43.8567 68.4507 43.96 68.6841 44.04C68.9174 44.12 69.1674 44.17 69.4341 44.19C69.7007 44.21 69.9741 44.1967 70.2541 44.15C70.2807 43.8567 70.2741 43.58 70.2341 43.32C70.1941 43.06 70.1241 42.83 70.0241 42.63C69.9307 42.43 69.8107 42.2733 69.6641 42.16C69.5174 42.0467 69.3541 41.99 69.1741 41.99C69.0541 41.99 68.9307 42.03 68.8041 42.11C68.6774 42.19 68.5341 42.3367 68.3741 42.55C68.2207 42.7633 68.0307 43.0733 67.8041 43.48C67.7307 43.6133 67.6407 43.7667 67.5341 43.94C67.4341 44.1133 67.3107 44.28 67.1641 44.44C67.0174 44.6 66.8407 44.7333 66.6341 44.84C66.4274 44.9467 66.1774 45 65.8841 45H65.8641ZM65.8641 43.98H65.9641V45H65.8641C65.6641 45 65.5641 44.8233 65.5641 44.47C65.5641 44.1433 65.6641 43.98 65.8641 43.98Z" fill="#ADADAD"/>
<defs>
<clipPath id="clip0_328_12473">
<rect width="24" height="24" fill="white" transform="translate(28 7)"/>
</clipPath>
<clipPath id="clip1_328_12473">
<rect width="24" height="24" fill="white" transform="translate(28.3984 7)"/>
</clipPath>
</defs>
</svg>
