<svg width="80" height="50" viewBox="0 0 80 50" fill="none" xmlns="http://www.w3.org/2000/svg">
<path d="M40 7C46.6274 7 52 12.3726 52 19C52 25.6274 46.6274 31 40 31C33.3726 31 28 25.6274 28 19C28 12.3726 33.3726 7 40 7ZM40 25.5C37.9141 25.5 35.92 26.082 34.2032 27.149C35.8382 28.3146 37.839 29 40 29C42.1605 29 44.161 28.3148 45.796 27.15C44.0795 26.0818 42.0857 25.5 40 25.5ZM40 9C34.4772 9 30 13.4772 30 19C30 21.6157 31.0043 23.9968 32.6482 25.7788C34.7856 24.3082 37.331 23.5 40 23.5C42.6693 23.5 45.2149 24.3084 47.3527 25.7774C48.9961 23.9959 50 21.6152 50 19C50 13.4772 45.5228 9 40 9ZM40 12.5C42.6242 12.5 44.75 14.6258 44.75 17.25C44.75 19.8742 42.6242 22 40 22C37.3758 22 35.25 19.8742 35.25 17.25C35.25 14.6258 37.3758 12.5 40 12.5ZM40 14.5C38.4804 14.5 37.25 15.7304 37.25 17.25C37.25 18.7696 38.4804 20 40 20C41.5196 20 42.75 18.7696 42.75 17.25C42.75 15.7304 41.5196 14.5 40 14.5Z" fill="#ADADAD"/>
<path d="M9.06766 47.3C8.58766 47.3 8.15099 47.2467 7.75766 47.14C7.37099 47.0333 7.03766 46.8733 6.75766 46.66C6.48432 46.4533 6.27099 46.19 6.11766 45.87C5.97099 45.5567 5.89766 45.19 5.89766 44.77C5.89766 44.5767 5.93099 44.3133 5.99766 43.98C6.06432 43.6467 6.17766 43.2733 6.33766 42.86L7.21766 43.15C7.11099 43.4367 7.03099 43.7067 6.97766 43.96C6.93099 44.2067 6.90766 44.4267 6.90766 44.62C6.90766 44.8933 6.95432 45.1333 7.04766 45.34C7.14766 45.5467 7.29432 45.72 7.48766 45.86C7.68099 46 7.91766 46.1033 8.19766 46.17C8.48432 46.2433 8.81099 46.28 9.17766 46.28C9.63099 46.28 10.0243 46.2367 10.3577 46.15C10.691 46.07 10.9677 45.9667 11.1877 45.84C11.4143 45.72 11.581 45.59 11.6877 45.45C11.801 45.3167 11.8577 45.1967 11.8577 45.09C11.8577 44.99 11.8177 44.8933 11.7377 44.8C11.6643 44.7 11.5343 44.6 11.3477 44.5C11.161 44.3933 10.901 44.28 10.5677 44.16L11.0577 43.27C11.4177 43.47 11.7077 43.64 11.9277 43.78C12.1543 43.92 12.3277 44.0467 12.4477 44.16C12.5743 44.2667 12.661 44.37 12.7077 44.47C12.7543 44.57 12.7777 44.6867 12.7777 44.82C12.7777 45.0333 12.7343 45.2567 12.6477 45.49C12.561 45.7233 12.4243 45.9467 12.2377 46.16C12.0577 46.3733 11.821 46.5667 11.5277 46.74C11.241 46.9133 10.8943 47.05 10.4877 47.15C10.081 47.25 9.60766 47.3 9.06766 47.3ZM13.6477 45C13.501 45 13.331 44.9833 13.1377 44.95C12.9443 44.9167 12.741 44.8667 12.5277 44.8C12.321 44.7333 12.111 44.6533 11.8977 44.56C11.691 44.46 11.4977 44.3467 11.3177 44.22L11.0577 43.27C11.3577 43.4167 11.6277 43.5367 11.8677 43.63C12.1077 43.7233 12.3277 43.7967 12.5277 43.85C12.7343 43.8967 12.9277 43.93 13.1077 43.95C13.2877 43.97 13.4677 43.98 13.6477 43.98H13.6677V45H13.6477ZM8.22766 49.73L7.41766 48.91L8.18766 48.09L8.99766 48.91L8.22766 49.73ZM9.94766 49.73L9.13766 48.91L9.90766 48.09L10.7177 48.91L9.94766 49.73ZM22.6641 43.51C22.8707 43.7033 23.1007 43.83 23.3541 43.89C23.6074 43.95 23.8807 43.98 24.1741 43.98V45C23.7874 45 23.4141 44.9233 23.0541 44.77C22.7007 44.61 22.4107 44.3467 22.1841 43.98L22.6641 43.51ZM17.4741 45V43.98H22.1441C22.1507 43.4933 22.1074 43.08 22.0141 42.74C21.9207 42.3933 21.7674 42.1267 21.5541 41.94C21.3474 41.7533 21.0641 41.66 20.7041 41.66C20.3374 41.66 19.9607 41.7833 19.5741 42.03C19.1874 42.2767 18.8007 42.64 18.4141 43.12C18.0341 43.5933 17.6607 44.18 17.2941 44.88L16.6441 44.03C17.0974 43.2633 17.5507 42.63 18.0041 42.13C18.4641 41.6233 18.9274 41.2467 19.3941 41C19.8674 40.7467 20.3441 40.62 20.8241 40.62C21.3174 40.62 21.7307 40.7333 22.0641 40.96C22.3974 41.18 22.6541 41.49 22.8341 41.89C23.0141 42.29 23.1141 42.7567 23.1341 43.29C23.1607 43.8167 23.1074 44.3867 22.9741 45H17.4741ZM13.8141 45V43.98H15.0341C15.0874 43.88 15.1441 43.7233 15.2041 43.51C15.2641 43.29 15.3174 43.0533 15.3641 42.8C15.4107 42.5467 15.4407 42.3167 15.4541 42.11L16.6641 41.69C16.5707 42.15 16.4674 42.5667 16.3541 42.94C16.2474 43.3133 16.1174 43.6667 15.9641 44C15.8107 44.3267 15.6174 44.66 15.3841 45H13.8141ZM17.3841 45C17.0241 45 16.7041 44.9667 16.4241 44.9C16.1507 44.8333 15.9074 44.75 15.6941 44.65C15.4874 44.5433 15.2974 44.4333 15.1241 44.32L15.6741 43.64C15.8074 43.7133 15.9507 43.7767 16.1041 43.83C16.2574 43.8767 16.4207 43.9133 16.5941 43.94C16.7741 43.9667 16.9607 43.98 17.1541 43.98H17.4741V45H17.3841ZM13.8141 43.98H13.9141V45H13.8141C13.6141 45 13.5141 44.8233 13.5141 44.47C13.5141 44.1433 13.6141 43.98 13.8141 43.98ZM31.6154 45C31.2087 45 30.8621 44.9533 30.5754 44.86C30.2954 44.7667 30.0687 44.6233 29.8954 44.43C29.7221 44.23 29.5887 43.9767 29.4954 43.67L30.1954 43.33C30.2687 43.4833 30.3621 43.61 30.4754 43.71C30.5954 43.8033 30.7487 43.8733 30.9354 43.92C31.1287 43.96 31.3654 43.98 31.6454 43.98H31.9754V45H31.6154ZM24.3254 43.98H24.4254V45H24.3254C24.1254 45 24.0254 44.8233 24.0254 44.47C24.0254 44.1433 24.1254 43.98 24.3254 43.98ZM24.3254 45V43.98H24.6154C25.2421 43.98 25.7787 43.9567 26.2254 43.91C26.6721 43.8633 27.0554 43.8 27.3754 43.72C27.7021 43.64 27.9887 43.5467 28.2354 43.44C28.4821 43.3267 28.7187 43.21 28.9454 43.09C29.0121 43.05 29.0787 43.0133 29.1454 42.98C29.2121 42.9467 29.2787 42.9133 29.3454 42.88C29.4121 42.8467 29.4787 42.8133 29.5454 42.78C29.2921 42.6867 29.0421 42.58 28.7954 42.46C28.5487 42.3333 28.3054 42.21 28.0654 42.09C27.8254 41.9633 27.5887 41.86 27.3554 41.78C27.1287 41.7 26.9054 41.66 26.6854 41.66C26.4854 41.66 26.2754 41.7133 26.0554 41.82C25.8354 41.92 25.6287 42.1467 25.4354 42.5L24.7154 42.13C24.8954 41.7633 25.0954 41.47 25.3154 41.25C25.5421 41.03 25.7821 40.87 26.0354 40.77C26.2954 40.67 26.5587 40.62 26.8254 40.62C27.1454 40.62 27.4521 40.68 27.7454 40.8C28.0454 40.9133 28.3354 41.0533 28.6154 41.22C28.9021 41.3867 29.1821 41.5567 29.4554 41.73C29.7287 41.8967 30.0021 42.04 30.2754 42.16C30.5487 42.2733 30.8221 42.33 31.0954 42.33V43.23C30.9087 43.23 30.6721 43.2967 30.3854 43.43C30.1054 43.5633 29.7821 43.7267 29.4154 43.92C29.1887 44.04 28.9387 44.1633 28.6654 44.29C28.3921 44.4167 28.0721 44.5333 27.7054 44.64C27.3387 44.7467 26.8987 44.8333 26.3854 44.9C25.8721 44.9667 25.2621 45 24.5554 45H24.3254ZM24.3254 43.98H24.4254V45H24.3254C24.1254 45 24.0254 44.8233 24.0254 44.47C24.0254 44.1433 24.1254 43.98 24.3254 43.98ZM26.8454 39.55L26.0354 38.73L26.8054 37.91L27.6154 38.73L26.8454 39.55ZM38.8019 45C38.4419 45 38.1219 44.9667 37.8419 44.9C37.5685 44.8333 37.3252 44.75 37.1119 44.65C36.9052 44.5433 36.7152 44.4333 36.5419 44.32L37.0919 43.64C37.4919 43.8667 37.9852 43.98 38.5719 43.98H39.8519C39.8185 43.68 39.7785 43.4233 39.7319 43.21C39.6919 42.9967 39.6419 42.7867 39.5819 42.58C39.5219 42.3667 39.4419 42.1233 39.3419 41.85L40.4919 41.08C40.5519 41.5 40.6019 41.9267 40.6419 42.36C40.6885 42.7867 40.7052 43.22 40.6919 43.66C40.6785 44.1 40.6119 44.5467 40.4919 45H38.8019ZM32.1219 45V43.98H33.4519C33.5319 43.8533 33.5985 43.6833 33.6519 43.47C33.7119 43.25 33.7585 43.02 33.7919 42.78C33.8319 42.54 33.8585 42.3167 33.8719 42.11L35.0819 41.69C35.0085 42.0367 34.9319 42.3567 34.8519 42.65C34.7785 42.9433 34.6919 43.2233 34.5919 43.49C34.4919 43.75 34.3785 44.0033 34.2519 44.25C34.1252 44.4967 33.9752 44.7467 33.8019 45H32.1219ZM35.5819 45C35.2219 45 34.9019 44.9667 34.6219 44.9C34.3485 44.8333 34.1052 44.75 33.8919 44.65C33.6852 44.5433 33.4952 44.4333 33.3219 44.32L33.8719 43.64C34.0652 43.7467 34.2852 43.83 34.5319 43.89C34.7852 43.95 35.0585 43.98 35.3519 43.98H36.1519C36.2319 43.8533 36.2985 43.6833 36.3519 43.47C36.4119 43.25 36.4585 43.02 36.4919 42.78C36.5319 42.54 36.5585 42.3167 36.5719 42.11L37.7819 41.69C37.7085 42.0367 37.6319 42.3567 37.5519 42.65C37.4785 42.9433 37.3919 43.2233 37.2919 43.49C37.1919 43.75 37.0785 44.0033 36.9519 44.25C36.8252 44.4967 36.6752 44.7467 36.5019 45H35.5819ZM41.7319 45C41.4519 45 41.1952 44.98 40.9619 44.94C40.7352 44.8933 40.5285 44.8367 40.3419 44.77C40.1552 44.6967 39.9852 44.62 39.8319 44.54L40.2419 43.75C40.3285 43.79 40.4185 43.8233 40.5119 43.85C40.6119 43.8767 40.7152 43.9 40.8219 43.92C40.9285 43.94 41.0385 43.9567 41.1519 43.97C41.2652 43.9767 41.3819 43.98 41.5019 43.98H41.8219V45H41.7319ZM32.1219 43.98H32.2219V45H32.1219C31.9219 45 31.8219 44.8233 31.8219 44.47C31.8219 44.1433 31.9219 43.98 32.1219 43.98ZM37.1419 39.23L36.3319 38.41L37.1019 37.59L37.9119 38.41L37.1419 39.23ZM36.3119 40.6L35.5019 39.78L36.2719 38.96L37.0819 39.78L36.3119 40.6ZM38.0319 40.6L37.2219 39.78L37.9919 38.96L38.8019 39.78L38.0319 40.6ZM41.9691 45V43.98H43.2191V37.6H44.2591V45H41.9691ZM41.9691 43.98H42.0691V45H41.9691C41.7691 45 41.6691 44.8233 41.6691 44.47C41.6691 44.1433 41.7691 43.98 41.9691 43.98ZM46.0051 37.6H47.0451V45H46.0051V37.6ZM54.4145 47.3C53.9345 47.3 53.4979 47.2467 53.1045 47.14C52.7179 47.0333 52.3845 46.8733 52.1045 46.66C51.8312 46.4533 51.6179 46.19 51.4645 45.87C51.3179 45.5567 51.2445 45.19 51.2445 44.77C51.2445 44.5767 51.2779 44.3133 51.3445 43.98C51.4112 43.6467 51.5245 43.2733 51.6845 42.86L52.5645 43.15C52.4579 43.4367 52.3779 43.7067 52.3245 43.96C52.2779 44.2067 52.2545 44.4267 52.2545 44.62C52.2545 44.8933 52.3012 45.1333 52.3945 45.34C52.4945 45.5467 52.6412 45.72 52.8345 45.86C53.0279 46 53.2645 46.1033 53.5445 46.17C53.8312 46.2433 54.1579 46.28 54.5245 46.28C54.9779 46.28 55.3712 46.2367 55.7045 46.15C56.0379 46.07 56.3145 45.9667 56.5345 45.84C56.7612 45.72 56.9279 45.59 57.0345 45.45C57.1479 45.3167 57.2045 45.1967 57.2045 45.09C57.2045 44.99 57.1645 44.8933 57.0845 44.8C57.0112 44.7 56.8812 44.6 56.6945 44.5C56.5079 44.3933 56.2479 44.28 55.9145 44.16L56.4045 43.27C56.7645 43.47 57.0545 43.64 57.2745 43.78C57.5012 43.92 57.6745 44.0467 57.7945 44.16C57.9212 44.2667 58.0079 44.37 58.0545 44.47C58.1012 44.57 58.1245 44.6867 58.1245 44.82C58.1245 45.0333 58.0812 45.2567 57.9945 45.49C57.9079 45.7233 57.7712 45.9467 57.5845 46.16C57.4045 46.3733 57.1679 46.5667 56.8745 46.74C56.5879 46.9133 56.2412 47.05 55.8345 47.15C55.4279 47.25 54.9545 47.3 54.4145 47.3ZM58.9945 45C58.8479 45 58.6779 44.9833 58.4845 44.95C58.2912 44.9167 58.0879 44.8667 57.8745 44.8C57.6679 44.7333 57.4579 44.6533 57.2445 44.56C57.0379 44.46 56.8445 44.3467 56.6645 44.22L56.4045 43.27C56.7045 43.4167 56.9745 43.5367 57.2145 43.63C57.4545 43.7233 57.6745 43.7967 57.8745 43.85C58.0812 43.8967 58.2745 43.93 58.4545 43.95C58.6345 43.97 58.8145 43.98 58.9945 43.98H59.0145V45H58.9945ZM53.5745 49.73L52.7645 48.91L53.5345 48.09L54.3445 48.91L53.5745 49.73ZM55.2945 49.73L54.4845 48.91L55.2545 48.09L56.0645 48.91L55.2945 49.73ZM59.1609 45V43.98H59.8109C59.9109 43.98 60.0076 43.98 60.1009 43.98C60.1943 43.98 60.2876 43.98 60.3809 43.98C60.4809 43.98 60.5776 43.98 60.6709 43.98C60.4709 43.7933 60.3176 43.5867 60.2109 43.36C60.1109 43.1267 60.0609 42.87 60.0609 42.59C60.0609 42.31 60.1143 42.05 60.2209 41.81C60.3276 41.5633 60.4743 41.3533 60.6609 41.18C60.8476 41 61.0643 40.86 61.3109 40.76C61.5643 40.66 61.8343 40.61 62.1209 40.61C62.4076 40.61 62.6743 40.66 62.9209 40.76C63.1676 40.86 63.3843 41 63.5709 41.18C63.7576 41.36 63.9043 41.57 64.0109 41.81C64.1176 42.05 64.1709 42.31 64.1709 42.59C64.1709 42.8167 64.1309 43.05 64.0509 43.29C63.9709 43.53 63.8209 43.76 63.6009 43.98C63.6743 43.98 63.7476 43.98 63.8209 43.98C63.8943 43.98 63.9676 43.98 64.0409 43.98H64.8709V45H64.2809C63.9409 45 63.6443 44.9933 63.3909 44.98C63.1376 44.96 62.9109 44.9333 62.7109 44.9C62.5109 44.86 62.3176 44.8067 62.1309 44.74C61.9776 44.7867 61.8143 44.8267 61.6409 44.86C61.4743 44.8933 61.3009 44.92 61.1209 44.94C60.9409 44.96 60.7543 44.9767 60.5609 44.99C60.3676 44.9967 60.1676 45 59.9609 45H59.1609ZM62.1609 43.98C62.3343 43.8867 62.4943 43.7767 62.6409 43.65C62.7876 43.5233 62.9043 43.3767 62.9909 43.21C63.0843 43.0433 63.1309 42.85 63.1309 42.63C63.1309 42.4433 63.0843 42.2767 62.9909 42.13C62.9043 41.9767 62.7843 41.8567 62.6309 41.77C62.4776 41.6767 62.3076 41.63 62.1209 41.63C61.9276 41.63 61.7543 41.6733 61.6009 41.76C61.4476 41.8467 61.3243 41.9667 61.2309 42.12C61.1443 42.2667 61.1009 42.4367 61.1009 42.63C61.1009 42.8967 61.1543 43.12 61.2609 43.3C61.3743 43.4733 61.5143 43.6167 61.6809 43.73C61.8476 43.8367 62.0076 43.92 62.1609 43.98ZM59.1609 43.98H59.2609V45H59.1609C58.9609 45 58.8609 44.8233 58.8609 44.47C58.8609 44.1433 58.9609 43.98 59.1609 43.98ZM62.1409 39.54L61.3309 38.72L62.1009 37.9L62.9109 38.72L62.1409 39.54ZM67.0138 43.98H68.2138V45H67.0138V43.98ZM65.0238 45V43.98H66.2738V37.6H67.3138V45H65.0238ZM65.0238 43.98H65.1238V45H65.0238C64.8238 45 64.7238 44.8233 64.7238 44.47C64.7238 44.1433 64.8238 43.98 65.0238 43.98ZM68.3672 45V43.98H68.3872C68.5405 43.98 68.6739 43.9467 68.7872 43.88C68.9005 43.8133 69.0072 43.7133 69.1072 43.58C69.2072 43.44 69.3139 43.27 69.4272 43.07C69.5272 42.8833 69.6472 42.67 69.7872 42.43C69.9339 42.19 70.1005 41.9567 70.2872 41.73C70.4805 41.5033 70.6972 41.3167 70.9372 41.17C71.1839 41.0233 71.4572 40.95 71.7572 40.95C72.1372 40.95 72.4672 41.05 72.7472 41.25C73.0272 41.45 73.2472 41.73 73.4072 42.09C73.5739 42.4433 73.6705 42.8567 73.6972 43.33C73.7305 43.7967 73.6872 44.3 73.5672 44.84C73.3205 44.9533 73.0672 45.04 72.8072 45.1C72.5472 45.16 72.2872 45.19 72.0272 45.19C71.7672 45.1967 71.5139 45.17 71.2672 45.11C71.0272 45.0567 70.7972 44.9733 70.5772 44.86C70.3572 44.74 70.1539 44.5933 69.9672 44.42C69.7872 44.24 69.6272 44.03 69.4872 43.79L70.1172 43.27C70.2305 43.4433 70.3772 43.5967 70.5572 43.73C70.7439 43.8567 70.9539 43.96 71.1872 44.04C71.4205 44.12 71.6705 44.17 71.9372 44.19C72.2039 44.21 72.4772 44.1967 72.7572 44.15C72.7839 43.8567 72.7772 43.58 72.7372 43.32C72.6972 43.06 72.6272 42.83 72.5272 42.63C72.4339 42.43 72.3139 42.2733 72.1672 42.16C72.0205 42.0467 71.8572 41.99 71.6772 41.99C71.5572 41.99 71.4339 42.03 71.3072 42.11C71.1805 42.19 71.0372 42.3367 70.8772 42.55C70.7239 42.7633 70.5339 43.0733 70.3072 43.48C70.2339 43.6133 70.1439 43.7667 70.0372 43.94C69.9372 44.1133 69.8139 44.28 69.6672 44.44C69.5205 44.6 69.3439 44.7333 69.1372 44.84C68.9305 44.9467 68.6805 45 68.3872 45H68.3672ZM68.3672 43.98H68.4672V45H68.3672C68.1672 45 68.0672 44.8233 68.0672 44.47C68.0672 44.1433 68.1672 43.98 68.3672 43.98Z" fill="#ADADAD"/>
</svg>
