<svg width="80" height="49" viewBox="0 0 80 49" fill="none" xmlns="http://www.w3.org/2000/svg">
<path fill-rule="evenodd" clip-rule="evenodd" d="M32 13.1707V12C32 10.3431 33.3431 9 35 9H47C48.6569 9 50 10.3431 50 12V26C50 27.6569 48.6569 29 47 29H33C31.3431 29 30 27.6569 30 26V16C30 14.6938 30.8348 13.5825 32 13.1707ZM48 12C48 11.4477 47.5523 11 47 11H35C34.4477 11 34 11.4477 34 12V13H47C47.5523 13 48 12.5523 48 12ZM48 14.8293C47.6872 14.9398 47.3506 15 47 15H33C32.4477 15 32 15.4477 32 16V18H35C36.6569 18 38 19.3431 38 21C38 22.6569 36.6569 24 35 24H32V26C32 26.5523 32.4477 27 33 27H47C47.5523 27 48 26.5523 48 26V14.8293ZM35 20H32V22H35C35.5523 22 36 21.5523 36 21C36 20.4477 35.5523 20 35 20Z" fill="#ADADAD"/>
<path d="M23.2268 45.3C22.7468 45.3 22.3102 45.2467 21.9168 45.14C21.5302 45.0333 21.1968 44.8733 20.9168 44.66C20.6435 44.4533 20.4302 44.19 20.2768 43.87C20.1302 43.5567 20.0568 43.19 20.0568 42.77C20.0568 42.5767 20.0902 42.3133 20.1568 41.98C20.2235 41.6467 20.3368 41.2733 20.4968 40.86L21.3768 41.15C21.2702 41.4367 21.1902 41.7067 21.1368 41.96C21.0902 42.2067 21.0668 42.4267 21.0668 42.62C21.0668 42.8933 21.1135 43.1333 21.2068 43.34C21.3068 43.5467 21.4535 43.72 21.6468 43.86C21.8402 44 22.0768 44.1033 22.3568 44.17C22.6435 44.2433 22.9702 44.28 23.3368 44.28C23.7902 44.28 24.1835 44.2367 24.5168 44.15C24.8502 44.07 25.1268 43.9667 25.3468 43.84C25.5735 43.72 25.7402 43.59 25.8468 43.45C25.9602 43.3167 26.0168 43.1967 26.0168 43.09C26.0168 42.99 25.9768 42.8933 25.8968 42.8C25.8235 42.7 25.6935 42.6 25.5068 42.5C25.3202 42.3933 25.0602 42.28 24.7268 42.16L25.2168 41.27C25.5768 41.47 25.8668 41.64 26.0868 41.78C26.3135 41.92 26.4868 42.0467 26.6068 42.16C26.7335 42.2667 26.8202 42.37 26.8668 42.47C26.9135 42.57 26.9368 42.6867 26.9368 42.82C26.9368 43.0333 26.8935 43.2567 26.8068 43.49C26.7202 43.7233 26.5835 43.9467 26.3968 44.16C26.2168 44.3733 25.9802 44.5667 25.6868 44.74C25.4002 44.9133 25.0535 45.05 24.6468 45.15C24.2402 45.25 23.7668 45.3 23.2268 45.3ZM27.8068 43C27.6602 43 27.4902 42.9833 27.2968 42.95C27.1035 42.9167 26.9002 42.8667 26.6868 42.8C26.4802 42.7333 26.2702 42.6533 26.0568 42.56C25.8502 42.46 25.6568 42.3467 25.4768 42.22L25.2168 41.27C25.5168 41.4167 25.7868 41.5367 26.0268 41.63C26.2668 41.7233 26.4868 41.7967 26.6868 41.85C26.8935 41.8967 27.0868 41.93 27.2668 41.95C27.4468 41.97 27.6268 41.98 27.8068 41.98H27.8268V43H27.8068ZM22.3868 47.73L21.5768 46.91L22.3468 46.09L23.1568 46.91L22.3868 47.73ZM24.1068 47.73L23.2968 46.91L24.0668 46.09L24.8768 46.91L24.1068 47.73ZM27.9732 43V41.98H29.1932C29.2466 41.88 29.3032 41.7233 29.3632 41.51C29.4232 41.29 29.4766 41.0533 29.5232 40.8C29.5699 40.5467 29.5999 40.3167 29.6132 40.11L30.8232 39.69C30.7299 40.15 30.6266 40.5667 30.5132 40.94C30.4066 41.3133 30.2766 41.6667 30.1232 42C29.9699 42.3267 29.7766 42.66 29.5432 43H27.9732ZM31.5432 43C31.1832 43 30.8632 42.9667 30.5832 42.9C30.3099 42.8333 30.0666 42.75 29.8532 42.65C29.6466 42.5433 29.4566 42.4333 29.2832 42.32L29.8332 41.64C29.9666 41.7133 30.1099 41.7767 30.2632 41.83C30.4166 41.8767 30.5799 41.9133 30.7532 41.94C30.9332 41.9667 31.1199 41.98 31.3132 41.98H31.6332V43H31.5432ZM27.9732 41.98H28.0732V43H27.9732C27.7732 43 27.6732 42.8233 27.6732 42.47C27.6732 42.1433 27.7732 41.98 27.9732 41.98ZM29.3932 38.43L28.5832 37.61L29.3532 36.79L30.1632 37.61L29.3932 38.43ZM31.1132 38.43L30.3032 37.61L31.0732 36.79L31.8832 37.61L31.1132 38.43ZM38.8854 41.51C39.092 41.7033 39.322 41.83 39.5754 41.89C39.8287 41.95 40.102 41.98 40.3954 41.98V43C40.0087 43 39.6354 42.9233 39.2754 42.77C38.922 42.61 38.632 42.3467 38.4054 41.98L38.8854 41.51ZM31.7854 43V41.98H38.3654C38.372 41.4933 38.3287 41.08 38.2354 40.74C38.142 40.3933 37.9887 40.1267 37.7754 39.94C37.5687 39.7533 37.2854 39.66 36.9254 39.66C36.5587 39.66 36.182 39.7833 35.7954 40.03C35.4087 40.2767 35.022 40.64 34.6354 41.12C34.2554 41.5933 33.882 42.18 33.5154 42.88L33.1154 42.06C33.4887 41.2867 33.8854 40.6467 34.3054 40.14C34.7254 39.6267 35.1654 39.2467 35.6254 39C36.092 38.7467 36.5654 38.62 37.0454 38.62C37.5387 38.62 37.952 38.7333 38.2854 38.96C38.6187 39.18 38.8754 39.49 39.0554 39.89C39.2354 40.29 39.3354 40.7567 39.3554 41.29C39.382 41.8167 39.3287 42.3867 39.1954 43H31.7854ZM32.9354 43V35.6H33.9754V43H32.9354ZM31.7854 41.98H31.8854V43H31.7854C31.5854 43 31.4854 42.8233 31.4854 42.47C31.4854 42.1433 31.5854 41.98 31.7854 41.98ZM36.5654 37.55L35.7554 36.73L36.5254 35.91L37.3354 36.73L36.5654 37.55ZM40.5486 43V41.98H41.1986C41.2986 41.98 41.3953 41.98 41.4886 41.98C41.582 41.98 41.6753 41.98 41.7686 41.98C41.8686 41.98 41.9653 41.98 42.0586 41.98C41.8586 41.7933 41.7053 41.5867 41.5986 41.36C41.4986 41.1267 41.4486 40.87 41.4486 40.59C41.4486 40.31 41.502 40.05 41.6086 39.81C41.7153 39.5633 41.862 39.3533 42.0486 39.18C42.2353 39 42.452 38.86 42.6986 38.76C42.952 38.66 43.222 38.61 43.5086 38.61C43.7953 38.61 44.062 38.66 44.3086 38.76C44.5553 38.86 44.772 39 44.9586 39.18C45.1453 39.36 45.292 39.57 45.3986 39.81C45.5053 40.05 45.5586 40.31 45.5586 40.59C45.5586 40.8167 45.5186 41.05 45.4386 41.29C45.3586 41.53 45.2086 41.76 44.9886 41.98C45.062 41.98 45.1353 41.98 45.2086 41.98C45.282 41.98 45.3553 41.98 45.4286 41.98H46.2586V43H45.6686C45.3286 43 45.032 42.9933 44.7786 42.98C44.5253 42.96 44.2986 42.9333 44.0986 42.9C43.8986 42.86 43.7053 42.8067 43.5186 42.74C43.3653 42.7867 43.202 42.8267 43.0286 42.86C42.862 42.8933 42.6886 42.92 42.5086 42.94C42.3286 42.96 42.142 42.9767 41.9486 42.99C41.7553 42.9967 41.5553 43 41.3486 43H40.5486ZM43.5486 41.98C43.722 41.8867 43.882 41.7767 44.0286 41.65C44.1753 41.5233 44.292 41.3767 44.3786 41.21C44.472 41.0433 44.5186 40.85 44.5186 40.63C44.5186 40.4433 44.472 40.2767 44.3786 40.13C44.292 39.9767 44.172 39.8567 44.0186 39.77C43.8653 39.6767 43.6953 39.63 43.5086 39.63C43.3153 39.63 43.142 39.6733 42.9886 39.76C42.8353 39.8467 42.712 39.9667 42.6186 40.12C42.532 40.2667 42.4886 40.4367 42.4886 40.63C42.4886 40.8967 42.542 41.12 42.6486 41.3C42.762 41.4733 42.902 41.6167 43.0686 41.73C43.2353 41.8367 43.3953 41.92 43.5486 41.98ZM40.5486 41.98H40.6486V43H40.5486C40.3486 43 40.2486 42.8233 40.2486 42.47C40.2486 42.1433 40.3486 41.98 40.5486 41.98ZM43.5286 37.54L42.7186 36.72L43.4886 35.9L44.2986 36.72L43.5286 37.54ZM53.7015 43C53.2949 43 52.9482 42.9533 52.6615 42.86C52.3815 42.7667 52.1549 42.6233 51.9815 42.43C51.8082 42.23 51.6749 41.9767 51.5815 41.67L52.2815 41.33C52.3549 41.4833 52.4482 41.61 52.5615 41.71C52.6815 41.8033 52.8349 41.8733 53.0215 41.92C53.2149 41.96 53.4515 41.98 53.7315 41.98H54.0615V43H53.7015ZM46.4115 41.98H46.5115V43H46.4115C46.2115 43 46.1115 42.8233 46.1115 42.47C46.1115 42.1433 46.2115 41.98 46.4115 41.98ZM46.4115 43V41.98H46.7015C47.3282 41.98 47.8649 41.9567 48.3115 41.91C48.7582 41.8633 49.1415 41.8 49.4615 41.72C49.7882 41.64 50.0749 41.5467 50.3215 41.44C50.5682 41.3267 50.8049 41.21 51.0315 41.09C51.0982 41.05 51.1649 41.0133 51.2315 40.98C51.2982 40.9467 51.3649 40.9133 51.4315 40.88C51.4982 40.8467 51.5649 40.8133 51.6315 40.78C51.3782 40.6867 51.1282 40.58 50.8815 40.46C50.6349 40.3333 50.3915 40.21 50.1515 40.09C49.9115 39.9633 49.6749 39.86 49.4415 39.78C49.2149 39.7 48.9915 39.66 48.7715 39.66C48.5715 39.66 48.3615 39.7133 48.1415 39.82C47.9215 39.92 47.7149 40.1467 47.5215 40.5L46.8015 40.13C46.9815 39.7633 47.1815 39.47 47.4015 39.25C47.6282 39.03 47.8682 38.87 48.1215 38.77C48.3815 38.67 48.6449 38.62 48.9115 38.62C49.2315 38.62 49.5382 38.68 49.8315 38.8C50.1315 38.9133 50.4215 39.0533 50.7015 39.22C50.9882 39.3867 51.2682 39.5567 51.5415 39.73C51.8149 39.8967 52.0882 40.04 52.3615 40.16C52.6349 40.2733 52.9082 40.33 53.1815 40.33V41.23C52.9949 41.23 52.7582 41.2967 52.4715 41.43C52.1915 41.5633 51.8682 41.7267 51.5015 41.92C51.2749 42.04 51.0249 42.1633 50.7515 42.29C50.4782 42.4167 50.1582 42.5333 49.7915 42.64C49.4249 42.7467 48.9849 42.8333 48.4715 42.9C47.9582 42.9667 47.3482 43 46.6415 43H46.4115ZM46.4115 41.98H46.5115V43H46.4115C46.2115 43 46.1115 42.8233 46.1115 42.47C46.1115 42.1433 46.2115 41.98 46.4115 41.98ZM54.208 43V41.98H54.228C54.3813 41.98 54.5147 41.9467 54.628 41.88C54.7413 41.8133 54.848 41.7133 54.948 41.58C55.048 41.44 55.1547 41.27 55.268 41.07C55.368 40.8833 55.488 40.67 55.628 40.43C55.7747 40.19 55.9413 39.9567 56.128 39.73C56.3213 39.5033 56.538 39.3167 56.778 39.17C57.0247 39.0233 57.298 38.95 57.598 38.95C57.978 38.95 58.308 39.05 58.588 39.25C58.868 39.45 59.088 39.73 59.248 40.09C59.4147 40.4433 59.5113 40.8567 59.538 41.33C59.5713 41.7967 59.528 42.3 59.408 42.84C59.1613 42.9533 58.908 43.04 58.648 43.1C58.388 43.16 58.128 43.19 57.868 43.19C57.608 43.1967 57.3547 43.17 57.108 43.11C56.868 43.0567 56.638 42.9733 56.418 42.86C56.198 42.74 55.9947 42.5933 55.808 42.42C55.628 42.24 55.468 42.03 55.328 41.79L55.958 41.27C56.0713 41.4433 56.218 41.5967 56.398 41.73C56.5847 41.8567 56.7947 41.96 57.028 42.04C57.2613 42.12 57.5113 42.17 57.778 42.19C58.0447 42.21 58.318 42.1967 58.598 42.15C58.6247 41.8567 58.618 41.58 58.578 41.32C58.538 41.06 58.468 40.83 58.368 40.63C58.2747 40.43 58.1547 40.2733 58.008 40.16C57.8613 40.0467 57.698 39.99 57.518 39.99C57.398 39.99 57.2747 40.03 57.148 40.11C57.0213 40.19 56.878 40.3367 56.718 40.55C56.5647 40.7633 56.3747 41.0733 56.148 41.48C56.0747 41.6133 55.9847 41.7667 55.878 41.94C55.778 42.1133 55.6547 42.28 55.508 42.44C55.3613 42.6 55.1847 42.7333 54.978 42.84C54.7713 42.9467 54.5213 43 54.228 43H54.208ZM54.208 41.98H54.308V43H54.208C54.008 43 53.908 42.8233 53.908 42.47C53.908 42.1433 54.008 41.98 54.208 41.98Z" fill="#ADADAD"/>
</svg>
